<svg xmlns="http://www.w3.org/2000/svg" xmlns:xlink="http://www.w3.org/1999/xlink" width="279" height="237" viewBox="0 0 279 237"><defs><style>.a{fill:#e2e2e2;}.b{fill:#fff;}.c{fill:#f30;}.d{filter:url(#a);}</style><filter id="a" x="0" y="0" width="279" height="237" filterUnits="userSpaceOnUse"><feOffset dy="3" input="SourceAlpha"/><feGaussianBlur stdDeviation="7.5" result="b"/><feFlood flood-opacity="0.102"/><feComposite operator="in" in2="b"/><feComposite in="SourceGraphic"/></filter></defs><g transform="translate(-130.5 -986.5)"><g class="d" transform="matrix(1, 0, 0, 1, 130.5, 986.5)"><rect class="a" width="234" height="192" rx="20" transform="translate(22.5 19.5)"/></g><rect class="b" width="260" height="192" rx="10" transform="translate(139 1001)"/><g transform="translate(197.523 1022.977)"><path class="c" d="M.176,0H142.728V119.4H.176Zm0,0"/><path class="b" d="M491.622,518.844v8.7a4.155,4.155,0,0,1-8.31,0v-42.8h-8.061V534.74h24.433V518.819h-8.061Zm-60.548,8.63a4.156,4.156,0,1,1-8.31.05v-8.7H414.7v7.217c0,3.621,3.175,9.448,12.2,9.448s12.2-4.464,12.2-9.448v-41.29h-8.037Zm30.262-42.728H445.212V534.74h16.123c6.027,0,8.061-3.992,8.061-6.547V513.24a5.352,5.352,0,0,0-5.308-4.91c3.175,0,5.308-4.414,5.308-6.894V492.9C469.4,487.375,464.436,484.746,461.336,484.746Zm-3.175,45.927h-4.887V510.512h4.887c3.175,0,3.175,2.306,3.175,10.143S461.336,530.673,458.161,530.673Zm-.5-24.377-4.391-.025V489.483h4.391c2.952,0,3.671.62,3.671,8.456S460.616,506.3,457.664,506.3Zm-38.918,7.092a4.749,4.749,0,1,0-4.663-4.836v.074A4.712,4.712,0,0,0,418.746,513.388Zm7.441-28.642H411.3l7.441,17.285Zm0,0" transform="translate(-381.81 -450.177)"/><path class="c" d="M217.47,1792.966v7.96h-9.1v-7.96H204.7v17.9h3.7v-8.357h9.1v6.423a1.944,1.944,0,0,0,.223.992,1.467,1.467,0,0,0,.6.571,1.9,1.9,0,0,0,.744.273,3.631,3.631,0,0,0,.694.074h1.414v-17.9h-3.7Zm0,0" transform="translate(-189.935 -1665.081)"/><path class="c" d="M1109.28,1810.871v-17.9h-3.6l-7.218,13.242-7.342-13.267h-3.646v17.9h1.885v-13.887l7.739,13.887h.967l7.541-13.763v11.854a1.952,1.952,0,0,0,.248.992,1.711,1.711,0,0,0,.6.6,1.9,1.9,0,0,0,.744.273,3.913,3.913,0,0,0,.719.074Zm0,0" transform="translate(-1009.762 -1665.081)"/><path class="c" d="M1460.243,1806.028l-9.2-18.3h-1.092l-9.426,18.3h2.158l2.927-5.679h6.673l-.918-1.835h-4.812l3.1-6.026,6.077,12.1a2.7,2.7,0,0,0,.893,1.091,2.527,2.527,0,0,0,1.364.347Zm0,0" transform="translate(-1337.632 -1660.238)"/><path class="c" d="M1780.794,1793.281a1.789,1.789,0,0,0-.347.025,1.183,1.183,0,0,0-.372.149.859.859,0,0,0-.3.3.987.987,0,0,0-.124.5v11.531l-12.254-12.5h-2.357v17.9h2.158V1797.7l12.452,13.044a2.491,2.491,0,0,0,1.885.446h.248v-17.9Zm0,0" transform="translate(-1639.009 -1665.396)"/><path class="c" d="M494.517,1787.727h-1.066l-9.451,18.3h2.158l6.97-13.54,3.026,6.026h-4.837l-.943,1.81H497.1l2.133,4.265a2.694,2.694,0,0,0,.893,1.091,2.542,2.542,0,0,0,1.364.322h2.257Zm0,0" transform="translate(-449.321 -1660.238)"/><path class="c" d="M820.207,1809.749,814.775,1803H812.89v8.183h-3.671v-17.9h6.772a11.623,11.623,0,0,1,4.614.893,4.145,4.145,0,0,1,2.6,3.893c0,1.661-.967,3.6-4.465,4.588l7.045,8.531h-2.853a4.748,4.748,0,0,1-1.29-.223A4.936,4.936,0,0,1,820.207,1809.749Zm-7.317-14.9v6.77H814.6a6.431,6.431,0,0,0,2.8-.62,3.148,3.148,0,0,0-.149-5.828,4.391,4.391,0,0,0-1.885-.347h-2.48Zm0,0" transform="translate(-751.347 -1665.398)"/><path class="c" d="M.176,1927.168H.721v3.447a2.4,2.4,0,0,1,1.861-.843,2.322,2.322,0,0,1,2.282,2.554,2.7,2.7,0,0,1-2.877,2.877,4.6,4.6,0,0,1-1.811-.4Zm.571,7.266a3.453,3.453,0,0,0,1.265.248,2.232,2.232,0,0,0,2.307-2.155v-.151a1.887,1.887,0,0,0-1.786-2.108,2.3,2.3,0,0,0-1.786,1.016Zm0,0" transform="translate(0 -1789.735)"/><path class="c" d="M77.613,1972.981h-.546l1.786-3.695L76.7,1965.07h.571l1.86,3.67,1.786-3.67h.571Zm0,0" transform="translate(-71.063 -1824.935)"/></g></g></svg>