<svg xmlns="http://www.w3.org/2000/svg" width="472.38" height="442.43" viewBox="0 0 472.38 442.43"><defs><style>.a{fill:#f2c2c2;}.ah,.ai,.aj,.b,.i,.j,.l,.n,.w{fill:#fff;}.c{fill:#f7d9d9;}.d{fill:#fff7f7;}.e{fill:#e0e0e0;}.f{fill:#e2f4ff;}.g{fill:#263238;}.h,.m{fill:#f3333e;}.i{opacity:0.4;}.j,.q,.s{opacity:0.3;}.k{opacity:0.05;}.l{opacity:0.55;}.ai,.m,.p{opacity:0.2;}.n{opacity:0.7;}.o{fill:#37474f;}.ah,.r,.t{opacity:0.15;}.u{fill:#455a64;}.v{opacity:0.25;}.w{opacity:0.5;}.x{fill:#fafafa;}.y{fill:#f28f8f;}.z{fill:#ffd3d3;}.aa{fill:#00263e;}.ab{fill:#011827;}.ac{fill:#f0f0f0;}.ad{fill:#ebebeb;}.ae{fill:#ffa8a7;}.af{fill:#b16668;}.ag{fill:#fcb6b6;}.aj{opacity:0.1;}</style></defs><g transform="translate(-13.81 -36.43)"><g transform="translate(15.177 194.47)"><g transform="translate(409.177 0)"><path class="a" d="M424.66,264.41s-1.49-17,2.1-33.7,12.31-29.55,23.05-34.57,23.5,1.82,14.27,13.25-27.34,32.27-27.24,62.05Z" transform="translate(-424.353 -194.47)"/><path class="b" d="M430,264.22a.29.29,0,0,1-.13,0,.63.63,0,0,1-.61-.65c1-36.48,13.15-54.75,27.19-64a.63.63,0,0,1,.88.17.64.64,0,0,1-.18.88c-13.85,9.16-25.64,27.06-26.63,63a.63.63,0,0,1-.52.6Z" transform="translate(-424.353 -194.47)"/><path class="c" d="M478.83,232.06c-.21,2-1.84,3.56-3.4,4.87s-3.25,2.71-3.67,4.69c-.85,4,3.89,7.7,2.86,11.66a6.35,6.35,0,0,1-3.34,3.73c-1.25.68-2.61,1.12-3.93,1.68a18.2,18.2,0,0,1-2,.48,9.16,9.16,0,0,0-5.38,2.4c-2.19,2.38-1.91,6-2.69,9.16-.94,3.76-3.17,6-8.28,7.75l-16.25-9.38c-5.66-3.89-7.15-12.59-3.13-17.75,2.41-3.11,6.92-3.5,9.2-6.6,2-2.78.86-6.8,2.11-10s4.58-4.33,7.72-4.87,6.48.75,9.55-.37,5.91-2.93,9.08-3.73a10.65,10.65,0,0,1,9.17,1.54,5.64,5.64,0,0,1,2.38,4.74Z" transform="translate(-424.354 -194.47)"/><path class="b" d="M446.2,247.85a.52.52,0,0,1,.14-.19c8.23-11.66,21.12-17.19,25.47-18.17a.47.47,0,0,1,.55.35.46.46,0,0,1-.35.54c-4.13.93-16.1,6-24.16,16.74a25.19,25.19,0,0,1,20.07,1.74.46.46,0,0,1-.23.84.48.48,0,0,1-.26-.07,24.31,24.31,0,0,0-20.5-1.24,38.18,38.18,0,0,0-6.84,23.53.47.47,0,0,1-.41.47h0a.46.46,0,0,1-.47-.44,39.15,39.15,0,0,1,6.99-24.1Z" transform="translate(-424.353 -194.47)"/></g><g transform="translate(0 14.971)"><path class="a" d="M59.07,278.48c.17-12.13-.06-23.32-6.22-40.57-5.16-14.47-18.43-29.07-27.39-28.45-8.35.57-10.2,10.83-2.69,20S46.64,256,47.66,268.59L51,283.17Z" transform="translate(-15.177 -209.441)"/><path class="b" d="M55.37,275.41a.54.54,0,0,1-.41-.5c-1.31-28.23-17.07-51.74-30.22-59a.55.55,0,0,1-.21-.73.53.53,0,0,1,.73-.21c13.37,7.35,29.45,31.25,30.77,59.86a.54.54,0,0,1-.51.56Z" transform="translate(-15.177 -209.441)"/><path class="c" d="M46.89,285.51c-.51-4.25-3.53-12.65-10.68-19.48-7.91-7.57-18.72-12.19-20.55-17.38-2.2-6.24,3.31-9.58,12.43-7.62,11,2.34,23.32,15.07,25.36,40.7Z" transform="translate(-15.177 -209.441)"/><path class="b" d="M50.23,280.65a.54.54,0,0,1-.4-.43c-4.2-22.39-19.17-32.41-26.5-34.58a.54.54,0,1,1,.31-1c8.1,2.4,23,12.56,27.24,35.42a.53.53,0,0,1-.43.62.54.54,0,0,1-.22-.03Z" transform="translate(-15.177 -209.441)"/></g></g><g transform="translate(13.81 206.14)"><ellipse class="d" cx="236.19" cy="136.36" rx="236.19" ry="136.36"/></g><g transform="translate(72.433 335.746)"><path class="e" d="M427.21,393.61,396.73,376a.39.39,0,0,1,0-.74l43.62-25.17a1.42,1.42,0,0,1,1.3,0l30.47,17.6a.39.39,0,0,1,0,.74L428.5,393.61A1.4,1.4,0,0,1,427.21,393.61Z" transform="translate(-72.433 -335.746)"/><ellipse class="c" cx="59.99" cy="34.63" rx="59.99" ry="34.63" transform="translate(181.527 39.434)"/><path class="e" d="M377.77,390.17l-31.61-18.26c-.38-.21-.38-.56,0-.77l50.61-29.23a1.5,1.5,0,0,1,1.34,0l31.62,18.26a.41.41,0,0,1,0,.78l-50.61,29.22a1.46,1.46,0,0,1-1.35,0Z" transform="translate(-72.433 -335.746)"/><path class="c" d="M74.34,383.26,175,432.79a10.5,10.5,0,0,0,8.82-.3L240.19,400c2.39-1.38,2.48-3.76.19-5.31L155.23,337a8.72,8.72,0,0,0-8.47-.3L74.18,378.6C71.79,379.93,71.86,382,74.34,383.26Z" transform="translate(-72.433 -335.746)"/></g><g transform="translate(41.87 43.806)"><path class="f" d="M87.44,48l-7.76,4.48a9,9,0,0,0,.06-1V49.24c0-4-2.81-5.62-6.27-3.62a11.94,11.94,0,0,0-3.74,3.6c-.57-5-4.52-6.91-9.32-4.14C55.23,48.07,51,55.35,51,61.34v3.37a8.79,8.79,0,0,0,.8,3.89l-6.45,3.73a7.7,7.7,0,0,0-3.48,6c0,2.22,1.56,3.12,3.48,2L87.44,56.08a7.67,7.67,0,0,0,3.48-6C90.92,47.83,89.37,46.93,87.44,48Z" transform="translate(-41.87 -43.806)"/><path class="f" d="M122.76,63.08l-5,2.89a4.887,4.887,0,0,0,.05-.66V63.86c0-2.59-1.82-3.64-4.06-2.34a7.79,7.79,0,0,0-2.41,2.32c-.37-3.25-2.92-4.46-6-2.67a13.38,13.38,0,0,0-6.06,10.5v2.17a5.71,5.71,0,0,0,.51,2.52l-4.16,2.4a5,5,0,0,0-2.25,3.9c0,1.43,1,2,2.25,1.3L122.8,68.27a5,5,0,0,0,2.2-3.89C125,62.94,124,62.36,122.76,63.08Z" transform="translate(-41.87 -43.806)"/></g><g transform="translate(359.25 274.09)"><path class="g" d="M388.39,274.67a5.2,5.2,0,0,0-5.31.32c-4.35,2.51-7.89,9.77-7.89,16.18v15.11a.69.69,0,1,0,1.38,0V291.17c0-6,3.23-12.7,7.2-15a3.81,3.81,0,0,1,3.93-.32c1.64.95,2.58,3.35,2.58,6.6V297.5a.69.69,0,1,0,1.38,0V282.46C391.66,278.71,390.47,275.87,388.39,274.67Z" transform="translate(-359.25 -274.09)"/><path class="h" d="M422.16,361.34l-4.23-72.66-12.12-6.98-3.98,67.91Z" transform="translate(-359.25 -274.09)"/><path class="i" d="M422.16,361.34l-4.23-72.66-12.12-6.98-3.98,67.91Z" transform="translate(-359.25 -274.09)"/><path class="h" d="M363.23,306.29l-3.98,67.9,42.58-24.58,3.98-67.91Z" transform="translate(-359.25 -274.09)"/><path class="j" d="M363.23,306.29l-3.98,67.9,42.58-24.58,3.98-67.91Z" transform="translate(-359.25 -274.09)"/><path class="k" d="M363.23,306.29l-3.98,67.9,42.58-24.58,3.98-67.91Z" transform="translate(-359.25 -274.09)"/><path class="h" d="M363.23,306.29l12.12,6.97,4.23,72.66-20.33-11.73Z" transform="translate(-359.25 -274.09)"/><path class="l" d="M363.23,306.29l12.12,6.97,4.23,72.66-20.33-11.73Z" transform="translate(-359.25 -274.09)"/><path class="m" d="M379.58,385.92l-8.74-12.26-1.09-42.83-1.09,42.09-9.41,1.27Z" transform="translate(-359.25 -274.09)"/><path class="k" d="M379.58,385.92l-8.74-12.26-1.09-42.83-1.09,42.09-9.41,1.27Z" transform="translate(-359.25 -274.09)"/><path class="h" d="M417.92,288.68l-42.57,24.58,4.23,72.66,42.58-24.58ZM388,315c-.84.48-1.52.08-1.52-.89a3.35,3.35,0,0,1,1.52-2.63c.84-.49,1.53-.09,1.53.89A3.36,3.36,0,0,1,388,315Zm15.09-8.78c-.84.48-1.52.08-1.52-.89a3.36,3.36,0,0,1,1.53-2.63c.84-.49,1.52-.09,1.52.89a3.36,3.36,0,0,1-1.51,2.59Z" transform="translate(-359.25 -274.09)"/><path class="n" d="M417.92,288.68l-42.57,24.58,4.23,72.66,42.58-24.58ZM388,315c-.84.48-1.52.08-1.52-.89a3.35,3.35,0,0,1,1.52-2.63c.84-.49,1.53-.09,1.53.89A3.36,3.36,0,0,1,388,315Zm15.09-8.78c-.84.48-1.52.08-1.52-.89a3.36,3.36,0,0,1,1.53-2.63c.84-.49,1.52-.09,1.52.89a3.36,3.36,0,0,1-1.51,2.59Z" transform="translate(-359.25 -274.09)"/><path class="o" d="M400.53,281.58a5.18,5.18,0,0,0-5.3.32c-4.35,2.51-7.89,9.77-7.89,16.18V313.2a.69.69,0,0,0,1.37,0V298.08c0-6,3.23-12.7,7.2-15a3.83,3.83,0,0,1,3.94-.32c1.64,1,2.58,3.35,2.58,6.6v15.05a.69.69,0,0,0,1.37,0V289.37C403.8,285.62,402.61,282.78,400.53,281.58Z" transform="translate(-359.25 -274.09)"/><g transform="translate(51.81 18.399)"><path class="g" d="M436.49,293a4.5,4.5,0,0,0-4.63.28c-3.8,2.19-6.89,8.52-6.89,14.12v13.19a.6.6,0,0,0,1.2,0V307.44c0-5.22,2.82-11.08,6.29-13.09a3.34,3.34,0,0,1,3.43-.27c1.43.82,2.25,2.92,2.25,5.75V313a.6.6,0,1,0,1.2,0V299.83C439.34,296.56,438.3,294.09,436.49,293Z" transform="translate(-411.06 -292.489)"/><path class="h" d="M465.96,368.68l-3.69-63.42-10.58-6.08-3.47,59.26Z" transform="translate(-411.06 -292.489)"/><path class="p" d="M465.96,368.68l-3.69-63.42-10.58-6.08-3.47,59.26Z" transform="translate(-411.06 -292.489)"/><path class="h" d="M414.53,320.63l-3.47,59.26,37.16-21.45,3.47-59.26Z" transform="translate(-411.06 -292.489)"/><path class="q" d="M414.53,320.63l-3.47,59.26,37.16-21.45,3.47-59.26Z" transform="translate(-411.06 -292.489)"/><path class="h" d="M414.53,320.63l10.58,6.09,3.69,63.41-17.74-10.24Z" transform="translate(-411.06 -292.489)"/><path class="r" d="M414.53,320.63l10.58,6.09,3.69,63.41-17.74-10.24Z" transform="translate(-411.06 -292.489)"/><path class="r" d="M428.8,390.13l-7.62-10.7-.96-37.38-.95,36.73-8.21,1.11Z" transform="translate(-411.06 -292.489)"/><path class="h" d="M462.27,305.26l-37.16,21.46,3.69,63.41L466,368.68Zm-26.1,22.94c-.73.42-1.33.07-1.33-.78a3,3,0,0,1,1.33-2.3c.73-.42,1.33-.07,1.33.78a2.91,2.91,0,0,1-1.33,2.3Zm13.17-7.66c-.73.42-1.33.07-1.33-.78a3,3,0,0,1,1.33-2.3c.73-.42,1.33-.07,1.33.78a2.94,2.94,0,0,1-1.33,2.3Z" transform="translate(-411.06 -292.489)"/><path class="o" d="M447.09,299.07a4.52,4.52,0,0,0-4.63.28c-3.8,2.19-6.89,8.52-6.89,14.12v13.19a.6.6,0,0,0,1.2,0V313.47c0-5.21,2.82-11.08,6.29-13.08a3.32,3.32,0,0,1,3.43-.28c1.43.83,2.25,2.92,2.25,5.76V319a.6.6,0,0,0,1.2,0V305.87C449.94,302.59,448.9,300.12,447.09,299.07Z" transform="translate(-411.06 -292.489)"/></g></g><g transform="translate(97.934 36.43)"><path class="g" d="M99.22,158.33H99.1a1.29,1.29,0,0,1-1.16-1.41c1.51-15.43,12.22-24.65,18.46-28.77,9.41-6.2,20.85-9,27.83-6.77a1.29,1.29,0,1,1-.78,2.45c-6.18-2-17,.76-25.63,6.48-5.86,3.86-15.91,12.49-17.31,26.86A1.3,1.3,0,0,1,99.22,158.33Z" transform="translate(-97.934 -36.43)"/><g transform="translate(35.426)"><path class="h" d="M237.26,36.43,154.45,84.24l-21.09,42.62,21.09,18.26,2.38,1.37,82.81-47.81V37.8ZM151.56,119a11.16,11.16,0,0,1,5.06-8.77,4.62,4.62,0,0,1,2.18-.67,4.63,4.63,0,0,1,.5,2.21,11.22,11.22,0,0,1-5.06,8.78,4.73,4.73,0,0,1-2.2.67,4.56,4.56,0,0,1-.48-2.22Z" transform="translate(-133.36 -36.43)"/><path class="h" d="M156.83,85.62l-21.09,42.61,21.09,18.26,82.81-47.81V37.8Zm-.21,36.28c-2.81,1.62-5.06.31-5.06-2.92a11.16,11.16,0,0,1,5.06-8.77c2.79-1.61,5.06-.3,5.06,2.92a11.2,11.2,0,0,1-5.06,8.77Z" transform="translate(-133.36 -36.43)"/><g class="s" transform="translate(18.68 73.128)"><path d="M161.68,113.13a11.2,11.2,0,0,1-5.06,8.77c-2,1.17-3.77.81-4.58-.7h0a4.64,4.64,0,0,0,2.2-.67,11.22,11.22,0,0,0,5.06-8.78,4.55,4.55,0,0,0-.5-2.19,2.63,2.63,0,0,1,1.91.71,3.92,3.92,0,0,1,.97,2.86Z" transform="translate(-152.04 -109.558)"/></g><g class="s" transform="translate(21.09)"><path class="b" d="M239.64,37.8l-2.38-1.37L154.45,84.24l2.37,1.38Z" transform="translate(-154.45 -36.43)"/></g><g class="t" transform="translate(0 47.81)"><path d="M156.82,85.62l-21.08,42.62-2.38-1.38,21.09-42.62Z" transform="translate(-133.36 -84.24)"/></g><g class="s" transform="translate(0 90.43)"><path d="M135.74,128.24l21.08,18.25-2.37-1.37-21.09-18.26Z" transform="translate(-133.36 -126.86)"/></g><path class="o" d="M145.33,136.78a15.541,15.541,0,0,1-3.66-.46,1.3,1.3,0,0,1,.61-2.52,10.54,10.54,0,0,0,12.63-6c1.34-3.14,1.4-7.77-2.83-10.46a1.3,1.3,0,1,1,1.4-2.19c5.24,3.34,5.69,9.27,3.81,13.67A12.94,12.94,0,0,1,145.33,136.78Z" transform="translate(-133.36 -36.43)"/></g></g><g transform="translate(45.813 147.423)"><path class="u" d="M167.41,407.35a13.91,13.91,0,0,0-6.92-10.56c-1.88-1-3.52-.9-4.63-.07h0l-4.12,2.67,9.91,14.85,4.08-2.66h0C166.87,410.86,167.53,409.4,167.41,407.35Z" transform="translate(-45.813 -147.423)"/><path class="o" d="M156.22,399.58a13.91,13.91,0,0,1,6.92,10.56c.23,4-2.5,5.81-6.09,4a13.93,13.93,0,0,1-6.92-10.56C149.9,399.56,152.63,397.77,156.22,399.58Z" transform="translate(-45.813 -147.423)"/><path class="g" d="M154.43,405.75c-.09-1.57.83-2.35,2-1.74a5.14,5.14,0,0,1,2.37,4c.09,1.57-.83,2.35-2,1.73a5.1,5.1,0,0,1-2.37-3.99Z" transform="translate(-45.813 -147.423)"/><path class="h" d="M163,393.25s.69,6.4-2.6,9.14c-.62.51-1.29.88-1.67,1.24-.83.78-.18,2.09.92,2.6,1.59.74,9.6-1.28,12.78-8.32Z" transform="translate(-45.813 -147.423)"/><path class="j" d="M163,393.25s.69,6.4-2.6,9.14c-.62.51-1.29.88-1.67,1.24-.83.78-.18,2.09.92,2.6,1.59.74,9.6-1.28,12.78-8.32Z" transform="translate(-45.813 -147.423)"/><path class="h" d="M160.07,394.63s.41,7.08-2.88,9.82c-.62.51-1.29.89-1.67,1.25-.83.77-.18,2.08.91,2.59,1.6.74,9.89-2,13.07-9Z" transform="translate(-45.813 -147.423)"/><path class="n" d="M160.07,394.63s.41,7.08-2.88,9.82c-.62.51-1.29.89-1.67,1.25-.83.77-.18,2.08.91,2.59,1.6.74,9.89-2,13.07-9Z" transform="translate(-45.813 -147.423)"/><path class="g" d="M156.6,406.16a1.36,1.36,0,0,1,.66,1c0,.39-.24.56-.59.39a1.36,1.36,0,0,1-.66-1C156,406.16,156.25,406,156.6,406.16Z" transform="translate(-45.813 -147.423)"/><path class="u" d="M114.12,381.13a13.91,13.91,0,0,0-6.92-10.56c-1.88-.95-3.52-.9-4.63-.07h0l-4.12,2.67L108.36,388l4.08-2.66h0C113.58,384.64,114.24,383.18,114.12,381.13Z" transform="translate(-45.813 -147.423)"/><path class="o" d="M102.93,373.36a13.93,13.93,0,0,1,6.92,10.56c.23,4-2.5,5.81-6.09,4a13.91,13.91,0,0,1-6.92-10.56C96.61,373.34,99.34,371.55,102.93,373.36Z" transform="translate(-45.813 -147.423)"/><path class="g" d="M101.14,379.53c-.09-1.57.83-2.35,2-1.73a5.1,5.1,0,0,1,2.37,3.95c.09,1.57-.83,2.35-2,1.74a5.14,5.14,0,0,1-2.37-3.96Z" transform="translate(-45.813 -147.423)"/><path class="h" d="M109.66,367s.69,6.4-2.6,9.14c-.62.52-1.28.89-1.67,1.25-.83.77-.18,2.08.92,2.59,1.59.74,9.6-1.28,12.78-8.32Z" transform="translate(-45.813 -147.423)"/><path class="j" d="M109.66,367s.69,6.4-2.6,9.14c-.62.52-1.28.89-1.67,1.25-.83.77-.18,2.08.92,2.59,1.59.74,9.6-1.28,12.78-8.32Z" transform="translate(-45.813 -147.423)"/><path class="h" d="M106.78,368.41s.41,7.08-2.88,9.82c-.62.52-1.29.89-1.67,1.25-.83.77-.18,2.08.92,2.59,1.59.74,9.88-2,13.06-9Z" transform="translate(-45.813 -147.423)"/><path class="n" d="M106.78,368.41s.41,7.08-2.88,9.82c-.62.52-1.29.89-1.67,1.25-.83.77-.18,2.08.92,2.59,1.59.74,9.88-2,13.06-9Z" transform="translate(-45.813 -147.423)"/><path class="g" d="M103.31,379.94a1.36,1.36,0,0,1,.66,1c0,.38-.24.55-.59.38a1.36,1.36,0,0,1-.66-1A.376.376,0,0,1,103.31,379.94Z" transform="translate(-45.813 -147.423)"/><path class="u" d="M173.54,346.83a14,14,0,0,0-6.92-10.56c-1.89-.95-3.53-.9-4.64-.07h0l-4.11,2.67,9.91,14.85,4.07-2.66h0C173,350.34,173.65,348.88,173.54,346.83Z" transform="translate(-45.813 -147.423)"/><path class="o" d="M162.35,339.06a14,14,0,0,1,6.92,10.56c.22,4-2.51,5.81-6.1,4a14,14,0,0,1-6.92-10.57C156,339,158.75,337.25,162.35,339.06Z" transform="translate(-45.813 -147.423)"/><path class="g" d="M160.56,345.23c-.09-1.57.82-2.35,2-1.74a5.13,5.13,0,0,1,2.36,4c.09,1.57-.82,2.35-2,1.73A5.07,5.07,0,0,1,160.56,345.23Z" transform="translate(-45.813 -147.423)"/><path class="h" d="M169.87,331.8s-.11,7.33-3.39,10.07c-.62.51-1.29.88-1.68,1.24-.83.78-.17,2.09.92,2.6,1.59.74,9.48-1,12.66-8.1Z" transform="translate(-45.813 -147.423)"/><path class="j" d="M169.87,331.8s-.11,7.33-3.39,10.07c-.62.51-1.29.88-1.68,1.24-.83.78-.17,2.09.92,2.6,1.59.74,9.48-1,12.66-8.1Z" transform="translate(-45.813 -147.423)"/><path class="h" d="M167,332.86s-.37,8.33-3.65,11.07c-.62.51-1.29.88-1.68,1.24-.83.78-.18,2.09.92,2.6,1.59.74,9.88-2,13.06-9Z" transform="translate(-45.813 -147.423)"/><path class="n" d="M167,332.86s-.37,8.33-3.65,11.07c-.62.51-1.29.88-1.68,1.24-.83.78-.18,2.09.92,2.6,1.59.74,9.88-2,13.06-9Z" transform="translate(-45.813 -147.423)"/><path class="g" d="M162.72,345.64a1.34,1.34,0,0,1,.66,1c0,.39-.24.56-.58.39a1.37,1.37,0,0,1-.67-1C162.11,345.64,162.37,345.47,162.72,345.64Z" transform="translate(-45.813 -147.423)"/><path class="u" d="M219.44,378.11a14,14,0,0,0-6.92-10.56c-1.89-.95-3.53-.9-4.64-.06h0l-4.11,2.66L213.68,385l4.07-2.66h0C218.89,381.63,219.55,380.17,219.44,378.11Z" transform="translate(-45.813 -147.423)"/><path class="o" d="M208.25,370.34a14,14,0,0,1,6.92,10.57c.23,4-2.5,5.8-6.1,4a14,14,0,0,1-6.92-10.56C201.93,370.32,204.66,368.53,208.25,370.34Z" transform="translate(-45.813 -147.423)"/><path class="g" d="M206.46,376.51c-.09-1.57.82-2.35,2-1.73a5.07,5.07,0,0,1,2.36,4c.09,1.58-.82,2.35-2,1.74a5.13,5.13,0,0,1-2.36-4.01Z" transform="translate(-45.813 -147.423)"/><path class="h" d="M215.78,363.09s-.12,7.32-3.4,10.06c-.62.52-1.29.89-1.67,1.25-.84.78-.18,2.08.91,2.59,1.59.74,9.48-1.05,12.66-8.09Z" transform="translate(-45.813 -147.423)"/><path class="j" d="M215.78,363.09s-.12,7.32-3.4,10.06c-.62.52-1.29.89-1.67,1.25-.84.78-.18,2.08.91,2.59,1.59.74,9.48-1.05,12.66-8.09Z" transform="translate(-45.813 -147.423)"/><path class="h" d="M212.87,364.15s-.37,8.32-3.65,11.06c-.62.52-1.29.89-1.67,1.25-.84.78-.18,2.08.91,2.59,1.59.74,9.88-2,13.06-9Z" transform="translate(-45.813 -147.423)"/><path class="n" d="M212.87,364.15s-.37,8.32-3.65,11.06c-.62.52-1.29.89-1.67,1.25-.84.78-.18,2.08.91,2.59,1.59.74,9.88-2,13.06-9Z" transform="translate(-45.813 -147.423)"/><path class="g" d="M208.62,376.92a1.37,1.37,0,0,1,.67,1c0,.38-.24.56-.59.38a1.34,1.34,0,0,1-.66-1C208,376.92,208.28,376.75,208.62,376.92Z" transform="translate(-45.813 -147.423)"/><path class="u" d="M237.55,378.23a1.454,1.454,0,0,0-.07-.19h0c0-.06-.1-.11-.15-.17a1.7,1.7,0,0,0-.19-.19h0l-85.32-58.15-.17-.07a1.22,1.22,0,0,0-.24-.1,1.1,1.1,0,0,0-.25,0,1.785,1.785,0,0,0-.23,0,.891.891,0,0,0-.26.09.581.581,0,0,0-.17.06l-63.91,36.8a1.29,1.29,0,0,0,.08,2.2L187.1,407.93l.16.06h.09a1.54,1.54,0,0,0,.3,0h0a1.261,1.261,0,0,0,.35.01h.11l.19-.08L237,379.75h0a1,1,0,0,0,.29-.25l.06-.07h0a.169.169,0,0,1,.07-.16,1.28,1.28,0,0,0,.11-.27,1.479,1.479,0,0,0,0-.21.761.761,0,0,0,0-.26,2.173,2.173,0,0,0,.02-.3Zm-50,27.16L89.87,357.3,151,322l83,56.59Z" transform="translate(-45.813 -147.423)"/><path class="u" d="M87.12,358.26a1.25,1.25,0,0,1-1.22-.95l-9.14-36.93a1.251,1.251,0,1,1,2.43-.6l9.14,36.94a1.25,1.25,0,0,1-.91,1.51Z" transform="translate(-45.813 -147.423)"/><path class="u" d="M151.09,321.73a1.26,1.26,0,0,1-1.22-1l-8.12-37.93a1.263,1.263,0,1,1,2.48-.48l8.13,37.93a1.26,1.26,0,0,1-1.23,1.51Z" transform="translate(-45.813 -147.423)"/><path class="h" d="M77.98,320.08l109.67,53.94,48.75-28.14-93.43-63.33Z" transform="translate(-45.813 -147.423)"/><path class="j" d="M77.98,320.08l109.67,53.94,48.75-28.14-93.43-63.33Z" transform="translate(-45.813 -147.423)"/><path class="h" d="M220.8,354.19l-18-10.94,15.51-9a1.25,1.25,0,0,0-1.25-2.16l-16.69,9.63-17.34-10.55,16.59-9.58a1.252,1.252,0,0,0-1.25-2.17L180.6,329.68l-17.34-10.55L181,309a1.25,1.25,0,0,0-1.25-2.16l-18.86,10.89-17.34-10.56,18.76-10.83a1.252,1.252,0,0,0-1.25-2.17l-19.94,11.52L122,294a1.255,1.255,0,1,0-1.31,2.14l18,10.94-18.14,10.48-20.24-11.08a1.253,1.253,0,1,0-1.2,2.2L117.94,319,99.29,329.78a1.25,1.25,0,0,0,.62,2.34,1.32,1.32,0,0,0,.63-.17l20-11.53,18.28,10-17.57,10.14a1.25,1.25,0,0,0,.63,2.33,1.27,1.27,0,0,0,.62-.16l18.89-10.91,18.29,10-16.49,9.52a1.25,1.25,0,0,0,.62,2.33,1.22,1.22,0,0,0,.63-.17l17.8-10.28,18.29,10-15.41,8.9a1.25,1.25,0,0,0,.63,2.33,1.16,1.16,0,0,0,.62-.17l16.72-9.65,20.24,11.07a1.2,1.2,0,0,0,.6.16,1.27,1.27,0,0,0,1.1-.65,1.25,1.25,0,0,0-.5-1.7l-18.9-10.35,14.76-8.52,19.14,11.65a1.2,1.2,0,0,0,.65.19,1.224,1.224,0,0,0,.62-2.29ZM141.33,329,123,319l18-10.4,17.33,10.56Zm20.85,11.42-18.28-10,16.93-9.78,17.33,10.56ZM183,351.79l-18.28-10,15.84-9.15L197.9,343.2Z" transform="translate(-45.813 -147.423)"/><path class="n" d="M220.8,354.19l-18-10.94,15.51-9a1.25,1.25,0,0,0-1.25-2.16l-16.69,9.63-17.34-10.55,16.59-9.58a1.252,1.252,0,0,0-1.25-2.17L180.6,329.68l-17.34-10.55L181,309a1.25,1.25,0,0,0-1.25-2.16l-18.86,10.89-17.34-10.56,18.76-10.83a1.252,1.252,0,0,0-1.25-2.17l-19.94,11.52L122,294a1.255,1.255,0,1,0-1.31,2.14l18,10.94-18.14,10.48-20.24-11.08a1.253,1.253,0,1,0-1.2,2.2L117.94,319,99.29,329.78a1.25,1.25,0,0,0,.62,2.34,1.32,1.32,0,0,0,.63-.17l20-11.53,18.28,10-17.57,10.14a1.25,1.25,0,0,0,.63,2.33,1.27,1.27,0,0,0,.62-.16l18.89-10.91,18.29,10-16.49,9.52a1.25,1.25,0,0,0,.62,2.33,1.22,1.22,0,0,0,.63-.17l17.8-10.28,18.29,10-15.41,8.9a1.25,1.25,0,0,0,.63,2.33,1.16,1.16,0,0,0,.62-.17l16.72-9.65,20.24,11.07a1.2,1.2,0,0,0,.6.16,1.27,1.27,0,0,0,1.1-.65,1.25,1.25,0,0,0-.5-1.7l-18.9-10.35,14.76-8.52,19.14,11.65a1.2,1.2,0,0,0,.65.19,1.224,1.224,0,0,0,.62-2.29ZM141.33,329,123,319l18-10.4,17.33,10.56Zm20.85,11.42-18.28-10,16.93-9.78,17.33,10.56ZM183,351.79l-18.28-10,15.84-9.15L197.9,343.2Z" transform="translate(-45.813 -147.423)"/><path class="h" d="M144.05,281.93a1.25,1.25,0,0,0-1.71-.46l-20.22,11.68-4.79-19.36,20.85-12a1.252,1.252,0,1,0-1.25-2.17L116.7,271.26l-4.79-19.36,20.85-12a1.252,1.252,0,1,0-1.25-2.17l-20.22,11.68L106.5,230l20.85-12a1.252,1.252,0,0,0-1.25-2.17l-65,37.53a1.25,1.25,0,0,0,.62,2.33,1.29,1.29,0,0,0,.63-.17l20.22-11.68,4.79,19.37-20.85,12a1.25,1.25,0,0,0,.63,2.33,1.19,1.19,0,0,0,.62-.17L88,265.7l4.79,19.37-20.85,12a1.249,1.249,0,0,0,.62,2.33,1.32,1.32,0,0,0,.63-.17l20.22-11.68L98.2,307,77.35,319a1.26,1.26,0,0,0-.46,1.71,1.24,1.24,0,0,0,1.71.46l65-37.52a1.25,1.25,0,0,0,.45-1.72ZM84.84,242.51l19.4-11.2L109,250.67,89.6,261.88Zm5.41,21.89,19.41-11.2,4.79,19.36L95,283.77Zm10.21,41.26-4.79-19.37,19.41-11.2,4.79,19.36Z" transform="translate(-45.813 -147.423)"/><path class="h" d="M237.62,346a.19.19,0,0,0,0-.07L241.7,292a.808.808,0,0,0,0-.16,1.172,1.172,0,0,0,0-.26,1,1,0,0,0-.09-.22.821.821,0,0,0-.12-.2.771.771,0,0,0-.18-.18,1.307,1.307,0,0,0-.11-.12L127.81,216.07,126,208.59a24.81,24.81,0,0,0-10.19-13.54l-2.08-1.2a7,7,0,0,0-6.44,0l-9.69,5.6a1.25,1.25,0,1,0,1.25,2.16L108.5,196a4.49,4.49,0,0,1,4,0l2.07,1.2a22.25,22.25,0,0,1,9,12l1.87,7.57a1.25,1.25,0,0,0,.17.68l16.19,65.41a1.279,1.279,0,0,0,.14.34v.05h0a.548.548,0,0,1,.08.1,1.453,1.453,0,0,0,.22.21h0l93.42,63.32h.09l.12.06a1.352,1.352,0,0,0,.33.09h.17a1.469,1.469,0,0,0,.41-.07h.09a1.361,1.361,0,0,0,.34-.21h0a.928.928,0,0,0,.16-.18.411.411,0,0,0,0-.08.72.72,0,0,0,.1-.24A.791.791,0,0,0,237.62,346Zm-61.09-76.2,18.58,12.36,1.14,16.38L178.8,286.83ZM176,285l-17.31-11.61-3.4-17.66L173.76,268Zm21.71-1.06,18.72,12.45V312.1l-17.58-11.79Zm-.22-3.15-1.13-16.41,20.07,13.25v15.75ZM194.9,279l-18.81-12.5-2.27-17,19.94,13.16Zm-21.58-14.35-18.66-12.41-3.4-17.68,19.79,13.06ZM151.74,250.3,133.23,238l-4.53-18.31,19.64,13Zm.66,3.44,3.4,17.65-17.15-11.5-4.53-18.3Zm4.06,21.11,3.4,17.63-15.79-10.7-4.53-18.28Zm2.93,2,17.08,11.46,2.26,17L162.78,294.5Zm19.85,13.32,17.23,11.56,1.13,16.37-16.09-10.91Zm19.86,13.32,17.36,11.66v15.73l-16.23-11Zm19.9,13.3,17.49,11.74-1.14,15.1L219,332.55Zm0-3V298l18.84,12.53-1.13,15.11ZM219,295V279.25l20.2,13.32L238,307.69Z" transform="translate(-45.813 -147.423)"/><path class="r" d="M237.62,346a.19.19,0,0,0,0-.07L241.7,292a.808.808,0,0,0,0-.16,1.172,1.172,0,0,0,0-.26,1,1,0,0,0-.09-.22.821.821,0,0,0-.12-.2.771.771,0,0,0-.18-.18,1.307,1.307,0,0,0-.11-.12L127.81,216.07,126,208.59a24.81,24.81,0,0,0-10.19-13.54l-2.08-1.2a7,7,0,0,0-6.44,0l-9.69,5.6a1.25,1.25,0,1,0,1.25,2.16L108.5,196a4.49,4.49,0,0,1,4,0l2.07,1.2a22.25,22.25,0,0,1,9,12l1.87,7.57a1.25,1.25,0,0,0,.17.68l16.19,65.41a1.279,1.279,0,0,0,.14.34v.05h0a.548.548,0,0,1,.08.1,1.453,1.453,0,0,0,.22.21h0l93.42,63.32h.09l.12.06a1.352,1.352,0,0,0,.33.09h.17a1.469,1.469,0,0,0,.41-.07h.09a1.361,1.361,0,0,0,.34-.21h0a.928.928,0,0,0,.16-.18.411.411,0,0,0,0-.08.72.72,0,0,0,.1-.24A.791.791,0,0,0,237.62,346Zm-61.09-76.2,18.58,12.36,1.14,16.38L178.8,286.83ZM176,285l-17.31-11.61-3.4-17.66L173.76,268Zm21.71-1.06,18.72,12.45V312.1l-17.58-11.79Zm-.22-3.15-1.13-16.41,20.07,13.25v15.75ZM194.9,279l-18.81-12.5-2.27-17,19.94,13.16Zm-21.58-14.35-18.66-12.41-3.4-17.68,19.79,13.06ZM151.74,250.3,133.23,238l-4.53-18.31,19.64,13Zm.66,3.44,3.4,17.65-17.15-11.5-4.53-18.3Zm4.06,21.11,3.4,17.63-15.79-10.7-4.53-18.28Zm2.93,2,17.08,11.46,2.26,17L162.78,294.5Zm19.85,13.32,17.23,11.56,1.13,16.37-16.09-10.91Zm19.86,13.32,17.36,11.66v15.73l-16.23-11Zm19.9,13.3,17.49,11.74-1.14,15.1L219,332.55Zm0-3V298l18.84,12.53-1.13,15.11ZM219,295V279.25l20.2,13.32L238,307.69Z" transform="translate(-45.813 -147.423)"/><path class="h" d="M59.7,227.44l-4.07-7L98.3,195.81h0a1.91,1.91,0,0,1,2.19.08,6.35,6.35,0,0,1,2.87,5,1.91,1.91,0,0,1-1,1.94h0Z" transform="translate(-45.813 -147.423)"/><path class="v" d="M59.7,227.44l-4.07-7L98.3,195.81h0a1.91,1.91,0,0,1,2.19.08,6.35,6.35,0,0,1,2.87,5,1.91,1.91,0,0,1-1,1.94h0Z" transform="translate(-45.813 -147.423)"/><path class="h" d="M55.63,220.4c1.07-.61,2.85.46,4,2.41s1.17,4,.1,4.63-2.85-.46-4-2.4S54.57,221,55.63,220.4Z" transform="translate(-45.813 -147.423)"/><g transform="translate(33.247)"><path class="g" d="M121.1,150.42c-6.11-3.52-11.1-3.74-15-1.49-2.84,1.63-13.6,7.87-16.25,9.39-7.25,4.16-10.78,16.8-10.78,32.66,0,24.42,8.12,49.76,25.79,60,6.38,3.68,11.51,4,15.45,1.72,2.84-1.63,13.64-7.88,16.29-9.41,7-4.06,10.3-16.25,10.3-31.87C146.89,187,138.76,160.62,121.1,150.42Z" transform="translate(-79.06 -147.423)"/><path class="o" d="M139.57,173c-4.22-9.79-10.33-17.92-18.47-22.62-6.11-3.52-11.1-3.74-15-1.49-2.84,1.63-13.6,7.87-16.25,9.39a15.41,15.41,0,0,0-5.43,5.77l35.33,20.4Z" transform="translate(-79.06 -147.423)"/><path class="u" d="M104.85,250.94c-17.67-10.2-25.79-35.54-25.79-60s8.38-41.23,25.79-31.18c17.67,10.2,25.79,36.54,25.79,61S122.65,261.21,104.85,250.94Z" transform="translate(-79.06 -147.423)"/><path class="g" d="M104.85,183.63c-5.42-3.13-8.64.77-8.64,17.25,0,15.48,3.35,23,8.64,26s8.64-.17,8.64-16C113.49,194.77,110.52,186.91,104.85,183.63Z" transform="translate(-79.06 -147.423)"/><path class="o" d="M185.38,181.58l-16.63-9.6-16.25,9.38L114.33,324.12l16.76,9.68,16.25-9.38Z" transform="translate(-79.06 -147.423)"/><path class="u" d="M169.14,190.97,131.09,333.8l-16.76-9.68L152.5,181.36Z" transform="translate(-79.06 -147.423)"/><path class="g" d="M185.38,181.58l-16.24,9.39L131.09,333.8l16.25-9.38Z" transform="translate(-79.06 -147.423)"/><path class="g" d="M196.86,254.56c-6.1-3.52-11.09-3.74-15-1.49-2.84,1.63-13.6,7.87-16.25,9.39-7.25,4.16-10.78,16.8-10.78,32.66,0,24.42,8.12,49.76,25.79,60,6.38,3.68,11.5,4,15.45,1.72l16.29-9.41c7-4.06,10.3-16.25,10.3-31.87C222.66,291.1,214.53,264.76,196.86,254.56Z" transform="translate(-79.06 -147.423)"/><path class="o" d="M215.34,277.18c-4.23-9.79-10.34-17.92-18.48-22.62-6.1-3.52-11.09-3.74-15-1.49-2.84,1.63-13.6,7.87-16.25,9.39a15.431,15.431,0,0,0-5.44,5.77l35.34,20.4Z" transform="translate(-79.06 -147.423)"/><path class="u" d="M180.62,355.08c-17.67-10.2-25.79-35.54-25.79-60s8.38-41.23,25.79-31.18c17.66,10.21,25.79,36.54,25.79,61S198.41,365.35,180.62,355.08Z" transform="translate(-79.06 -147.423)"/><path class="g" d="M180.62,287.77c-5.42-3.13-8.64.77-8.64,17.25,0,15.49,3.35,23,8.64,26s8.64-.17,8.64-16.05C189.26,298.91,186.29,291.05,180.62,287.77Z" transform="translate(-79.06 -147.423)"/></g><path class="h" d="M193,320.17a1.35,1.35,0,0,0-.06-.49,1.179,1.179,0,0,0-.11-.19.8.8,0,0,0-.13-.22,1.15,1.15,0,0,0-.38-.31h0l-.61-.3h0l-57.62-29.12-71.24-36L61,246.11a24.8,24.8,0,0,0-10.18-13.53l-2.08-1.2c-.36-.21-.44-.38-.45-.42s.09-.21.45-.41l9.08-5.25h0c.33-.19.32-.83,0-1.43s-.89-.93-1.22-.74l-9.09,5.25a2.81,2.81,0,0,0,0,5.16l2.08,1.21a22.27,22.27,0,0,1,9,12l2,7.88v.1h0L76,317.34l.75,3h0v.05a.46.46,0,0,0,.07.16,1,1,0,0,0,.12.23.1.1,0,0,0,0,.05.757.757,0,0,0,.09.09,1.08,1.08,0,0,0,.24.18.28.28,0,0,0,.08.06L187.1,375.14a1.091,1.091,0,0,0,.42.11h.25a1.654,1.654,0,0,0,.22,0h.2l.17-.12.08-.08a1,1,0,0,0,.25-.33h0a1.36,1.36,0,0,0,.12-.45h0l1.35-18h0l1.36-18h0l1.35-18Zm-28.49-12.46v16l-22.2-11.12-1.15-16.64ZM141,330.81,120.29,320.5,118,303.18l21.9,11Zm-2.51-36.2,1.16,16.64-22.1-11.07-2.31-17.32Zm-20.93,24.55L97,308.91l-3.47-18,21.79,10.92Zm-5-37.67,2.31,17.34-22-11-3.47-18Zm-49-24.73,23,11.62,3.47,18-21.85-11ZM69,278.64l21.66,10.85,3.47,18L73.64,297.33Zm10,40.57-4.62-18.7L94.74,310.6l3.47,18ZM101,330l-3.47-18L118,322.15l2.31,17.35Zm22,10.81-2.31-17.34,20.54,10.21,1.15,16.66Zm19.47-25.38,22,11v16L143.63,332.1ZM145,351.64,143.83,335l20.64,10.25v16Zm41.56,20.44L167,362.45v-16l20.73,10.3Zm1.36-18L167,343.69v-16l22.08,11.07Zm1.35-18L167,324.93V309l23.43,11.84Z" transform="translate(-45.813 -147.423)"/><path class="w" d="M193,320.17a1.35,1.35,0,0,0-.06-.49,1.179,1.179,0,0,0-.11-.19.8.8,0,0,0-.13-.22,1.15,1.15,0,0,0-.38-.31h0l-.61-.3h0l-57.62-29.12-71.24-36L61,246.11a24.8,24.8,0,0,0-10.18-13.53l-2.08-1.2c-.36-.21-.44-.38-.45-.42s.09-.21.45-.41l9.08-5.25h0c.33-.19.32-.83,0-1.43s-.89-.93-1.22-.74l-9.09,5.25a2.81,2.81,0,0,0,0,5.16l2.08,1.21a22.27,22.27,0,0,1,9,12l2,7.88v.1h0L76,317.34l.75,3h0v.05a.46.46,0,0,0,.07.16,1,1,0,0,0,.12.23.1.1,0,0,0,0,.05.757.757,0,0,0,.09.09,1.08,1.08,0,0,0,.24.18.28.28,0,0,0,.08.06L187.1,375.14a1.091,1.091,0,0,0,.42.11h.25a1.654,1.654,0,0,0,.22,0h.2l.17-.12.08-.08a1,1,0,0,0,.25-.33h0a1.36,1.36,0,0,0,.12-.45h0l1.35-18h0l1.36-18h0l1.35-18Zm-28.49-12.46v16l-22.2-11.12-1.15-16.64ZM141,330.81,120.29,320.5,118,303.18l21.9,11Zm-2.51-36.2,1.16,16.64-22.1-11.07-2.31-17.32Zm-20.93,24.55L97,308.91l-3.47-18,21.79,10.92Zm-5-37.67,2.31,17.34-22-11-3.47-18Zm-49-24.73,23,11.62,3.47,18-21.85-11ZM69,278.64l21.66,10.85,3.47,18L73.64,297.33Zm10,40.57-4.62-18.7L94.74,310.6l3.47,18ZM101,330l-3.47-18L118,322.15l2.31,17.35Zm22,10.81-2.31-17.34,20.54,10.21,1.15,16.66Zm19.47-25.38,22,11v16L143.63,332.1ZM145,351.64,143.83,335l20.64,10.25v16Zm41.56,20.44L167,362.45v-16l20.73,10.3Zm1.36-18L167,343.69v-16l22.08,11.07Zm1.35-18L167,324.93V309l23.43,11.84Z" transform="translate(-45.813 -147.423)"/><path class="h" d="M241.69,291.91a1.069,1.069,0,0,0,0-.25,1.552,1.552,0,0,0-.08-.23v-.12a.34.34,0,0,0-.08-.09.69.69,0,0,0-.16-.18.9.9,0,0,0-.19-.15l-.2-.1a1,1,0,0,0-.25-.07.451.451,0,0,0-.11,0h-.12a.908.908,0,0,0-.23,0,1,1,0,0,0-.29.1h-.08L191.09,319l-.07.07a1.412,1.412,0,0,0-.35.35,1.47,1.47,0,0,0-.1.22.72.72,0,0,0-.07.25.291.291,0,0,0,0,.1l-4.06,53.94v.12a1,1,0,0,0,0,.25,1.689,1.689,0,0,0,.08.24s0,.08,0,.11l.1.14.06.08a1.46,1.46,0,0,0,.34.26h.06a1.209,1.209,0,0,0,.37.11h.15a1.151,1.151,0,0,0,.41-.08h.22L237,347a1.247,1.247,0,0,1,.1-.09,1,1,0,0,0,.19-.17,1.236,1.236,0,0,0,.14-.18,1.244,1.244,0,0,0,.16-.44.45.45,0,0,0,0-.11L241.7,292S241.69,292,241.69,291.91Zm-32.53,19.54,13.63-7.87-1.13,15L208,326.41Zm-16.25,9.38L206.54,313l-1.13,15-13.63,7.87Zm9.79,43.05-13.62,7.87,1.12-15,13.63-7.87Zm1.36-18-13.63,7.87,1.13-15,13.62-7.87ZM219,354.5l-13.63,7.87,1.13-15,13.63-7.87Zm1.36-18-13.63,7.87,1.12-15,13.63-7.87Zm14.89,8.6L221.57,353l1.13-15,13.63-7.87Zm1.35-18L222.93,335l1.12-15,13.63-7.87Zm1.36-18L224.28,317l1.13-15L239,294.2Z" transform="translate(-45.813 -147.423)"/><path class="n" d="M241.69,291.91a1.069,1.069,0,0,0,0-.25,1.552,1.552,0,0,0-.08-.23v-.12a.34.34,0,0,0-.08-.09.69.69,0,0,0-.16-.18.9.9,0,0,0-.19-.15l-.2-.1a1,1,0,0,0-.25-.07.451.451,0,0,0-.11,0h-.12a.908.908,0,0,0-.23,0,1,1,0,0,0-.29.1h-.08L191.09,319l-.07.07a1.412,1.412,0,0,0-.35.35,1.47,1.47,0,0,0-.1.22.72.72,0,0,0-.07.25.291.291,0,0,0,0,.1l-4.06,53.94v.12a1,1,0,0,0,0,.25,1.689,1.689,0,0,0,.08.24s0,.08,0,.11l.1.14.06.08a1.46,1.46,0,0,0,.34.26h.06a1.209,1.209,0,0,0,.37.11h.15a1.151,1.151,0,0,0,.41-.08h.22L237,347a1.247,1.247,0,0,1,.1-.09,1,1,0,0,0,.19-.17,1.236,1.236,0,0,0,.14-.18,1.244,1.244,0,0,0,.16-.44.45.45,0,0,0,0-.11L241.7,292S241.69,292,241.69,291.91Zm-32.53,19.54,13.63-7.87-1.13,15L208,326.41Zm-16.25,9.38L206.54,313l-1.13,15-13.63,7.87Zm9.79,43.05-13.62,7.87,1.12-15,13.63-7.87Zm1.36-18-13.63,7.87,1.13-15,13.62-7.87ZM219,354.5l-13.63,7.87,1.13-15,13.63-7.87Zm1.36-18-13.63,7.87,1.12-15,13.63-7.87Zm14.89,8.6L221.57,353l1.13-15,13.63-7.87Zm1.35-18L222.93,335l1.12-15,13.63-7.87Zm1.36-18L224.28,317l1.13-15L239,294.2Z" transform="translate(-45.813 -147.423)"/></g><g transform="translate(290.65 37.423)"><path class="h" d="M315.37,94.3l-3.26-6.13,2.62-7.57V76l-8,4.63v4.64l3.45,6a.53.53,0,0,0,.24.21h0Z" transform="translate(-290.65 -37.423)"/><path class="q" d="M315.37,94.3l-3.26-6.13,2.62-7.57V76l-8,4.63v4.64l3.45,6a.53.53,0,0,0,.24.21h0Z" transform="translate(-290.65 -37.423)"/><path class="h" d="M330.36,43.32A5.32,5.32,0,0,0,328,39.15L326,38a5.3,5.3,0,0,0-4.81,0L293.05,54.21a5.31,5.31,0,0,0-2.4,4.17V89.7a5.35,5.35,0,0,0,2.4,4.17L295,95a5.32,5.32,0,0,0,4.82,0l11.91-6.84,3.45,6a.51.51,0,0,0,.93-.09l3.64-10.5L328,78.81a5.32,5.32,0,0,0,2.41-4.17Z" transform="translate(-290.65 -37.423)"/><path class="x" d="M305.32,69.73a14,14,0,0,1,1.15-5.38h0a9.41,9.41,0,0,1,3.43-4.39c2.35-1.39,4.31,1.42,4.62,4.74.28-3.66,2.2-8.75,4.55-10.13a2.56,2.56,0,0,1,3.45.34h0a6.19,6.19,0,0,1,1.18,4c0,5.6-3.34,10.68-6.16,16l-3,5.61-3-2.1C308.74,76.44,305.35,75.33,305.32,69.73Z" transform="translate(-290.65 -37.423)"/><path class="q" d="M290.65,89.7a5.35,5.35,0,0,0,2.4,4.17L295,95a5.39,5.39,0,0,0,4.4.19c-1.13.43-2-.21-2-1.58V62.29a5,5,0,0,1,.7-2.38L291.35,56a5,5,0,0,0-.7,2.38Z" transform="translate(-290.65 -37.423)"/><path class="j" d="M330.28,42.63c-.28-1-1.22-1.34-2.33-.7L299.82,58.12a4.75,4.75,0,0,0-1.69,1.8L291.36,56a5,5,0,0,1,1.69-1.8L321.17,38A5.38,5.38,0,0,1,326,38l2,1.13a5.33,5.33,0,0,1,2.28,3.5Z" transform="translate(-290.65 -37.423)"/></g><g transform="translate(259.816 75.705)"><g transform="translate(0 89.815)"><path class="y" d="M282.81,245.13a6.58,6.58,0,0,0-3.31-1,2.68,2.68,0,0,0-1,.06.9.9,0,0,0-.62.71,3.57,3.57,0,0,0-4.78.06l1.53,2.64a11.37,11.37,0,0,0,4.89,2.29,5.49,5.49,0,0,0,2.58,0,2.77,2.77,0,0,0,1.89-1.66A2.86,2.86,0,0,0,282.81,245.13Z" transform="translate(-259.816 -165.52)"/><path class="z" d="M299.65,165.52c-6.57,2.19-11,2.09-18.42,10.76-7,8.11-13.35,15.93-18.39,22.33-3.59,4.56-4.15,6.89-.78,12.68,2.8,4.82,16.55,23.11,17.81,24.37.65.65,0,3.67-.13,5.54s.65,3.61.45,5.07c-.37,2.88-1.26,3-3.23,1.2-2.39-2.15-4.64-4.07-5.34-1.37-.15.57,4.36,5.51,5.28,6.57,1.6,1.83,5.31,1.57,9.07,0s6.9-4.2,7.39-8,1.15-8.32-1.54-12.45c-3.17-4.88-13.2-26.18-13.2-26.18l18.44-17.65Z" transform="translate(-259.816 -165.52)"/><path class="aa" d="M294.26,165.52c-4.74,1.24-4.95,1-13.42,10.39a228.991,228.991,0,0,0-15.65,19.75,16.81,16.81,0,0,1,9.54,3.2c5.09,3.45,5.3,5.84,5.3,5.84l19.24-16.57Z" transform="translate(-259.816 -165.52)"/></g><g transform="translate(4.045 144.155)"><path class="z" d="M290.59,380.09c-.27-4-2.68-44.19-2.68-44.19l19.72,14.47c-3.14,23-4.38,29.17-4.5,33h0a3.289,3.289,0,0,1,.1,1c-.06,4.55-5.36,6.95-9.51,9.95a77.305,77.305,0,0,1-11.2,7c-3,1.44-9.07,1.51-9.81-.38,5.05-3.67,10.88-7.68,14.91-11.9C289.54,387,290.92,384.88,290.59,380.09Z" transform="translate(-263.861 -219.86)"/><path class="aa" d="M264.13,405.71c-.26,0-.68,2.75.71,3.94,1.59,1.37,6.29,3.64,12.54,2.92S287,410,289.55,408s6.05-4.85,8.88-5.42c2.63-.54,5.49-1.67,6.34-2.45s.77-4.3.77-4.3Z" transform="translate(-263.861 -219.86)"/><path class="ab" d="M303.19,382.26a1,1,0,0,1,.93.83c.19,1,.36,3.79.76,5.38a27.84,27.84,0,0,1,.53,8.55c-.37,1.8-4.65,3-7.4,4a35,35,0,0,0-8.91,5.36c-3,2.33-9.15,4.71-13.22,4.64-4.81-.08-10.22-1.66-11.44-3.85-1.51-2.71-.28-4.25,6.89-7.4,1.35-.6,6.13-3.29,7.76-4.27,4.4-2.64,8.77-6.33,10.84-11.06a2.61,2.61,0,0,1,1-1.44,2.27,2.27,0,0,1,1.39-.11,11.789,11.789,0,0,1,3.42,1.05c1,.45,2.31,1,2.27,2.18a3.68,3.68,0,0,1-.28,1.21c-.08.24-.16.57.06.72s.48,0,.67-.18a17.305,17.305,0,0,0,1.95-2.23,6.651,6.651,0,0,1,1.14-1.11,12.657,12.657,0,0,0,1.23-.76C303.26,383.34,303.16,382.82,303.19,382.26Z" transform="translate(-263.861 -219.86)"/><path class="aa" d="M289.1,406.37a45.959,45.959,0,0,1,3.93-2.79h0s-8.45,4.89-11.82,2.59c-2.17-1.48-1.11-3.23-1-3.8s-5.31-3-7.43-3.31h0c-.59.32-1.09.57-1.4.71-7.17,3.15-8.4,4.69-6.89,7.4,1.22,2.19,5.13,3.93,11.35,4C279.86,411.2,286.15,408.7,289.1,406.37Z" transform="translate(-263.861 -219.86)"/><path class="aa" d="M280.76,400.72c-4.45,1.69-2.57,2.51-1.33,2.7s8.76-4,13.35-7.46c4.79-3.61,7.83-7.59,9.61-8.92a26.027,26.027,0,0,0,2-1.67c-.11-.95-.19-1.82-.28-2.28a1,1,0,0,0-.93-.83c0,.56.07,1.08-.37,1.5a12.672,12.672,0,0,1-1.23.76,6.651,6.651,0,0,0-1.14,1.11,17.308,17.308,0,0,1-1.95,2.23C294.58,392.62,285.22,399,280.76,400.72Z" transform="translate(-263.861 -219.86)"/><path class="ac" d="M279.75,402.79a.44.44,0,0,0,.35-.7,10.69,10.69,0,0,0-8.1-3.21.43.43,0,1,0,.09.85,9.9,9.9,0,0,1,7.33,2.9.44.44,0,0,0,.33.16Z" transform="translate(-263.861 -219.86)"/><path class="ac" d="M283.65,400.51a.44.44,0,0,0,.35-.7,10.72,10.72,0,0,0-8.1-3.21.427.427,0,1,0,.08.85,10,10,0,0,1,7.33,2.89.47.47,0,0,0,.34.17Z" transform="translate(-263.861 -219.86)"/><path class="ac" d="M287.54,398.35a.44.44,0,0,0,.35-.7,10.69,10.69,0,0,0-8.1-3.21.42.42,0,0,0-.39.47.43.43,0,0,0,.48.38,9.9,9.9,0,0,1,7.33,2.9A.47.47,0,0,0,287.54,398.35Z" transform="translate(-263.861 -219.86)"/><path class="ac" d="M291.16,395.87a.489.489,0,0,0,.28-.09.43.43,0,0,0,.07-.61,10.79,10.79,0,0,0-8.1-3.21.432.432,0,1,0,.08.86,9.9,9.9,0,0,1,7.33,2.89A.46.46,0,0,0,291.16,395.87Z" transform="translate(-263.861 -219.86)"/><path class="ac" d="M294.7,393.39a.34.34,0,0,0,.27-.09.41.41,0,0,0,.08-.6c-1.7-2.13-5.58-3.57-8.85-3.26a.43.43,0,1,0,.09.85c2.94-.28,6.56,1,8.07,2.94A.41.41,0,0,0,294.7,393.39Z" transform="translate(-263.861 -219.86)"/><path class="z" d="M330.69,350l18.93-2.2c1,12.87.43,27.32,1.34,39.39.17,2.28,1.89,17.61,1.5,22.36-.59,7.14-9.22,7-10.11,2.88s-1.75-22.16-2-24c-.72-7.73-4.57-17.34-8-31C332.25,356.72,330.85,350.64,330.69,350Z" transform="translate(-263.861 -219.86)"/><path class="aa" d="M339.44,415.65c.25,4.14.91,6.88,2.42,9.31s4.35,3.18,7.22,2.47,6.56-2.61,7.38-6.17a22.12,22.12,0,0,0,0-9.85Z" transform="translate(-263.861 -219.86)"/><path class="ab" d="M350.86,385.71c1.18.09,1.54,5.64,2.22,11.2.74,6,2.57,8.42,3.23,13.31.75,5.58.45,8.08-1.55,11.45s-9.11,6.69-12.61,1.85c-2.86-3.94-3-8.31-2.72-13.88a140.528,140.528,0,0,0,.25-14.19c-.23-4.18-.53-8.23.5-8.7.08.62.15,1.4.24,2s.18,2.73.85,2.75a8.337,8.337,0,0,0,0-1.58,1.87,1.87,0,0,1,.32-1.35,2.27,2.27,0,0,1,1.32-.57c1.16-.22,2.33-.42,3.52-.53a17.457,17.457,0,0,1,1.77-.07,4.46,4.46,0,0,1,1.5.21,1.07,1.07,0,0,1,.65.56,2,2,0,0,1,.06.64,4.481,4.481,0,0,0,.15,1.15c0,.16.16.36.33.32s.19-.2.19-.33c0-.68-.08-1.17-.12-1.95,0-.36-.07-.86-.08-1.22S350.88,386.06,350.86,385.71Z" transform="translate(-263.861 -219.86)"/><path class="aa" d="M356,408.63c.11.81.82,6.14-.67,7.1s-2.5-3.15-2.5-3.15-3.78-1.13-9.28,1.22c.28.86-.57,3.71-2.08,3.11s-2.09-6.71-2.1-6.79c-.23,5.34,0,9.58,2.74,13.4,3.5,4.84,10.6,1.53,12.61-1.85s2.3-5.87,1.55-11.45A8.119,8.119,0,0,0,356,408.63Z" transform="translate(-263.861 -219.86)"/><path class="aa" d="M352.44,412.94c0,2,2.07,1.33,2.15-1.52s-1.52-9.61-1.51-14.51c-.68-5.56-1-11.11-2.22-11.2v.2l.16,2.83a11.753,11.753,0,0,1,.07,1.21c0,4.11.63,12.07,1,15.83a65.035,65.035,0,0,1,.35,7.16Z" transform="translate(-263.861 -219.86)"/><path class="aa" d="M344.22,413.74a63.516,63.516,0,0,1-1.13-7.08c-.41-3.73-1.45-11.55-2.26-15.61a9.822,9.822,0,0,1-.41-2.3c-.08-.56-.15-1.27-.23-1.87v-.12c-.74.35-.79,2.58-.67,5.38.15,1.61.42,3.61.79,6,1,4.81.83,11.78,1.5,14.56S344.61,415.72,344.22,413.74Z" transform="translate(-263.861 -219.86)"/><path class="ac" d="M343.47,414a.329.329,0,0,0,.16,0,14.36,14.36,0,0,1,9.13-.92.43.43,0,0,0,.53-.3.44.44,0,0,0-.31-.53,14.93,14.93,0,0,0-9.76,1,.41.41,0,0,0-.18.57.43.43,0,0,0,.43.18Z" transform="translate(-263.861 -219.86)"/><path class="ac" d="M342.48,409.58a.329.329,0,0,0,.14,0,17.75,17.75,0,0,1,10.22-1,.45.45,0,0,0,.53-.32.43.43,0,0,0-.33-.51,18.3,18.3,0,0,0-10.8,1.09.41.41,0,0,0-.2.57.43.43,0,0,0,.44.17Z" transform="translate(-263.861 -219.86)"/><path class="ac" d="M352.55,404.35a.41.41,0,0,0,.37-.29.42.42,0,0,0-.27-.54c-5.32-1.75-10.56.88-10.78,1a.42.42,0,0,0-.19.58.44.44,0,0,0,.59.18c.06,0,5.15-2.58,10.09-.94A.43.43,0,0,0,352.55,404.35Z" transform="translate(-263.861 -219.86)"/><path class="ac" d="M352.24,400.43a.44.44,0,0,0,.37-.28.43.43,0,0,0-.26-.55,13.93,13.93,0,0,0-11,1,.43.43,0,0,0-.15.59.45.45,0,0,0,.61.14,13.22,13.22,0,0,1,10.24-.88A.409.409,0,0,0,352.24,400.43Z" transform="translate(-263.861 -219.86)"/><path class="ad" d="M351.88,396a.44.44,0,0,0,.37-.27.42.42,0,0,0-.26-.55c-5.48-2-10.85.95-11.08,1.07a.43.43,0,0,0-.16.59.45.45,0,0,0,.6.16s5.25-2.88,10.33-1a.459.459,0,0,0,.2,0Z" transform="translate(-263.861 -219.86)"/><path class="aa" d="M336.73,220.4c3.79,8.45,7.88,14.37,8.38,30.3,1.06,33.86.7,58.31.7,58.31.23,3,1.79,7.36,3.88,22.74,1.75,12.89,1.39,32.73,1.39,32.73s-8.85,4.54-17,1.29c-3.27-11-9.11-39.77-12.68-54.51-3.24-13.38-6.45-33-6.45-33l-5.15,33.15s1,13.29.54,21.11c-.52,9.1-4.86,34.63-4.86,34.63s-9.07,3.88-16.11-1.21c0,0-3.51-45.8-3.59-56.77-.17-21.5-1.34-66.81,2.48-89.31Z" transform="translate(-263.861 -219.86)"/><path class="u" d="M351.51,361.27c-3.34,2-13.93,3.38-18.47,1.73l1.29,5.2s2.06,1.42,8.32,1.07,8.69-2.88,8.69-2.88Z" transform="translate(-263.861 -219.86)"/><path class="u" d="M306.39,362.73c-3.58,1.6-13.42,1.61-17.71-.6l.59,5.32s1.46,2,7.73,2.11,8.55-1.77,8.55-1.77Z" transform="translate(-263.861 -219.86)"/><path class="ab" d="M314.91,278.29l-3.8-23.92s-14.64-1.69-20-6.68c0,0,6.72,9.24,16.66,10.74L312,278.26l-2.18,32.9Z" transform="translate(-263.861 -219.86)"/></g><g transform="translate(22.674)"><path class="ae" d="M333.48,214.22l3.66-22.44s-6.81-9.78-5.27-25.22c-4.3-1.77-9.42-2.17-9.24-5.18l-17,2.75c-3.8,4-11.67,7.31-15.58,14-4.78,8.11-4.88,15.79-.06,21.4.25,5.59-.82,23.78-.82,23.78,17.11,11.57,46.77,2.14,46.77,2.14C334.47,221.22,333.15,218.14,333.48,214.22Z" transform="translate(-282.49 -75.705)"/><g transform="translate(4.592 34.623)"><path class="g" d="M322.39,156.67c.15-2.73,4.66-5.45,8.51-9.62,5.36-5.79,8.29-16.09.24-23.64-1.81-12-15.86-14.9-27.31-12.09-6.87,1.68-13.21,6.3-15.61,13-1.73,4.83-1.71,10.86,1.62,15.37a10.491,10.491,0,0,1,.06-5.11,8.729,8.729,0,0,0,1,2.26,3,3,0,0,0,2,1.3c.84.07,1.34-.4,2.08-.64s.74-.13,1.36.32,1.49,1.08,2.24,1.62l5.25,3.81,11.08,8C315.4,151.6,322.39,156.81,322.39,156.67Z" transform="translate(-287.082 -110.329)"/><path class="g" d="M344.77,144.35c-1.13.66-2.29.29-3.59.77-1.58.6-2.31,2.46-3.76,3.33a6.23,6.23,0,0,1-4.29.38,4.33,4.33,0,0,1-2.24-.88,4.2,4.2,0,0,1-.84-1.16,18.409,18.409,0,0,1-1.72-5.12c-.4-1.92-1.05-3.49-.86-5.53.09-1,.3-2,.34-2.95a4.5,4.5,0,0,0-.7-2.83,10.129,10.129,0,0,0-2.91-2.1,5.3,5.3,0,0,1-2.06-2.29,6.4,6.4,0,0,1,0-4,12.41,12.41,0,0,1,3.79-6.43,8.68,8.68,0,0,1,7-2.09,7,7,0,0,1,4.12,2.42,5.13,5.13,0,0,1,1.13,2.12,9.526,9.526,0,0,0,.46,2.46,4.43,4.43,0,0,0,2.56,2,20.642,20.642,0,0,1,3.1,1.18,8.591,8.591,0,0,1,2.67,2.76,8.4,8.4,0,0,1,1.31,2.69,3.67,3.67,0,0,1-.42,2.9c-.55.82-1.5,1.3-2.1,2.09a3.19,3.19,0,0,0-.62,2.31c.18,1.44,1.31,2.61,1.54,4a4.1,4.1,0,0,1-1.42,3.6A3.637,3.637,0,0,1,344.77,144.35Z" transform="translate(-287.082 -110.329)"/><path class="z" d="M325.26,149.18a6.18,6.18,0,0,0,3.12-1.15c2.5-1.74,3.15-5.52,1.91-8.2-.84-1.82-3.8-2.72-5.3-1.17-.78.79-1.18,3.43-2.73,2.92-1.06-.35-.92-1.85-1-2.72a19.69,19.69,0,0,0-6.23-12,18.511,18.511,0,0,0-5.1-3.52,10.52,10.52,0,0,0-5.14-1.08,7.64,7.64,0,0,0-3.07,1.21,4.32,4.32,0,0,0-2.2-1.37c-2.61-.7-4.88,1.72-5.81,3.91-1.65,3.89-1.64,8.54-1.64,12.68,0,7.91,1.48,13,4.73,16.43,1.5,1.57,5,2.81,8.78,2.59l.08,4.88s-5.27,5.44-2.9,11.43a38.471,38.471,0,0,0,10.65-2.54c7.62-3.36,9.16-6.7,9.16-6.7l.35-17.12v.09A2.33,2.33,0,0,0,325.26,149.18Z" transform="translate(-287.082 -110.329)"/><path class="g" d="M312.14,118.49c4,.28,7.13,2.33,9.65,5.57,2.74,3.54,4.3,8.3,2.84,12.64a4.16,4.16,0,0,1-1.18,2,1.9,1.9,0,0,1-2.58-.22,10.77,10.77,0,0,1-2.25-3.73,11.89,11.89,0,0,0,1.23,5.23,7.67,7.67,0,0,1-4.62-2.89c-2.06-2.74-2.07-6.51-3.63-9.56-2.08-4-4.73-6.61-9.89-4C301.71,123.5,301.71,117.77,312.14,118.49Z" transform="translate(-287.082 -110.329)"/><path class="g" d="M307.43,136.16a1.72,1.72,0,0,0,1.42,1.92,1.61,1.61,0,0,0,1.89-1.36,1.72,1.72,0,0,0-1.42-1.92,1.62,1.62,0,0,0-1.89,1.36Z" transform="translate(-287.082 -110.329)"/><path class="g" d="M294.36,131.87l3.77-1.3a1.92,1.92,0,0,0-2.46-1.28A2.1,2.1,0,0,0,294.36,131.87Z" transform="translate(-287.082 -110.329)"/><path class="g" d="M308,130.72l3.48,1.94a1.91,1.91,0,0,0-.7-2.69A2.08,2.08,0,0,0,308,130.72Z" transform="translate(-287.082 -110.329)"/><path class="af" d="M308.67,145.93l-6.14,2.56a3.34,3.34,0,0,0,4.65,1.65,3.13,3.13,0,0,0,1.49-4.21Z" transform="translate(-287.082 -110.329)"/><path class="y" d="M305.37,150.48a3.5,3.5,0,0,1,3.24-3.39h.32a2.94,2.94,0,0,1-1.75,3A3.81,3.81,0,0,1,305.37,150.48Z" transform="translate(-287.082 -110.329)"/><path class="g" d="M295.19,135.88a1.67,1.67,0,0,0,1.37,1.86,1.57,1.57,0,0,0,1.83-1.32,1.67,1.67,0,0,0-1.37-1.86,1.56,1.56,0,0,0-1.83,1.32Z" transform="translate(-287.082 -110.329)"/><path class="ag" d="M303.15,134.54l-.89,10.16-5-1.24Z" transform="translate(-287.082 -110.329)"/><path class="ag" d="M305.57,157.74c4-.41,12.05-1.89,14.73-7,0,0-1.13,4.25-3.76,6.06s-10.94,3.25-10.94,3.25Z" transform="translate(-287.082 -110.329)"/></g><path class="aa" d="M294.26,165.52c-3,.74-1.13,5.47-6.9,13.86l17.87-15.19.42-1.57S298.4,164.49,294.26,165.52Z" transform="translate(-282.49 -75.705)"/><path class="h" d="M292.61,174.05c7.6-6.31,12.58-9.76,12.58-9.76-1,4-.05,6.37,1.94,7s9-.82,13.05-4.58l21.94,15.77c-1.31,3.86-3.93,10.6-4.64,14.72s-2.22,12.17-1.75,16.32,6.5,16.2,7.84,23.74c0,0-11.95,11.06-35.56,9.85-18.83-1-22.05-8.88-22.05-8.88s.79-13,1.09-18.23,1.24-15.13,1.24-15.13-7.16-6.62-5.57-15.19C284.24,181.51,289.48,176.65,292.61,174.05Z" transform="translate(-282.49 -75.705)"/><path class="aa" d="M322.66,159.87c-.33,2.59-3,6.07-5.32,7.67-5,3.4-8.79,4-11,2.7s-1-5.59-.7-7.62l-1.19.3c-1,2.12-2.56,8.22.87,9.75,4.75,2.11,13.32-1.61,16.63-5.81s3.45-6.48,3.45-6.48a7,7,0,0,1-1.44,0,7.687,7.687,0,0,1-1.3-.51Z" transform="translate(-282.49 -75.705)"/><path class="z" d="M367.9,103.11c0,3.71-7.24,27.58-7.24,27.58s14.17,8.88,14.27,8.51,5-31.56,6.22-36.45Z" transform="translate(-282.49 -75.705)"/><path class="aa" d="M325.61,163.86c4.73-6.86,8.09-8.69,12.1-10.36s19-11.86,19-11.86l7-23.89,13.7,7s-2.66,23.13-4.49,26.31-12.17,13.25-20.05,21.56c-5.45,5.75-10.54,11.55-13.12,16.55-.69,1.35-2.31,4.3-4.27,3.81-3-.77-6.2-8.87-7.65-13.55a44.25,44.25,0,0,1-2.22-15.57Z" transform="translate(-282.49 -75.705)"/><path class="aa" d="M329.33,159.11c-4.36,2.36-6.67.76-6.67.76s.3,5.91-3.76,8.48c0,0,8.6,19.16,15.29,23.94S329.33,159.11,329.33,159.11Z" transform="translate(-282.49 -75.705)"/><path class="z" d="M367.9,103.11c-.07-6.76,1.58-10.31,4.7-13.35a10.518,10.518,0,0,0,1-1.84c.29-3.87-5-10.48-1.22-11.65,4.47-1.39,5.89,0,8.56,1.85s9.82,6.32,6.64,12.27-4.86,6.89-6.71,13.21C378.61,111.35,367.9,103.11,367.9,103.11Z" transform="translate(-282.49 -75.705)"/><path class="g" d="M375.32,118.68h.05a.37.37,0,0,0,.24-.47s-1.34-4-4.4-14.15c-2.75-9.1-1.35-10.67.26-12.49a.37.37,0,0,0-.55-.49c-2.05,2.3-3.09,4.34-.42,13.19,3.07,10.14,4.39,14.14,4.4,14.18a.39.39,0,0,0,.42.23Z" transform="translate(-282.49 -75.705)"/><path class="h" d="M400.36,186.22l27.48-35.98-27.2-58.08-25.5,33.49Z" transform="translate(-282.49 -75.705)"/><path class="ah" d="M400.36,186.22l27.48-35.98-27.2-58.08-25.5,33.49Z" transform="translate(-282.49 -75.705)"/><path class="ai" d="M400.36,186.22l27.48-35.98-27.2-58.08-25.5,33.49Z" transform="translate(-282.49 -75.705)"/><path class="h" d="M375.14,125.65l-3.43-4.41-6.87,2.88,12.94,59.44,22.58,2.66Z" transform="translate(-282.49 -75.705)"/><path class="l" d="M375.14,125.65l-3.43-4.41-6.87,2.88,12.94,59.44,22.58,2.66Z" transform="translate(-282.49 -75.705)"/><path class="m" d="M377.78,183.56l9.78-3.33L374.3,133.81l16.23,46.53,9.83,5.88Z" transform="translate(-282.49 -75.705)"/><path class="k" d="M377.78,183.56l9.78-3.33L374.3,133.81l16.23,46.53,9.83,5.88Z" transform="translate(-282.49 -75.705)"/><path class="h" d="M400.64,92.16l-7.01,2.01-2.28-3.19-26.51,33.14,6.87-2.88,3.43,4.41Z" transform="translate(-282.49 -75.705)"/><path class="aj" d="M400.64,92.16l-7.01,2.01-2.28-3.19-26.51,33.14,6.87-2.88,3.43,4.41Z" transform="translate(-282.49 -75.705)"/><path class="k" d="M400.64,92.16l-7.01,2.01-2.28-3.19-26.51,33.14,6.87-2.88,3.43,4.41Z" transform="translate(-282.49 -75.705)"/><path class="r" d="M393.63,94.17l1.96,4.65,5.05-6.66Z" transform="translate(-282.49 -75.705)"/><path class="g" d="M383.83,124a.17.17,0,0,0,.1,0,.36.36,0,0,0,.18-.49c-.05-.11-5.09-10.63-8-17-2.85-6.14-6.38-13.75-3.74-16.19a.37.37,0,0,0-.5-.54c-3,2.81.46,10.35,3.55,17,3,6.39,8,16.91,8.05,17A.36.36,0,0,0,383.83,124Z" transform="translate(-282.49 -75.705)"/><path class="g" d="M387.25,124.62a.21.21,0,0,0,.11,0,.37.37,0,0,0,.15-.5c-.06-.1-5.57-10.13-9.56-18-.39-.78-.81-1.58-1.23-2.4-2.92-5.61-6.22-12-3.94-14.09a.368.368,0,1,0-.52-.52c-2.7,2.5.59,8.84,3.78,15,.42.82.84,1.62,1.23,2.4,4,7.86,9.52,17.91,9.57,18a.37.37,0,0,0,.41.11Z" transform="translate(-282.49 -75.705)"/><path class="o" d="M431.25,177.64l26.89-40.12L410.78,92.45l-20.25,27.66Z" transform="translate(-282.49 -75.705)"/><path d="M379.49,123.82l23.93-30.55,2.93,1.04,4.43-1.86-20.25,27.66-3.29.46Z" transform="translate(-282.49 -75.705)"/><path class="u" d="M390.53,120.11l-3.29.46-7.75,3.25,29.12,63.32,22.64-9.5Z" transform="translate(-282.49 -75.705)"/><path class="o" d="M431.25,177.64l-14.48-2.41-21.64-36.52,19.25,38.14-5.77,10.29Z" transform="translate(-282.49 -75.705)"/><path class="g" d="M399.21,116.86a.3.3,0,0,0,.22-.12.37.37,0,0,0,0-.52c-.18-.15-17.82-15.07-21.34-18.41-3-2.84-6.25-6.7-4.9-9a.38.38,0,0,0-.13-.51.36.36,0,0,0-.51.13c-1.28,2.18.41,5.51,5,9.9,3.54,3.36,21.19,18.29,21.37,18.44A.38.38,0,0,0,399.21,116.86Z" transform="translate(-282.49 -75.705)"/><path class="g" d="M400.22,114.46a.39.39,0,0,0,.23-.13.38.38,0,0,0-.07-.52c-.19-.15-19-14.79-22.5-18.13s-5.53-5.5-4.31-7.58a.37.37,0,0,0-.13-.51.38.38,0,0,0-.51.14c-1.61,2.74,1.2,5.4,4.44,8.49,3.54,3.36,21.78,17.57,22.56,18.17A.34.34,0,0,0,400.22,114.46Z" transform="translate(-282.49 -75.705)"/><path class="h" d="M394.05,116.99l43.56,56.53,19.6-14.47-57.99-48.06Z" transform="translate(-282.49 -75.705)"/><path class="r" d="M394.05,116.99l43.56,56.53,19.6-14.47-57.99-48.06Z" transform="translate(-282.49 -75.705)"/><path class="r" d="M437.61,173.52l4.35-10.9-27.58-29.96,29.89,28.22,12.94-1.83Z" transform="translate(-282.49 -75.705)"/><path class="h" d="M457.21,159.05l9.86-41.62L417.25,84.25l-18.03,26.74Z" transform="translate(-282.49 -75.705)"/><path d="M407.2,108.8a.85.85,0,0,0,1.25-.7,2.09,2.09,0,0,0-1-1.61.85.85,0,0,0-1.25.7,2.12,2.12,0,0,0,1,1.61Z" transform="translate(-282.49 -75.705)"/><path d="M415.8,97.19a.85.85,0,0,0,1.25-.7,2,2,0,0,0-1-1.61.85.85,0,0,0-1.25.7,2.11,2.11,0,0,0,1,1.61Z" transform="translate(-282.49 -75.705)"/><path class="g" d="M407.21,108a.37.37,0,0,0,.28-.22.38.38,0,0,0-.18-.49C407.1,107.23,386.66,98,382,96c-3.76-1.58-7.88-4.18-8.58-6.41a1.72,1.72,0,0,1,.18-1.52.38.38,0,0,0-.12-.51.37.37,0,0,0-.51.11,2.44,2.44,0,0,0-.25,2.14c.82,2.62,5.36,5.34,9,6.87,4.67,2,25.1,11.19,25.31,11.28a.39.39,0,0,0,.18.04Z" transform="translate(-282.49 -75.705)"/><path class="g" d="M408.21,103.72a.35.35,0,0,1-.25.16.45.45,0,0,1-.27,0L387.56,90.45v-.06a5.743,5.743,0,0,0,.29-.62l20.22,13.44a.36.36,0,0,1,.14.51Z" transform="translate(-282.49 -75.705)"/><path class="g" d="M409.13,101.8a.32.32,0,0,1-.26.17.45.45,0,0,1-.25,0L387.9,89.75a5.408,5.408,0,0,0,.24-.71L409,101.29a.36.36,0,0,1,.13.51Z" transform="translate(-282.49 -75.705)"/><path class="g" d="M394.31,107.24a.391.391,0,0,1-.14.05.37.37,0,0,1-.37-.16L385.36,94.2l.43-.71,8.63,13.24a.37.37,0,0,1-.11.51Z" transform="translate(-282.49 -75.705)"/><path class="g" d="M395.79,105.61a.32.32,0,0,1-.17.06.34.34,0,0,1-.35-.14l-9.22-12.46c.14-.23.27-.46.41-.68l9.4,12.7a.37.37,0,0,1-.07.52Z" transform="translate(-282.49 -75.705)"/><path class="g" d="M416,96a.38.38,0,0,1-.3.26.33.33,0,0,1-.17,0l-27.22-8a6.794,6.794,0,0,0,.05-.77l27.38,8.11a.37.37,0,0,1,.26.4Z" transform="translate(-282.49 -75.705)"/></g></g></g></svg>