<svg xmlns="http://www.w3.org/2000/svg" width="593.001" height="441.857" viewBox="0 0 593.001 441.857"><defs><style>.a{fill:#ebebeb;}.b{fill:#f5f5f5;}.c{fill:#f0f0f0;}.d{fill:#e6e6e6;}.e{fill:#e0e0e0;}.f{fill:#fafafa;}.g,.t{fill:#fff;}.h{fill:#ffc3bd;}.i{fill:#263238;}.j{opacity:0.2;}.k{fill:#f3333e;}.l{fill:#00263e;}.m,.n,.o{fill:#cd2b34;}.m{opacity:0.583;}.o{opacity:0.565;}.p,.t{opacity:0.3;}.q{fill:#782938;opacity:0.996;}.r{opacity:0.4;}.s{fill:#ed847e;}</style></defs><g transform="translate(0 -55)"><g transform="translate(0 55)"><rect class="a" width="593.001" height="0.297" transform="translate(0 388.297)"/><rect class="a" width="39.28" height="0.297" transform="translate(494.302 407.38)"/><rect class="a" width="46.515" height="0.297" transform="translate(346.313 410.606)"/><rect class="a" width="67.626" height="0.297" transform="translate(425.49 396.374)"/><rect class="a" width="81.395" height="0.297" transform="translate(206.934 398.366)"/><rect class="a" width="7.507" height="0.297" transform="translate(298.884 398.366)"/><rect class="a" width="150.397" height="0.297" transform="translate(116.62 403.371)"/><path class="a" d="M273.975,390.4H44.97a6.772,6.772,0,0,1-6.76-6.772V61.713A6.772,6.772,0,0,1,44.97,55H273.975a6.772,6.772,0,0,1,6.772,6.772V383.629A6.772,6.772,0,0,1,273.975,390.4ZM44.97,55.237a6.476,6.476,0,0,0-6.464,6.476V383.629A6.476,6.476,0,0,0,44.97,390.1H273.975a6.487,6.487,0,0,0,6.476-6.476V61.713a6.487,6.487,0,0,0-6.476-6.476Z" transform="translate(7.107 -55)"/><path class="a" d="M490.289,390.4H261.272a6.784,6.784,0,0,1-6.772-6.772V61.713A6.784,6.784,0,0,1,261.272,55H490.289a6.772,6.772,0,0,1,6.748,6.713V383.629A6.772,6.772,0,0,1,490.289,390.4ZM261.272,55.237a6.487,6.487,0,0,0-6.476,6.476V383.629a6.487,6.487,0,0,0,6.476,6.476H490.289a6.487,6.487,0,0,0,6.476-6.476V61.713a6.487,6.487,0,0,0-6.476-6.476Z" transform="translate(47.338 -55)"/><rect class="b" width="41.546" height="139.569" transform="translate(134.457 388.297) rotate(180)"/><rect class="c" width="6.855" height="139.569" transform="translate(99.755 388.297) rotate(180)"/><rect class="d" width="157.762" height="34.916" transform="translate(128.053 253.342)"/><rect class="d" width="157.762" height="8.065" transform="translate(128.053 298.718)"/><rect class="c" width="183.688" height="12.121" transform="translate(92.9 248.728)"/><rect class="b" width="41.546" height="139.569" transform="translate(318.133 388.297) rotate(180)"/><rect class="c" width="6.855" height="139.569" transform="translate(283.443 388.297) rotate(180)"/><rect class="c" width="215.663" height="71.314" transform="translate(408.293 172.634) rotate(90)"/><rect class="d" width="63.487" height="63.487" transform="translate(404.379 178.031) rotate(90)"/><rect class="d" width="63.487" height="63.487" transform="translate(404.379 247.222) rotate(90)"/><rect class="d" width="63.487" height="63.487" transform="translate(404.379 316.402) rotate(90)"/><rect class="e" width="63.487" height="24.965" transform="translate(365.87 178.043) rotate(90)"/><rect class="e" width="63.487" height="24.965" transform="translate(365.858 247.222) rotate(90)"/><rect class="e" width="63.487" height="24.965" transform="translate(365.87 316.413) rotate(90)"/><rect class="b" width="215.663" height="19.367" transform="translate(427.66 172.623) rotate(90)"/><rect class="c" width="215.663" height="71.314" transform="translate(484.541 172.634) rotate(90)"/><rect class="d" width="63.487" height="63.487" transform="translate(480.615 178.043) rotate(90)"/><rect class="d" width="63.487" height="63.487" transform="translate(480.627 247.222) rotate(90)"/><rect class="d" width="63.487" height="63.487" transform="translate(480.627 316.413) rotate(90)"/><rect class="e" width="63.487" height="24.965" transform="translate(442.118 178.043) rotate(90)"/><rect class="e" width="63.487" height="24.965" transform="translate(442.106 247.222) rotate(90)"/><rect class="e" width="63.487" height="24.965" transform="translate(442.106 316.402) rotate(90)"/><rect class="b" width="215.663" height="19.367" transform="translate(503.909 172.634) rotate(90)"/><circle class="b" cx="16.391" cy="16.391" r="16.391" transform="translate(425.7 225.124) rotate(-45)"/><path class="c" d="M336.473,303.16a16.4,16.4,0,0,1-32.793,0Z" transform="translate(56.485 -8.842)"/><path class="c" d="M336.474,292.82a16.4,16.4,0,1,1-32.793,0Z" transform="translate(56.484 -10.765)"/><rect class="c" width="51.544" height="54.331" transform="translate(472.989 379.888) rotate(180)"/><rect class="e" width="7.626" height="54.331" transform="translate(472.989 325.558)"/><rect class="d" width="20.494" height="79.415" transform="translate(455.354 172.634) rotate(180)"/><path class="c" d="M319.81,215.139h68.017L398.1,122.18H330.081Z" transform="translate(59.485 -42.504)"/><path class="b" d="M313.6,215.139h70.247L394.13,122.18H323.871Z" transform="translate(58.33 -42.504)"/><path class="f" d="M358.223,215.139h13.639L356.147,122.18H342.52Z" transform="translate(63.709 -42.504)"/><path class="f" d="M347.984,215.139h5.29L337.56,122.18h-5.29Z" transform="translate(61.803 -42.504)"/><rect class="a" width="178.695" height="160.11" transform="translate(244.245 38.355) rotate(90)"/><rect class="e" width="178.695" height="1.447" transform="translate(245.692 38.343) rotate(90)"/><rect class="b" width="136.39" height="154.975" transform="translate(232.385 205.178) rotate(180)"/><rect class="g" width="38.415" height="53.761" transform="translate(213.362 213.48) rotate(180)"/><path class="g" d="M100.01,227.471h38.4l2.763-53.761h-38.4Z" transform="translate(18.602 -32.92)"/><path class="g" d="M165.59,146.813h38.4l2.763-53.773h-38.4Z" transform="translate(30.8 -47.924)"/><rect class="g" width="38.403" height="53.761" transform="translate(184.295 131.342) rotate(-177.49)"/><rect class="g" width="38.403" height="53.761" transform="translate(129.325 113.615) rotate(178.34)"/></g><g transform="translate(66.547 470.006)"><ellipse class="b" cx="229.954" cy="13.426" rx="229.954" ry="13.426" transform="translate(0 0)"/></g><g transform="translate(125.981 152.466)"><path class="h" d="M154.92,411.678h9.168l3.665-21.218h-9.168Z" transform="translate(-97.166 -90.069)"/><path class="h" d="M109.49,411.678h9.168l8.373-21.218h-9.168Z" transform="translate(-105.616 -90.069)"/><path class="i" d="M120.546,407.46H109.374a.854.854,0,0,0-.807.617l-2.289,8.148a1.257,1.257,0,0,0,1.186,1.625c3.558-.059,6.238-.273,10.757-.273,2.787,0,8.5.3,12.358.3s4.566-3.807,3.012-4.151c-6.974-1.542-9.488-3.677-11.647-5.7a2.111,2.111,0,0,0-1.4-.557Z" transform="translate(-106.224 -86.907)"/><path class="i" d="M164.7,407.46h-10a.866.866,0,0,0-.818.617l-2.277,8.148a1.245,1.245,0,0,0,1.186,1.625c3.558-.059,8.836-.273,13.366-.273,5.313,0,9.868.3,16.094.3,3.76,0,5.017-3.807,3.463-4.151-7.116-1.566-12.916-1.732-18.881-5.55a4.044,4.044,0,0,0-2.135-.712Z" transform="translate(-97.793 -86.907)"/><path class="h" d="M163.442,187.09c4.839,3.036,9.927,6.1,14.944,9s10.117,5.728,15.216,8.172c1.269.629,2.538,1.186,3.807,1.755.629.285,1.257.51,1.886.771l.949.391.771.285a9.262,9.262,0,0,0,5.183.652,9.559,9.559,0,0,0,4.922-3.048,23,23,0,0,0,2.289-2.894c.356-.534.7-1.091,1.02-1.66l.913-1.672,6.713,1.542a24.818,24.818,0,0,1-.439,2.657c-.19.83-.4,1.66-.664,2.491a24.007,24.007,0,0,1-2.1,4.886,20.945,20.945,0,0,1-3.558,4.59,17.458,17.458,0,0,1-5.242,3.558,17.718,17.718,0,0,1-6.345,1.447,21.217,21.217,0,0,1-6.084-.6c-.451-.107-1-.225-1.376-.356l-1.186-.368c-.771-.249-1.566-.486-2.313-.759-1.494-.557-3.036-1.079-4.471-1.7a166.223,166.223,0,0,1-16.734-8.053c-2.692-1.471-5.349-2.977-7.958-4.566s-5.183-3.155-7.8-4.922Z" transform="translate(-97.006 -127.897)"/><path class="i" d="M150.655,196.164c1.815,8.753,23.839,21.348,23.839,21.348l8.029-21.1s-6.274-3.926-15.643-10.188S148.651,186.557,150.655,196.164Z" transform="translate(-98.013 -128.514)"/><path class="h" d="M203.85,201.418l6.369-10,4.744,10.887s-3.771,5.717-9.595,2.775Z" transform="translate(-88.065 -127.091)"/><path class="h" d="M217.344,188.23l3.119,8.16-6.487,6.5-4.756-10.876Z" transform="translate(-87.066 -127.685)"/><path class="j" d="M167.474,390.47l-1.9,10.935H156.42l1.886-10.935Z" transform="translate(-96.887 -90.068)"/><path class="j" d="M117.227,390.47h9.168L122.066,401.4H112.91Z" transform="translate(-104.98 -90.068)"/><path class="k" d="M167.564,184.116s12.726,26.234,6.274,79.035l-48.626,6.381c-.878-7.472,1.186-44.748-8.622-79.2a131.857,131.857,0,0,1,16.118-4.21,179.7,179.7,0,0,1,20.648-2.7,89.305,89.305,0,0,1,14.208.7Z" transform="translate(-104.295 -128.588)"/><path class="j" d="M116.63,189.3l.213-.071c4.744-1.328,10.211,3.677,13.129,10.982,4.258,10.674,9.275,24.752,9.275,24.752l-15.715,3.76A216.649,216.649,0,0,0,116.63,189.3Z" transform="translate(-104.288 -127.538)"/><path class="h" d="M130.564,165.73c1.791,6.523,3.973,18.62-.344,23.72a36.612,36.612,0,0,0,19.7,8.3c4.542-4.827.949-10.994.949-10.994-7.543-.818-7.745-6.381-6.831-11.753Z" transform="translate(-101.76 -131.87)"/><path class="l" d="M166.132,243.906h0l-10.9-60.486h0a15.513,15.513,0,0,0-12.524,18.015l5.4,29.982A15.525,15.525,0,0,0,166.132,243.906Z" transform="translate(-99.483 -128.579)"/><path class="m" d="M166.132,243.906h0l-10.9-60.486h0a15.513,15.513,0,0,0-12.524,18.015l5.4,29.982A15.525,15.525,0,0,0,166.132,243.906Z" transform="translate(-99.483 -128.579)"/><path class="n" d="M201.056,297.495l-7.638,1.376a9.405,9.405,0,0,1-11.054-8.765l-3.143-60.486a9.381,9.381,0,0,1,7.721-9.737l14.125-2.55a9.405,9.405,0,0,1,10.852,11.208l-5.681,26.59a9.487,9.487,0,0,0-.166,2.787l2.633,29.5a9.393,9.393,0,0,1-7.65,10.081Z" transform="translate(-92.648 -122.299)"/><path class="j" d="M201.068,217.313l-14.125,2.538a9.4,9.4,0,0,0-7.721,9.737l1.032,20.079q13.971-2.372,28.013-3.949L211.92,228.5a9.393,9.393,0,0,0-10.852-11.184Z" transform="translate(-92.648 -122.303)"/><path class="n" d="M209.494,268.355l-12.844,2.3.107-22.273L209.6,246.07Z" transform="translate(-89.404 -116.926)"/><path class="l" d="M209.715,256.863c0,6.155-.9,11.3-1.945,11.48s-1.874-4.637-1.85-10.793.9-11.291,1.957-11.48S209.751,250.732,209.715,256.863Z" transform="translate(-87.68 -116.927)"/><path class="o" d="M209.715,256.863c0,6.155-.9,11.3-1.945,11.48s-1.874-4.637-1.85-10.793.9-11.291,1.957-11.48S209.751,250.732,209.715,256.863Z" transform="translate(-87.68 -116.927)"/><path class="n" d="M165.286,176.744h0a16.213,16.213,0,0,0-13.046,18.81l9.654,53.643a16.2,16.2,0,0,0,18.81,13.046h0a481.44,481.44,0,0,1,95.556-7.484l32.935.723L288.109,138.27l-30.623,12.157a480.532,480.532,0,0,1-92.2,26.317Z" transform="translate(-97.712 -136.977)"/><path class="p" d="M234.5,151.277l18.217,101.3h4.815L238.983,149.51C237.465,150.174,235.994,150.743,234.5,151.277Z" transform="translate(-82.364 -134.887)"/><path class="l" d="M282.427,196.052c5.823,32.366,8.3,59,5.574,59.5s-9.69-25.345-15.513-57.711-8.3-59-5.574-59.5S276.6,163.627,282.427,196.052Z" transform="translate(-76.541 -136.965)"/><path class="q" d="M282.427,196.052c5.823,32.366,8.3,59,5.574,59.5s-9.69-25.345-15.513-57.711-8.3-59-5.574-59.5S276.6,163.627,282.427,196.052Z" transform="translate(-76.541 -136.965)"/><path class="j" d="M135.158,168.91l7.97,5.467a21.825,21.825,0,0,0-.368,3.771c-2.858,0-6.974-2.657-7.5-5.6A10.152,10.152,0,0,1,135.158,168.91Z" transform="translate(-100.863 -131.278)"/><path class="i" d="M141.344,143.283c4.815.439,12.073,13.378,7.246,17.932S132.224,142.441,141.344,143.283Z" transform="translate(-100.325 -136.049)"/><path class="h" d="M126.656,161.53c2.811,8.539,4.009,13.7,9.583,16.758,8.373,4.6,18.122-2.823,17.944-12.18-.154-8.421-4.744-20.969-14.161-21.7a13.176,13.176,0,0,0-13.366,17.126Z" transform="translate(-102.537 -135.841)"/><path class="i" d="M151.171,143.027a29.081,29.081,0,0,0-7.116-.557,29.117,29.117,0,0,0,3.76-4.21,23.72,23.72,0,0,1-7.318,3.356,11.861,11.861,0,0,0,.806-3.416c-1.815,2.182-4.9,3.665-8.231,4.91a19.225,19.225,0,0,0,3.238-5.93c-2.076,3.831-9.868,7.116-14.778,10.378h-.071a7.994,7.994,0,0,0-.984.688h0a3.985,3.985,0,0,0-1.02,1.044,4.874,4.874,0,0,0,.83,7.27,4.637,4.637,0,0,0-1.482,5.823c-.071-1.66.32-3.475,1.518-4.21-2.016,5.835,4.744,11.338,10.769,12.892,3.558.9,5.74-12.714,2.372-18.1,4.566-.581,8.468-1.72,10.8-3.333a12.05,12.05,0,0,1-5.456.463c4.388-1.732,9.108-4.175,12.833-3.558a15.94,15.94,0,0,0-5.6-.961,10.971,10.971,0,0,1,3.973-.818c4,.166,6.63,3.558,5.61,5.835C157.16,148.139,156.6,144.177,151.171,143.027Z" transform="translate(-103.996 -137.18)"/><path class="h" d="M125.556,169.1a8.16,8.16,0,0,0,6.143,2c3-.285,3.558-3.273,1.992-5.574-1.447-2.064-4.744-4.412-7.4-2.977a4,4,0,0,0-.735,6.547Z" transform="translate(-102.884 -132.543)"/><path class="l" d="M169.867,250.66s24.906,68.468,22.261,96.4c-2.716,29.069-19.545,78.276-19.545,78.276H157.058s9.108-47.44,10.081-76.011c1.056-31.109-27.456-70.449-29.2-94.418Z" transform="translate(-100.324 -116.072)"/><path class="j" d="M143.723,270.688a6.832,6.832,0,0,0-1.8-.818c5.456,14.695,14.291,31.832,19.723,48.555C162.236,290.779,156.247,278.468,143.723,270.688Z" transform="translate(-99.584 -112.499)"/><path class="l" d="M157.791,252.57s7.116,67.721-.107,93.943C149.773,375.238,127,424.932,127,424.932H110.22s14.612-47.321,19.83-75.786c5.669-30.836-1.933-69.512-3.558-92.437Z" transform="translate(-105.48 -115.717)"/><path class="l" d="M130.2,399.2H108.89l1.435-6.286h22.819Z" transform="translate(-105.728 -89.614)"/><path class="r" d="M130.2,399.2H108.89l1.435-6.286h22.819Z" transform="translate(-105.728 -89.614)"/><path class="l" d="M173.357,399.2H152.27l.344-5.977,21.917-.308Z" transform="translate(-97.659 -89.614)"/><path class="r" d="M173.357,399.2H152.27l.344-5.977,21.917-.308Z" transform="translate(-97.659 -89.614)"/><path class="i" d="M138.281,157.58c.178.7.712,1.186,1.186,1.008a1.264,1.264,0,0,0,.51-1.554c-.178-.712-.712-1.186-1.186-1.008A1.251,1.251,0,0,0,138.281,157.58Z" transform="translate(-100.273 -133.682)"/><path class="i" d="M145.007,155.409c.19.712.712,1.186,1.186,1.02a1.251,1.251,0,0,0,.51-1.554c-.19-.7-.712-1.186-1.186-1.02S144.876,154.7,145.007,155.409Z" transform="translate(-99.018 -134.084)"/><path class="s" d="M143,156.15a24.289,24.289,0,0,0,4.969,4.969,4.448,4.448,0,0,1-3.238,1.72Z" transform="translate(-99.383 -133.652)"/><path class="i" d="M144,164.184a5.93,5.93,0,0,1-5.562-.806.214.214,0,0,1,.3-.308,5.622,5.622,0,0,0,5.171.723.2.2,0,0,1,.261.142.237.237,0,0,1-.166.249Z" transform="translate(-100.243 -132.376)"/><path class="i" d="M135.746,156.33a.533.533,0,0,1-.273,0,.415.415,0,0,1-.237-.557,4.637,4.637,0,0,1,2.953-2.811.415.415,0,0,1,.51.32.486.486,0,0,1-.344.534h0a3.7,3.7,0,0,0-2.372,2.242.5.5,0,0,1-.237.273Z" transform="translate(-100.834 -134.247)"/><path class="i" d="M148,152.232a.427.427,0,0,1-.439-.107,3.238,3.238,0,0,0-2.846-1.186.391.391,0,0,1-.474-.344.474.474,0,0,1,.368-.51,4,4,0,0,1,3.558,1.388.451.451,0,0,1,0,.617A.344.344,0,0,1,148,152.232Z" transform="translate(-99.153 -134.786)"/><path class="h" d="M126.99,195.5c1.02,3.973,2.087,8.148,3.238,12.192s2.3,8.112,3.558,12.1,2.657,7.922,4.139,11.741a74.574,74.574,0,0,0,5.017,10.674c.237.368.463.795.7,1.127l.368.534.178.261h0a5.207,5.207,0,0,0,1.186,1.056,35.861,35.861,0,0,0,4.744,2.775c3.558,1.767,7.436,3.392,11.35,4.922,7.851,3.06,15.987,5.93,24.052,8.682l-1.566,6.7a222.351,222.351,0,0,1-25.807-5.313,118.6,118.6,0,0,1-12.856-4.222,44.928,44.928,0,0,1-6.689-3.273,17.886,17.886,0,0,1-3.8-3.048l-.534-.569-.3-.38-.6-.783c-.415-.522-.735-1.032-1.1-1.554A77.256,77.256,0,0,1,125.6,236.7c-1.85-4.139-3.416-8.3-4.874-12.536a238.386,238.386,0,0,1-7.318-25.511Z" transform="translate(-104.887 -126.332)"/><path class="k" d="M112.28,194.36c-4.507,10.508,2.823,34.477,2.823,34.477l21.941-5.634a181.142,181.142,0,0,0-5.847-24.989C127.4,186.983,115.778,186.271,112.28,194.36Z" transform="translate(-105.37 -127.552)"/><path class="l" d="M121.176,409.174a10.5,10.5,0,0,1-2.372-.332.213.213,0,0,1-.154-.178.237.237,0,0,1,.119-.214c.344-.213,3.4-2.028,4.388-1.506a.64.64,0,0,1,.332.617,1.388,1.388,0,0,1-.51,1.186A2.87,2.87,0,0,1,121.176,409.174Zm-1.732-.64a4.471,4.471,0,0,0,3.262-.166.937.937,0,0,0,.344-.783.285.285,0,0,0-.13-.261C122.41,407.028,120.678,407.846,119.445,408.534Z" transform="translate(-103.912 -87.021)"/><path class="l" d="M118.842,409.174h-.107a.2.2,0,0,1-.095-.19c0-.119.391-2.763,1.506-3.629a1.186,1.186,0,0,1,.937-.273.652.652,0,0,1,.664.557c.13,1.032-1.815,3.036-2.8,3.558A.154.154,0,0,1,118.842,409.174Zm2.076-3.712a.854.854,0,0,0-.51.19,5.574,5.574,0,0,0-1.257,2.87c.984-.712,2.242-2.23,2.159-2.835,0,0,0-.178-.3-.213Z" transform="translate(-103.914 -87.352)"/><path class="l" d="M166.254,409.174a15.153,15.153,0,0,1-2.858-.332.19.19,0,0,1-.166-.178.225.225,0,0,1,.13-.225c.427-.213,4.21-2.087,5.29-1.459a.652.652,0,0,1,.332.569,1.293,1.293,0,0,1-.474,1.056,3.558,3.558,0,0,1-2.253.569Zm-2.123-.64c2,.332,3.558.249,4.1-.249a.842.842,0,0,0,.308-.7.237.237,0,0,0-.119-.225c-.593-.332-2.74.451-4.281,1.174Z" transform="translate(-95.62 -87.02)"/><path class="l" d="M163.432,409.18a.2.2,0,0,1-.119,0,.214.214,0,0,1-.083-.2,6.547,6.547,0,0,1,1.625-3.558,1.7,1.7,0,0,1,1.186-.38c.593.071.747.368.783.617.107,1.032-2.206,3.012-3.333,3.558Zm2.455-3.712a1.186,1.186,0,0,0-.771.285,5.384,5.384,0,0,0-1.376,2.823c1.186-.676,2.752-2.23,2.68-2.858,0,0,0-.2-.4-.237Z" transform="translate(-95.621 -87.358)"/><path class="h" d="M173.132,251.306,182.3,249.8l-3.688,11.4s-7.994-.463-7.982-4.827Z" transform="translate(-94.244 -116.232)"/><path class="h" d="M189.73,254.034l-3.511,9.2-8.859-2.04,3.688-11.4Z" transform="translate(-92.992 -116.232)"/></g><g transform="translate(339.524 104.381)"><path class="l" d="M412.056,152.252l-13.437-49.931a7.673,7.673,0,0,0-9.4-5.42l-97.252,26.092a7.685,7.685,0,0,0-5.42,9.417l13.426,49.931a7.685,7.685,0,0,0,9.4,5.432l13.722-3.688,18.893,10.876-4.021-14.872,68.669-18.454a7.685,7.685,0,0,0,5.42-9.381Z" transform="translate(-286.276 -96.636)"/><path class="j" d="M412.056,152.252l-13.437-49.931a7.673,7.673,0,0,0-9.4-5.42l-97.252,26.092a7.685,7.685,0,0,0-5.42,9.417l13.426,49.931a7.685,7.685,0,0,0,9.4,5.432l13.722-3.688,18.893,10.876-4.021-14.872,68.669-18.454a7.685,7.685,0,0,0,5.42-9.381Z" transform="translate(-286.276 -96.636)"/><path class="l" d="M437.655,239.487l5.195-33.8A5.076,5.076,0,0,0,438.6,199.9l-65.871-10.128a5.064,5.064,0,0,0-5.788,4.246l-5.207,33.8a5.076,5.076,0,0,0,4.246,5.788l9.286,1.435,8.527,11.623,1.554-10.081L431.82,243.7a5.076,5.076,0,0,0,5.835-4.21Z" transform="translate(-272.251 -79.324)"/><path class="t" d="M437.655,239.487l5.195-33.8A5.076,5.076,0,0,0,438.6,199.9l-65.871-10.128a5.064,5.064,0,0,0-5.788,4.246l-5.207,33.8a5.076,5.076,0,0,0,4.246,5.788l9.286,1.435,8.527,11.623,1.554-10.081L431.82,243.7a5.076,5.076,0,0,0,5.835-4.21Z" transform="translate(-272.251 -79.324)"/><path class="k" d="M446.424,196.193l-8.468-60.486a9.085,9.085,0,0,0-10.259-7.733L309.8,144.459a9.085,9.085,0,0,0-7.733,10.259l8.468,60.486a9.061,9.061,0,0,0,10.247,7.733l16.6-2.372L357.96,236.09l-2.526-18.051L438.656,206.4a9.1,9.1,0,0,0,7.768-10.211Z" transform="translate(-283.356 -90.824)"/><path class="g" d="M318.43,164.745l6.677-.937,10.5,11.575-1.791-12.8,6.736-.937,3.238,23.127-6.736.949-10.437-11.492,1.779,12.7-6.725.937Z" transform="translate(-280.295 -84.543)"/><path class="g" d="M341.07,161.51l19.166-2.68.688,4.946-11.99,1.672.51,3.677,11.125-1.554.664,4.744-11.125,1.554.629,4.554,12.346-1.72.735,5.23-19.51,2.728Z" transform="translate(-276.084 -85.068)"/><path class="g" d="M358.76,159.331l6.784-.949,4.258,12.607,1.767-13.449,6.76-.949,5.4,12.429.64-13.271,6.748-.949-1.862,23.85-7.009.973-6.1-13.995-2,15.133-7.009.973Z" transform="translate(-272.794 -85.818)"/><path class="g" d="M388.864,170.492l6.748-1.376a5.219,5.219,0,0,0,1.186,2.372,3.855,3.855,0,0,0,3.356.961,3.487,3.487,0,0,0,2.253-1.056,2.182,2.182,0,0,0,.6-1.779,2.159,2.159,0,0,0-1.02-1.494,9.18,9.18,0,0,0-3.843-.83,15.774,15.774,0,0,1-7.116-1.874,5.717,5.717,0,0,1-2.645-4.175,6.12,6.12,0,0,1,.569-3.558,6.962,6.962,0,0,1,2.752-2.929,14.694,14.694,0,0,1,5.562-1.7,11.86,11.86,0,0,1,7,.7,7.187,7.187,0,0,1,3.5,4.863l-6.677,1.34a3.689,3.689,0,0,0-1.447-2.123,3.748,3.748,0,0,0-2.479-.38,2.87,2.87,0,0,0-1.8.795,1.649,1.649,0,0,0-.451,1.376,1.3,1.3,0,0,0,.664.925,5.989,5.989,0,0,0,2.514.51,30.468,30.468,0,0,1,7,1.1,7.2,7.2,0,0,1,3.309,2.159,6.559,6.559,0,0,1,1.4,3.3,7.377,7.377,0,0,1-.652,4.27,7.8,7.8,0,0,1-3.036,3.333,14.006,14.006,0,0,1-5.444,1.743q-5.93.83-8.492-1.186a9.12,9.12,0,0,1-3.309-5.29Z" transform="translate(-267.294 -86.186)"/></g></g></svg>