<svg xmlns="http://www.w3.org/2000/svg" xmlns:xlink="http://www.w3.org/1999/xlink" width="300" height="378" viewBox="0 0 300 378">
  <defs>
    <clipPath id="clip-path">
      <rect id="Rectangle_122" data-name="Rectangle 122" width="262.966" height="357.135" fill="none"/>
    </clipPath>
    <clipPath id="clip-Cebuana-PayAfter-Original">
      <rect width="300" height="378"/>
    </clipPath>
  </defs>
  <g id="Cebuana-PayAfter-Original" clip-path="url(#clip-Cebuana-PayAfter-Original)">
    <g id="Artwork_1" data-name="Artwork 1" transform="translate(150 189)">
      <g id="Group_138" data-name="Group 138" transform="translate(-131.483 -178.568)" clip-path="url(#clip-path)">
        <path id="Path_2805" data-name="Path 2805" d="M182.116,37.59a3.958,3.958,0,0,0,.132-1.451c0-4.222,0-8.444-.132-12.535a35.624,35.624,0,0,0-.264-3.958c-.264-2.243-1.056-2.9-3.3-3.3h-1.188a.792.792,0,0,1-.792-.924c0-.66.132-1.056.924-.924,4.09.132,8.049.132,12.139,0,.528,0,.924.132.924.66s.132,1.188-.66,1.188h-1.056a3.035,3.035,0,0,0-2.771,2.771,33.515,33.515,0,0,0-.528,5.938c-.132,7.917-.132,15.965,0,23.882,0,1.188-.132,1.451-1.451,1.847s-1.715.4-2.375-.4c-4.75-6.6-10.16-12.8-15.174-19.132l-5.674-6.993a6.466,6.466,0,0,0-1.319-1.451c-.528.4-.4.924-.4,1.451,0,6.333-.264,12.8.264,19.132a14.539,14.539,0,0,0,.264,2.375,2.639,2.639,0,0,0,2.111,2.375l1.979.4c.924.132,1.187.528,1.056,1.319s-.66.792-1.187.792c-5.938-.264-12.007,0-17.945,0h-9.5c-.66,0-1.187,0-1.319-.792s.132-.924.66-1.056l1.583-.264c1.188-.264,1.451-.66,1.056-1.715l-2.243-7.257a1.583,1.583,0,0,0-1.715-1.319H126.3a1.188,1.188,0,0,0-1.319.924L122.608,46.3c-.792,2.375-.264,1.715,1.188,2.111l1.847.4c.792.132.792.66.792,1.319s-.4.66-.924.66H114.956c-.66,0-1.056-.132-1.056-.792a1.067,1.067,0,0,1,1.056-1.188l1.451-.264a3.958,3.958,0,0,0,2.639-2.639l3.3-8.444,6.2-16.757a9.631,9.631,0,0,0,.792-3.167.792.792,0,0,1,.66-.792,9.368,9.368,0,0,0,3.431-2.375c1.056-1.056,1.583-.924,2.111.528s1.847,5.542,2.771,8.313L145.7,43.659l.528,1.188c.528,1.188.924,2.507,2.375,3.035a6.861,6.861,0,0,0,5.278-.132,2.375,2.375,0,0,0,1.319-1.715,16.625,16.625,0,0,0,.528-3.826c.264-7.521.132-14.91,0-22.431,0-2.375-.924-3.431-3.3-3.694h-1.056c-.792,0-.924-.528-.792-1.056s.264-.924.924-.924h10.688a1.188,1.188,0,0,1,1.319.792,14.778,14.778,0,0,0,2.243,3.694c4.882,6.333,10.16,12.271,15.438,18.34.264.264.4.66.924.528M130.789,22.944l-.264.4L126.963,33.9c-.264.924-.132,1.188.924,1.319h5.542c1.187,0,1.319-.264,1.056-1.319-1.187-3.563-2.243-7.125-3.562-10.819" transform="translate(36.385 4.369)" fill="#003a63"/>
        <path id="Path_2806" data-name="Path 2806" d="M0,34.285A26.257,26.257,0,0,1,48.953,20.563a1.793,1.793,0,0,1,.4,1.979,1.583,1.583,0,0,1-2.771.528l-.528-.66c-5.278-6.729-12.139-9.5-20.451-7.653s-13.458,7.257-15.174,15.7A19.792,19.792,0,0,0,28.237,53.813a19.4,19.4,0,0,0,17.945-8.181c.4-.528.792-1.188,1.583-1.056a1.583,1.583,0,0,1,1.451,2.243l-.4.792A26.389,26.389,0,0,1,.4,39.035a24.014,24.014,0,0,1-.4-4.75" transform="translate(-0.001 2.396)" fill="#003a63"/>
        <path id="Path_2807" data-name="Path 2807" d="M75.715,50.266H65.688c-.528,0-1.187.132-1.187-.66s.132-1.188.924-1.319l1.583-.4a2.243,2.243,0,0,0,1.979-2.243c0-.66.132-1.319.132-2.111V20.842a19.4,19.4,0,0,0-.132-2.111c-.132-1.451-.528-1.847-1.979-2.111H65.951c-.924-.132-1.187-.528-1.056-1.188a1.183,1.183,0,0,1,1.319-.924l4.09-.264c4.09-.132,8.181-.264,12.271-.132a17.681,17.681,0,0,1,6.729,1.451,7.389,7.389,0,0,1,4.618,6.729,6.861,6.861,0,0,1-4.882,7.257l-1.319.4a.421.421,0,0,0-.4.4c0,.264.264.264.4.4l1.847.528A8.708,8.708,0,0,1,95.9,39.974a9.1,9.1,0,0,1-6.2,8.972,22.958,22.958,0,0,1-6.333,1.319,53.041,53.041,0,0,1-7.785.132m.924-12.007h0v4.09a9.5,9.5,0,0,0,.4,2.507A3.562,3.562,0,0,0,79.014,47.5a5.938,5.938,0,0,0,7.653-2.9,9.9,9.9,0,0,0,0-8.181,6.333,6.333,0,0,0-3.826-3.563,10.819,10.819,0,0,0-5.146-.528c-1.056.132-1.187.264-1.319,1.451s0,3.035,0,4.618m0-14.91h0V28.5c0,1.715.264,1.319,1.056,1.319a12.8,12.8,0,0,0,4.09-.264,5.41,5.41,0,0,0,4.09-4.75,11.477,11.477,0,0,0,0-1.715,6.465,6.465,0,0,0-7.389-6.6c-1.451.132-1.847.528-1.847,1.979v5.014" transform="translate(20.604 4.491)" fill="#003a63"/>
        <path id="Path_2808" data-name="Path 2808" d="M54,50.288H40.275c-.924,0-1.319-.4-1.056-1.188a.792.792,0,0,1,.792-.66l2.771-.4a2.111,2.111,0,0,0,1.847-1.979,13.326,13.326,0,0,0,.132-1.979q0-11.875,0-23.75v-.528c-.132-2.639-.4-3.035-3.035-3.694-.4-.132-.924-.132-1.188-.528a1.188,1.188,0,0,1,0-1.188c.264-.528.66-.4,1.188-.4H66.664c.792,0,1.056.264,1.056.924s.4,4.354.528,6.465.264,1.188-.66,1.451S66.4,22.712,66,21.788l-.66-1.583a5.146,5.146,0,0,0-4.618-3.431,60.563,60.563,0,0,0-6.993-.132A.924.924,0,0,0,52.678,17.7q0,.4,0,.792v9.9c0,3.3.132,1.583,1.583,1.583h4.882a2.507,2.507,0,0,0,2.639-2.111l.4-1.451c.264-.924.66-1.187,1.451-.924s.66.264.66.792v.4a71.646,71.646,0,0,0,0,9.764c.132,1.056-.4,1.451-1.319,1.319a.792.792,0,0,1-.792-.792l-.4-1.847a2.375,2.375,0,0,0-2.243-1.979A46.444,46.444,0,0,0,53.865,33c-.924,0-1.056.264-1.056,1.188,0,3.167-.132,6.465.132,9.632a7.917,7.917,0,0,0,.264,1.451,2.771,2.771,0,0,0,2.243,2.111l1.451.264h5.014a6.069,6.069,0,0,0,5.014-2.639,20.715,20.715,0,0,0,1.847-3.035,1.187,1.187,0,0,1,1.056-.792,1.05,1.05,0,0,1,1.188,1.188,32.59,32.59,0,0,1-1.979,7.521c-.264.528-.528.528-1.056.528H54" transform="translate(12.503 4.469)" fill="#003a63"/>
        <path id="Path_2809" data-name="Path 2809" d="M93.562,29.309V19.941c-.264-2.771-.132-3.431-3.3-3.958-.4-.132-.924,0-1.056-.66s.132-1.451.924-1.319c4.882.132,9.9.132,14.778,0,.528,0,.792.132.924.792s0,1.056-.66,1.188l-1.583.264a2.243,2.243,0,0,0-1.979,1.979,14.119,14.119,0,0,0-.264,2.243V36.434a22.562,22.562,0,0,0,.66,5.146,8.576,8.576,0,0,0,16.1,1.451,16.361,16.361,0,0,0,1.319-6.069,149.625,149.625,0,0,0-.264-16.361v-.528c-.264-2.507-.924-3.167-3.431-3.694l-1.056-.264c-.792-.132-.924-.66-.792-1.319s.528-.66,1.056-.66q5.938.2,11.875,0c.528,0,1.056,0,1.056.66s0,1.056-.792,1.188l-1.583.4a2.771,2.771,0,0,0-2.111,2.375,36.681,36.681,0,0,0-.528,6.069v10.16a28.37,28.37,0,0,1-.528,5.542c-1.188,5.938-4.222,8.972-10.16,10.16a22.035,22.035,0,0,1-9.632-.4A10.688,10.688,0,0,1,94.09,40.92a34.834,34.834,0,0,1-.4-5.542V29.309" transform="translate(28.487 4.469)" fill="#003a63"/>
        <path id="Path_2810" data-name="Path 2810" d="M200.06,50.5h-7.125c-.528,0-1.187,0-1.187-.792s.132-1.188,1.056-1.319l1.715-.4a.924.924,0,0,0,.66-1.188l-2.507-7.917c-.264-.924-1.056-.924-1.847-.924h-7.653a1.187,1.187,0,0,0-1.319.924c-.792,2.375-1.583,4.882-2.375,7.257s-.264,1.451,1.188,1.847l1.979.4c.66.132.924.528.792,1.319s-.528.66-.924.66H171.956c-.66,0-1.056-.132-1.056-.924s.264-1.056,1.056-1.056a6.577,6.577,0,0,0,4.354-3.563c3.3-8.444,6.333-16.889,9.5-25.333.4-.924.264-2.111.792-2.771s1.583-.792,2.375-1.451l1.715-1.583c.66-.528,1.056-.528,1.583.264a4.884,4.884,0,0,1,.264.792c3.167,10.028,6.861,19.924,10.292,29.82l.528,1.319a3.431,3.431,0,0,0,3.035,2.243h1.188c.792.132.792.66.792,1.188s-.4.792-1.056.792H200.06Zm-12.8-27.313-.528,1.319-3.167,9.1c-.4,1.319-.264,1.583,1.056,1.583H189.9c1.187,0,1.319-.264,1.056-1.319-1.056-3.431-2.111-6.861-3.431-10.292,0-.132-.132-.264-.4-.264" transform="translate(54.594 4.255)" fill="#003a63"/>
        <path id="Path_2811" data-name="Path 2811" d="M104.326,67.372h-3.562c-.264,0-.66,0-.66-.4a.483.483,0,0,1,.528-.528,2.332,2.332,0,0,0,1.715-2.243V52.2c0-1.188-.264-2.243-1.715-2.243a.528.528,0,0,1-.528-.66c0-.4.4-.4.66-.4h6.861c.264,0,.66,0,.66.4a.6.6,0,0,1-.528.66,2.443,2.443,0,0,0-1.451,1.847v4.09c0,1.319.4,1.056,1.056,1.056h6.069c.66,0,.924-.264.924-.924V51.671c0-1.451-.132-1.319-1.319-1.715h-.528c-.264-.132-.264-.264-.264-.528a.4.4,0,0,1,.4-.4h7.389c.264,0,.528,0,.528.4a.528.528,0,0,1-.4.66c-1.451.132-1.583,1.188-1.583,2.375V64.338c0,1.715.132,1.715,1.715,2.243s.528.264.528.528-.4.528-.792.528h-6.993c-.264,0-.66,0-.66-.4a.528.528,0,0,1,.528-.528c1.451,0,1.583-1.056,1.583-2.111V59.983c0-1.583-.132-1.056-1.188-1.188h-5.806c-1.056,0-1.188.132-1.188,1.188v4.486c0,1.583.132,1.715,1.715,2.111s.66.132.66.66-.4.4-.66.4h-3.694Z" transform="translate(31.973 15.621)" fill="#e64037"/>
        <path id="Path_2812" data-name="Path 2812" d="M190.939,48.925a19.792,19.792,0,0,1,5.806.264,4.75,4.75,0,0,1,3.958,5.146,4.222,4.222,0,0,1-2.243,3.431c-.924.66-.924.66-.528,1.583a37.87,37.87,0,0,0,2.375,4.354,5.146,5.146,0,0,0,3.035,2.639c.264,0,.528.264.4.528s-.264.4-.528.4a6.333,6.333,0,0,1-6.861-2.375,27.574,27.574,0,0,1-2.375-4.486,1.715,1.715,0,0,0-1.715-1.188c-.528,0-.924.132-.924.792v5.014a1.187,1.187,0,0,0,.924,1.188h.66a.528.528,0,0,1,.4.66c0,.264-.264.4-.528.4h-7.257c-.264,0-.528,0-.528-.4a.528.528,0,0,1,.264-.528h.132c1.715-.132,1.847-1.319,1.847-2.639V52.619a3.653,3.653,0,0,0-.132-1.188,1.188,1.188,0,0,0-1.056-1.187h.264c-.4,0-.66-.132-.66-.66s.528-.4.792-.528h4.486m.792,5.146v2.9a.792.792,0,0,0,.66.924,3.431,3.431,0,0,0,3.431-.924,4.882,4.882,0,0,0-.4-5.938,3.7,3.7,0,0,0-2.375-.924c-.792,0-1.056.264-1.056,1.056v2.9" transform="translate(59.097 15.596)" fill="#e64037"/>
        <path id="Path_2813" data-name="Path 2813" d="M180.026,67.376H172.9a.462.462,0,0,1,0-.924l1.187-.264c1.056-.264,1.188-.4,1.319-1.451q.01-.2,0-.4,0-6.135,0-12.271c0-1.451-.132-1.451-1.451-1.979s-.792-.264-.66-.792.528-.4.924-.4h11.347c1.583,0,1.583,0,1.715,1.583a20.132,20.132,0,0,1,.132,2.375.4.4,0,0,1-.264.528.528.528,0,0,1-.66-.132l-.528-1.056a2.639,2.639,0,0,0-2.507-1.847H180.29a.66.66,0,0,0-.792.792v5.146c0,.528.264.66.792.66h1.715c1.583,0,1.583,0,2.243-1.583V55.1a.535.535,0,0,1,1.056.132,33.5,33.5,0,0,0,0,5.146.466.466,0,1,1-.924.132v-.264c-.66-1.715-.66-1.715-2.507-1.715s-2.243-.132-2.243,2.111a21.622,21.622,0,0,0,.132,3.431,1.91,1.91,0,0,0,1.847,1.979h2.111a3.826,3.826,0,0,0,3.694-2.243c.264-.528.4-1.319,1.188-1.187s.264,1.056.264,1.715a12.355,12.355,0,0,1-.528,2.111c-.132.66-.528.924-1.319.924h-6.465" transform="translate(55.099 15.618)" fill="#e64037"/>
        <path id="Path_2814" data-name="Path 2814" d="M119.123,56.752V52c0-1.583-.264-1.847-1.451-1.979l-.528-.264a.4.4,0,0,1-.132-.528l.264-.264h7.785c.4.132.4.4.132.66l-.528.264c-1.187.132-1.583.924-1.583,1.979,0,3.3-.132,6.6.132,9.9a7.653,7.653,0,0,0,.264,1.583,3.694,3.694,0,0,0,3.563,2.771,3.958,3.958,0,0,0,4.354-2.243,7.785,7.785,0,0,0,.792-3.167q.2-4.156,0-8.313c-.132-2.771-.264-1.979-1.979-2.639s-.66-.132-.66-.66.528-.4.792-.4h5.542c.264,0,.66,0,.66.4a.6.6,0,0,1-.528.66A3.219,3.219,0,0,0,134.3,52c-.132,1.188-.132,4.486-.132,6.6a20.054,20.054,0,0,1-.264,3.826,5.938,5.938,0,0,1-5.014,5.014,11.479,11.479,0,0,1-4.75,0,5.41,5.41,0,0,1-4.618-4.486,11.611,11.611,0,0,1-.264-2.375V56.62Z" transform="translate(37.363 15.554)" fill="#e64037"/>
        <path id="Path_2815" data-name="Path 2815" d="M20.045,6.342l-7.521.4h-.792c-.4,0-.792.132-.924-.264a1.094,1.094,0,0,1,.4-1.056A17.549,17.549,0,0,1,21.76.009a12.931,12.931,0,0,1,6.729,1.319A17.945,17.945,0,0,1,33.5,4.759l.792.924a.69.69,0,0,1-.528,1.056h-.924a103.311,103.311,0,0,0-12.931-.4" transform="translate(3.442 -0.009)" fill="#003a63"/>
        <path id="Path_2816" data-name="Path 2816" d="M159.789,67.312H152.8c-.264,0-.264-.264-.264-.4a.528.528,0,0,1,.132-.4h.528c1.583-.4,1.715-.4,1.715-1.979V52.27c0-1.583-.132-1.583-1.583-2.111s-.792-.132-.66-.66.528-.4.792-.4h7.125c.264,0,.66,0,.66.4s-.264.528-.66.66A2.072,2.072,0,0,0,159,52.27V63.486a5.937,5.937,0,0,0,.132,1.319,1.583,1.583,0,0,0,1.319,1.188,10.16,10.16,0,0,0,3.826,0,2.771,2.771,0,0,0,1.715-1.056l.924-1.319c.264-.4.4-1.056,1.056-.792s.264.792.264,1.188h0c-.528,3.3-.528,3.431-3.958,3.3h-4.486" transform="translate(48.684 15.681)" fill="#e64037"/>
        <path id="Path_2817" data-name="Path 2817" d="M147.621,67.276H140.5a.429.429,0,0,1,0-.792h.528c1.451-.264,1.583-.4,1.583-1.847q.132-6.333,0-12.667c0-1.451-.132-1.451-1.583-1.847s-.792-.132-.66-.528.4-.4.792-.4h7.125c.264,0,.66,0,.66.4s-.264.528-.528.66A2.691,2.691,0,0,0,146.7,52.5V63.45a6.461,6.461,0,0,0,0,.924c.132,1.319.528,1.715,1.847,1.979h2.639a3.3,3.3,0,0,0,2.771-1.715l.792-1.451a.528.528,0,0,1,.792-.264.66.66,0,0,1,.4.792,18.868,18.868,0,0,1-.924,3.431c-.264.66-.66.528-1.187.528h-6.333" transform="translate(44.755 15.717)" fill="#e64037"/>
        <path id="Path_2818" data-name="Path 2818" d="M95.054,67.344H87.8l-.264-.264a.4.4,0,0,1,.264-.528h.528c1.583-.4,1.715-.528,1.715-2.243V52.3c0-1.583-.132-1.715-1.715-2.243s-.66-.132-.66-.66.4-.4.66-.4h7.257c.264,0,.66,0,.66.4a.483.483,0,0,1-.528.528A2.921,2.921,0,0,0,94,52.17V63.254a7.522,7.522,0,0,0,.132,1.319,1.451,1.451,0,0,0,1.319,1.319,9.632,9.632,0,0,0,3.958,0,3.3,3.3,0,0,0,1.979-1.583l.792-1.451a.563.563,0,0,1,1.056.264,14.778,14.778,0,0,1-1.056,3.826c-.264.528-.66.4-1.056.4H95.054" transform="translate(27.919 15.649)" fill="#e64037"/>
        <path id="Path_2819" data-name="Path 2819" d="M169.367,67.372H165.8c-.4,0-.792,0-.792-.528s.264-.4.528-.528a2.547,2.547,0,0,0,1.715-2.375V52.067c0-1.583,0-1.715-1.583-2.111l-.528-.264a.4.4,0,0,1-.132-.528l.264-.264h7.785c.264,0,.528.132.528.4a.528.528,0,0,1-.4.528h-.132c-1.715.132-1.847,1.188-1.847,2.639V64.074c0,1.715,0,1.715,1.715,2.243s.66.132.66.66-.528.4-.792.4h-3.563" transform="translate(52.697 15.621)" fill="#e64037"/>
        <path id="Path_2820" data-name="Path 2820" d="M136.822,48.964h3.563c.4,0,.792-.132.792.4s-.264.528-.528.528a2.449,2.449,0,0,0-1.715,2.507V63.742a9.5,9.5,0,0,0,.132,1.188,1.319,1.319,0,0,0,1.056,1.188l.792.264a.492.492,0,0,1-.132.924h-7.653c-.264,0-.528-.132-.528-.4s0-.528.4-.528a4.255,4.255,0,0,0,1.979-3.167V52.79a5.412,5.412,0,0,0-.132-1.451,1.319,1.319,0,0,0-1.187-1.451l-.66-.264a.528.528,0,0,1-.264-.66.4.4,0,0,1,.4-.264h3.826Z" transform="translate(42.359 15.557)" fill="#e64037"/>
        <path id="Path_2821" data-name="Path 2821" d="M86.732,248.309a3.959,3.959,0,0,0-1.847.792L57.309,265.2a27.049,27.049,0,0,1-15.174,3.826,27.049,27.049,0,0,1-23.75-18.076,29.424,29.424,0,0,1-1.583-9.9V170.462a6.861,6.861,0,0,1,0-.792c.132-.924-.4-1.056-1.188-1.056H7.829l-2.243-.264A6.069,6.069,0,0,1,1.1,162.413a5.938,5.938,0,0,1,5.146-5.674,75.87,75.87,0,0,1,8.313-.132c2.375,0,2.111.264,2.111-2.243v-8.708c0-2.9-.264-1.319-1.319-1.319H6.906a5.938,5.938,0,0,1-5.542-4.354,6.069,6.069,0,0,1,2.375-6.6A5.806,5.806,0,0,1,7.17,132.33h7.917c1.583,0,1.583,0,1.583-1.583V120.323a6.2,6.2,0,0,1,2.111-5.014,6.069,6.069,0,0,1,4.09-1.451c13.458,0,26.917-.264,40.375.132s22.431,6.069,29.292,16.757a3.3,3.3,0,0,0,3.167,1.715c4.222-.132,8.444.132,12.535-.132a6.07,6.07,0,0,1,6.333,5.806v.264a6.069,6.069,0,0,1-6.333,5.938H98.212c-.528.264-.528.4-.528.66a47.237,47.237,0,0,1,0,10.424c-.132.924.264,1.187,1.188,1.187h8.708a8.708,8.708,0,0,1,3.3.4,6.069,6.069,0,0,1-2.111,11.611H94.913A2.111,2.111,0,0,0,92.8,169.8a34.966,34.966,0,0,1-12.667,12.4,34.305,34.305,0,0,1-17.549,4.75h-31.8c-1.979,0-1.847-.132-1.847,1.847v52.514A15.174,15.174,0,0,0,40.816,256.49a13.854,13.854,0,0,0,10.292-1.715L76.441,240l96.848-56.6a15.965,15.965,0,0,0-.264-27.972L132.649,131.8,51.5,84.3a19,19,0,0,0-5.014-2.111c-6.6-1.715-15.174,2.639-17.285,11.479a24.541,24.541,0,0,0-.4,4.222,5.806,5.806,0,0,1-3.563,5.146A6.069,6.069,0,0,1,16.8,97.232c.264-9.9,4.222-17.813,12.535-23.09a25.961,25.961,0,0,1,27.576-.66c9.236,5.278,18.472,10.819,27.708,16.1l1.847,1.056c.66-.4.528-1.188.792-1.715a26.41,26.41,0,0,1,39.452-15.042l42.882,25.07,79.035,46.181a27.181,27.181,0,0,1,13.722,19.792,27.708,27.708,0,0,1-13.195,28.632l-36.681,21.507L126.844,265.2a25.333,25.333,0,0,1-15.306,3.826c-11.479-.924-19.4-6.993-23.618-17.681-.4-.924-.66-1.979-1.056-3.035m163.876-78.9a15.173,15.173,0,0,0-.924-5.278,16.889,16.889,0,0,0-8.181-9.1l-92.361-53.965-29.16-17.021a13.986,13.986,0,0,0-7.785-2.111A15.306,15.306,0,0,0,98.08,95.781,2.375,2.375,0,0,0,99.4,98.42l13.326,7.785c22.3,13.063,44.729,26.125,67.028,39.32,9.632,5.674,13.986,14.514,13.59,25.6s-5.278,17.681-13.986,22.826l-25.2,14.646L99.531,240.524A2.375,2.375,0,0,0,98.08,243.3l.264,1.319a14.778,14.778,0,0,0,22.563,10.028c24.41-14.646,49.084-28.9,73.625-43.146l47.9-28.1a15.7,15.7,0,0,0,8.181-13.986M57.177,144.337H30.656c-1.979,0-1.715-.132-1.715,1.847v8.708c0,1.715,0,1.715,1.715,1.715H83.7c1.715,0,1.715,0,1.979-1.583a41.035,41.035,0,0,0,0-8.84c-.132-1.715-.264-1.715-2.111-1.715ZM78.024,132.33c0-.792-.528-1.056-.924-1.319a23.354,23.354,0,0,0-14.778-5.146H29.864c-.792,0-1.056.264-1.056,1.056v3.3c0,1.056-.264,2.111,2.111,2.111h47.1Zm.264,36.549a3.7,3.7,0,0,0-1.979-.264H29.864c-.792-.132-1.056.264-.924,1.056a20.875,20.875,0,0,1,0,4.09c-.132,1.451.4,1.319,1.319,1.319H63.642a22.694,22.694,0,0,0,14.514-6.2Z" transform="translate(0.351 22.31)" fill="#03273f"/>
        <path id="Path_2822" data-name="Path 2822" d="M17,252.793V238.279c0-3.563,1.056-5.41,5.278-5.278H35.474a15.966,15.966,0,0,1,6.993,1.451,10.292,10.292,0,0,1,5.674,6.465,15.174,15.174,0,0,1-.132,9.368c-1.451,4.354-4.618,6.6-8.972,7.521a33.78,33.78,0,0,1-6.729.4H27.029c-.924,0-1.188.264-1.188,1.188v9.1a4.354,4.354,0,0,1-6.465,3.958,3.431,3.431,0,0,1-2.111-2.375A10.028,10.028,0,0,1,17,267.439V252.925m14.118-13.063H26.633c-.528,0-.792.132-.792.792v10.028c0,.66.264.924.924.924a72.032,72.032,0,0,0,8.84-.264,5.674,5.674,0,1,0-.132-11.347Z" transform="translate(5.429 74.43)" fill="#052a41"/>
        <path id="Path_2823" data-name="Path 2823" d="M107.431,232.633a4.618,4.618,0,0,1,4.222,2.243l.924,1.847,13.854,29.951a9.369,9.369,0,0,1,.792,2.111,3.167,3.167,0,0,1-2.507,3.694,4.222,4.222,0,0,1-5.146-2.111,41.335,41.335,0,0,1-1.979-4.222c-.66-1.451-.528-2.507-4.09-2.639H100.834c-2.9,0-2.375-.4-3.431,2.243a34.7,34.7,0,0,1-2.111,4.75,3.958,3.958,0,0,1-4.618,1.979,3.167,3.167,0,0,1-2.639-4.09,9.632,9.632,0,0,1,.792-1.979l13.59-29.82a13.328,13.328,0,0,1,1.188-2.111,4.618,4.618,0,0,1,3.958-1.979m-6.333,24.542h12.4L107.3,242.265Z" transform="translate(28.076 74.271)" fill="#f53541"/>
        <path id="Path_2824" data-name="Path 2824" d="M60.553,266.136a10.424,10.424,0,0,1-14.778,1.583l-.924-.924a8.313,8.313,0,0,1-1.979-7.917,5.938,5.938,0,0,1,3.958-4.222A19.132,19.132,0,0,1,52.5,253.47a52.919,52.919,0,0,1,6.993-.264c1.056,0,1.187-.4,1.187-1.319s-1.056-3.694-3.563-3.958a15.438,15.438,0,0,0-6.993.924l-1.583.66a2.771,2.771,0,0,1-3.563-1.056,3.431,3.431,0,0,1,.66-4.222l.924-.66a23.354,23.354,0,0,1,14.778-1.319,9.1,9.1,0,0,1,7.125,7.785,25.861,25.861,0,0,1,.264,4.882v11.347c-.132,2.375-1.319,3.694-3.563,3.826s-3.826-.66-4.222-3.035l-.264-.792m-3.035-8.576H55.011l-1.451.264c-1.715.528-2.507,1.451-2.507,2.9a3.431,3.431,0,0,0,2.639,3.167,5.542,5.542,0,0,0,6.861-3.826v-.66c.264-1.979.264-1.979-1.847-2.111Z" transform="translate(13.6 77.184)" fill="#062a42"/>
        <path id="Path_2825" data-name="Path 2825" d="M162.86,257.862a5.674,5.674,0,0,0,5.014,5.674,14.646,14.646,0,0,0,7.917-.924l1.056-.528a2.771,2.771,0,0,1,3.563.924,3.167,3.167,0,0,1-.528,4.09,5.412,5.412,0,0,1-1.583,1.056,19.528,19.528,0,0,1-15.965.4c-5.806-2.375-8.444-7.917-7.917-14.25a13.194,13.194,0,0,1,9.632-12.139,15.306,15.306,0,0,1,8.444-.132,12.271,12.271,0,0,1,8.84,11.215v1.188c0,2.639-.528,3.167-3.035,3.3H164.84a4.222,4.222,0,0,0-2.111.264m0-4.882a14.254,14.254,0,0,0,3.563.132h6.993c.528,0,1.056.132,1.056-.66a5.41,5.41,0,0,0-3.035-4.75c-4.09-1.583-8.444.792-8.576,5.41Z" transform="translate(49.307 77.146)" fill="#f53743"/>
        <path id="Path_2826" data-name="Path 2826" d="M78.987,258.949a2.9,2.9,0,0,0,.924-1.715l4.618-11.479.924-1.979A4.354,4.354,0,0,1,90.73,241.8a3.035,3.035,0,0,1,1.979,2.639,5.278,5.278,0,0,1-.528,2.771L79.251,276.5a4.75,4.75,0,0,1-3.958,3.3,3.431,3.431,0,0,1-3.958-4.75c.4-1.056.924-2.111,1.319-3.167l1.056-2.507a3.3,3.3,0,0,0,.132-3.167c-2.771-6.2-5.41-12.4-8.181-18.6a6.334,6.334,0,0,1-.66-3.035,3.167,3.167,0,0,1,1.056-2.243,4.618,4.618,0,0,1,6.465.924,14.38,14.38,0,0,1,1.056,2.243L78.2,257.365l.66,1.319" transform="translate(20.763 77.115)" fill="#042941"/>
        <path id="Path_2827" data-name="Path 2827" d="M123.385,260.649V252.6c0-2.639-.264-1.451-1.319-1.319h-.924a2.9,2.9,0,0,1-3.035-3.167,2.771,2.771,0,0,1,2.9-3.167c.792-.132,1.583.264,2.243-.264s.264-1.319.264-2.111a10.292,10.292,0,0,1,7.917-8.972,25.067,25.067,0,0,1,5.674-.792,3.035,3.035,0,0,1,3.3,4.09,2.507,2.507,0,0,1-2.243,2.111l-3.035.4a3.958,3.958,0,0,0-3.3,4.222c0,1.188,0,1.319,1.319,1.319h3.035c1.979.132,2.771,1.056,2.771,3.167a2.639,2.639,0,0,1-2.9,3.035h-3.035c-.792,0-1.187.264-1.187,1.056v16.229a4.222,4.222,0,0,1-6.465,3.694,3.563,3.563,0,0,1-1.979-3.431v-8.049Z" transform="translate(37.72 74.359)" fill="#f53642"/>
        <path id="Path_2828" data-name="Path 2828" d="M141.314,256.547V251.4c0-1.715-.264-1.187-1.187-1.056h-1.715a3.167,3.167,0,0,1,0-6.2h.132c.792-.132,1.979.4,2.507-.4s.132-1.583.132-2.507a12.007,12.007,0,0,1,.264-3.035,3.3,3.3,0,0,1,2.9-2.507h1.319c2.639,0,3.958,1.319,3.958,3.826v3.431c0,1.056.264,1.188,1.056,1.188h4.486c2.111.132,3.035,1.056,2.9,3.167a2.771,2.771,0,0,1-2.9,3.035H150.55c-.66,0-.924.264-.924.924,0,3.3-.132,6.6,0,9.9s1.715,3.958,4.486,3.958l2.507-.4a1.715,1.715,0,0,1,2.243,1.583,7.125,7.125,0,0,1,0,2.507,3.167,3.167,0,0,1-2.507,2.639,14.778,14.778,0,0,1-10.028-.792,8.576,8.576,0,0,1-4.882-6.729,42.484,42.484,0,0,1-.4-7.257" transform="translate(43.409 75.294)" fill="#f53641"/>
        <path id="Path_2829" data-name="Path 2829" d="M186.885,245.865c.66-.132.66-.528.924-.924a9.236,9.236,0,0,1,7.653-3.431,2.375,2.375,0,0,1,2.507,1.979c.792,3.035-.4,5.014-3.694,5.41l-2.243.4a5.542,5.542,0,0,0-4.75,5.674c0,2.771,0,5.41,0,8.181v2.639a3.694,3.694,0,0,1-1.979,3.694,5.278,5.278,0,0,1-5.146-.264,3.431,3.431,0,0,1-1.451-3.167V245.865c0-3.562,3.035-5.41,6.333-3.826a3.958,3.958,0,0,1,1.979,3.826" transform="translate(57.081 77.136)" fill="#f53541"/>
        <path id="Path_2830" data-name="Path 2830" d="M227.012,166.513a15.833,15.833,0,0,1-8.049,13.986l-47.9,27.972c-24.542,14.382-49.215,28.632-73.625,43.146A14.778,14.778,0,0,1,74.88,241.589l-.264-1.319a2.375,2.375,0,0,1,1.451-2.771l54.757-31.8,25.2-14.778c8.708-5.146,13.458-12.8,13.986-22.826a27.47,27.47,0,0,0-13.59-25.6c-22.3-13.195-44.729-26.125-67.028-39.32L75.936,95.394a2.375,2.375,0,0,1-1.319-2.639A15.306,15.306,0,0,1,88.866,78.9a13.986,13.986,0,0,1,7.785,2.111l29.16,17.021L218.04,152a16.889,16.889,0,0,1,8.181,9.1,15.173,15.173,0,0,1,.924,5.278" transform="translate(23.815 25.203)" fill="#f4333f"/>
      </g>
    </g>
  </g>
</svg>
