<svg xmlns="http://www.w3.org/2000/svg" viewBox="0 0 541.03 548.7"><defs><style>.cls-1{fill:#03273f;}.cls-2{fill:#052a41;}.cls-3{fill:#f53541;}.cls-4{fill:#062a42;}.cls-5{fill:#f53743;}.cls-6{fill:#042941;}.cls-7{fill:#f53642;}.cls-8{fill:#f53641;}.cls-9{fill:#f4333f;}</style></defs><g id="Layer_2" data-name="Layer 2"><g id="Layer_1-2" data-name="Layer 1"><path class="cls-1" d="M177,369.59c-1.72.11-2.72,1.07-3.84,1.72q-28.46,16.62-56.9,33.27A56,56,0,0,1,85,412.46c-19-.77-41-13.72-49.25-37.39a61,61,0,0,1-3.31-20.39q0-49.4,0-98.77c0-15.72-.08-31.45-.12-47.18a14.23,14.23,0,0,1,0-1.6c.2-1.8-.72-2.24-2.36-2.22-5.33.07-10.67,0-16,0a16.93,16.93,0,0,1-4.75-.52A12.55,12.55,0,0,1,0,191.88a12.29,12.29,0,0,1,10.62-11.73c5.7-.72,11.46-.19,17.19-.28,4.94-.08,4.46.41,4.48-4.55,0-6-.06-12,0-18,0-2-.51-2.8-2.68-2.74q-8.79.21-17.6,0A12.17,12.17,0,0,1,.59,145.65a12.44,12.44,0,0,1,4.8-13.76,11.91,11.91,0,0,1,7.14-2.15c5.46,0,10.93,0,16.4,0,3.31,0,3.36,0,3.37-3.25q0-10.8,0-21.59c0-4.07,1.15-7.61,4.31-10.33A12.43,12.43,0,0,1,45,91.48c27.87,0,55.75-.43,83.6.21,26.12.59,46.34,12.69,60.53,34.56,1.79,2.75,3.57,3.63,6.66,3.56,8.67-.18,17.35.18,26-.14a12.55,12.55,0,0,1,13.1,12.66c0,7-5.61,12.23-13.05,12.29-7.18.06-14.37,0-20.94,0-1.09.41-1.07.86-1,1.23a97.57,97.57,0,0,1,0,21.54c-.25,2,.47,2.52,2.37,2.49,6-.09,12,0,18,0a17.88,17.88,0,0,1,6.69.93,12.48,12.48,0,0,1-4.39,24.1c-5.73.17-11.46,0-17.2.05-3.73,0-7.47.13-11.2-.06-2.16-.11-3.32.67-4.42,2.51a72.25,72.25,0,0,1-26.25,25.75,71.05,71.05,0,0,1-36.2,9.77q-31.82,0-63.61,0h-2.4c-4.15,0-3.91-.27-3.91,3.87q0,54.39,0,108.76c0,15.42,10,28.05,24.61,31.37,7.67,1.74,14.76.09,21.47-3.86q26.17-15.39,52.41-30.68,100.19-58.59,200.39-117.14c16.47-9.6,20.34-29.61,13-44.12a33.32,33.32,0,0,0-13.51-13.77Q314,153,272.31,128.53L104.37,30.29a39.14,39.14,0,0,0-10.24-4.37C80.48,22.45,62.68,31.36,58.3,49.57a51,51,0,0,0-.95,8.72A11.88,11.88,0,0,1,50.09,69,12.42,12.42,0,0,1,32.43,57.09c.43-20.36,8.67-36.74,25.85-47.8C76.82-2.64,96.22-3,115.42,7.83s38.19,22.27,57.27,33.43c1.26.74,2.53,1.45,3.84,2.19,1.37-.88,1.17-2.4,1.54-3.57C186,14.79,209.24-1.33,235.39.44c8.79.59,16.84,3.61,24.43,8.07q44.26,26,88.61,51.87Q430.15,108.2,511.88,156q23.75,13.88,28.31,40.92a57.29,57.29,0,0,1-27.39,59.34c-25.24,14.88-50.57,29.61-75.86,44.4q-88.62,51.84-177.25,103.7c-9.81,5.75-20.25,9-31.62,8-23.82-2-40-14.58-49-36.53C178.28,373.88,177.74,371.81,177,369.59ZM516,206.45a31.32,31.32,0,0,0-1.83-11c-3-8.64-9-14.39-16.85-18.94Q401.82,120.85,306.48,65q-30.19-17.65-60.39-35.31a28.94,28.94,0,0,0-16-4.33C215,25.92,201.8,38.86,200.62,54c-.2,2.55.35,4.1,2.74,5.45,9.3,5.22,18.44,10.69,27.64,16.07,46.24,27.05,92.57,53.93,138.66,81.22,19.87,11.77,29,29.9,28,52.88-.94,20.89-10.83,36.68-28.81,47.31-17.32,10.24-34.72,20.33-52.09,30.49q-56.58,33.09-113.2,66.13c-2.5,1.45-3.42,3.07-2.9,5.74.18.92.26,1.85.43,2.76,3.89,20.48,26.47,32.65,46.66,20.62C298.35,352.5,349.34,323,400.17,293.3q49.51-29,99-57.9C510.34,228.9,515.59,219.09,516,206.45Zm-400.1-51.82H61.09c-4,0-3.61-.17-3.62,3.71q0,9,0,18c0,3.49,0,3.53,3.42,3.53q55,0,110,0c3.54,0,3.67,0,4-3.36a84.64,84.64,0,0,0,0-18.35c-.36-3.5-.49-3.5-4.25-3.5Zm43-24.86c0-1.68-1.17-2.08-1.92-2.68a48.32,48.32,0,0,0-30.7-10.64c-21.57-.07-43.15,0-64.73,0-.66,0-1.33,0-2,0-1.53-.12-2.17.51-2.12,2.06.07,2.27,0,4.53,0,6.79,0,5-.52,4.49,4.47,4.49q46.54,0,93.09,0Zm.45,75.71a7.55,7.55,0,0,0-4-.53q-46.93,0-93.87,0c-.67,0-1.34,0-2,0-1.56-.14-2.09.57-2,2.09a83.63,83.63,0,0,1,0,8.38c-.15,2.23.79,2.65,2.76,2.63,8.52-.08,17,0,25.56,0,14.52,0,29,.17,43.54-.15C140.6,217.61,150.43,213.17,159.35,205.48Z"/><path class="cls-2" d="M43.31,486.7V458.32c0-.53,0-1.07,0-1.6-.13-7.35,2.14-11.23,11-11,9.06.24,18.13,0,27.19,0a33,33,0,0,1,14.34,3,21.23,21.23,0,0,1,11.69,13.47,31.26,31.26,0,0,1-.15,19.25c-3,9-9.69,13.65-18.68,15.49-4.61.95-9.28.76-13.94.78-3.6,0-7.2.09-10.8,0-1.88-.06-2.58.48-2.53,2.46.12,5.19,0,10.39,0,15.58,0,1.07,0,2.14,0,3.2-.38,7.36-6.47,11.14-13.25,8.21a7.18,7.18,0,0,1-4.26-5,20.64,20.64,0,0,1-.59-5.54Q43.33,501.68,43.31,486.7Zm29.12-26.93H63.16c-1.09,0-1.75.38-1.74,1.61,0,6.91,0,13.81,0,20.72,0,1.37.62,1.88,1.93,1.84,6.11-.14,12.23.41,18.31-.48,6.53-.95,10-5.11,10-11.76S88.09,461,81.48,460.09A66.65,66.65,0,0,0,72.43,459.77Z"/><path class="cls-3" d="M277.29,444.72a9.48,9.48,0,0,1,8.67,4.67,35,35,0,0,1,2,3.89q14.29,31,28.56,62a19.3,19.3,0,0,1,1.59,4.5c.74,3.78-1.33,6.8-5.11,7.77-4.45,1.13-8.3-.31-10.57-4.35-1.56-2.77-2.71-5.77-4.06-8.67-3-6.39-1-5.28-8.38-5.34q-13.2-.11-26.39,0c-5.89,0-4.81-.86-7.23,4.66-1.44,3.29-2.57,6.73-4.5,9.79-2.29,3.64-5.38,4.88-9.58,4-4.46-.95-6.54-4-5.59-8.5a20.14,20.14,0,0,1,1.54-4.1q14.07-30.88,28.18-61.75a27.3,27.3,0,0,1,2.55-4.5A9.43,9.43,0,0,1,277.29,444.72Zm-12.85,50.43h25.71l-13-30.56Z"/><path class="cls-4" d="M150.25,520.16a21.66,21.66,0,0,1-32.47,1.25c-4.38-4.72-5.37-10.31-4-16.36,1-4.34,4-7.1,8.08-8.75a39.6,39.6,0,0,1,11.67-2.51,109.5,109.5,0,0,1,14.37-.57c2.07.1,2.44-.77,2.35-2.6-.26-5.21-2.21-7.54-7.33-8.3s-9.79.42-14.52,1.9c-1.14.36-2.22.9-3.36,1.27-3.34,1.08-5.86.3-7.33-2.22a7,7,0,0,1,1.45-8.74,7.21,7.21,0,0,1,2-1.26c9.9-3.87,20-5.49,30.5-2.74,8.35,2.19,13.11,7.69,14.64,16.12a53.49,53.49,0,0,1,.62,10c0,6.93,0,13.86,0,20.79,0,.93,0,1.87,0,2.8-.4,4.93-2.82,7.52-7.43,7.79-4,.24-8-1.33-8.68-6.32A9,9,0,0,0,150.25,520.16ZM144,502.42v-.06c-1.86.11-3.73.17-5.58.35a18.77,18.77,0,0,0-3.13.67c-3.66,1-5.23,2.92-5.14,6.12a7,7,0,0,0,5.42,6.59,11.55,11.55,0,0,0,14.55-9.44c.64-4,.42-4.21-3.72-4.23Z"/><path class="cls-5" d="M435.81,502.87c.41,6.41,4.17,10.67,10.48,11.65a30.2,30.2,0,0,0,16.46-1.81c.74-.3,1.43-.71,2.18-1,3.22-1.13,5.93-.4,7.44,2a6.67,6.67,0,0,1-1.07,8.41A11.14,11.14,0,0,1,468,524.3c-10.87,4.82-21.91,5.37-32.94.84-12.13-5-17.5-16.35-16.35-29.57,1.11-12.76,8.55-21.91,19.94-25.23a31.77,31.77,0,0,1,17.35-.19c10.27,2.75,17.28,11.68,18.31,23.19.07.8.1,1.59.12,2.39.13,5.35-1.05,6.68-6.38,6.71-9.32.06-18.65,0-28,0C438.64,502.48,437.16,502.12,435.81,502.87Zm0-10c2.44.67,5,.28,7.44.32,4.8.06,9.6,0,14.4,0,1,0,2.18.21,2.23-1.48.11-3.76-2.72-8.53-6.3-9.92C445.1,478.49,436,483.35,435.8,492.86Z"/><path class="cls-6" d="M203.45,505.15c1.42-1,1.55-2.39,2-3.58,3.24-7.87,6.42-15.76,9.64-23.64a36,36,0,0,1,1.81-4,8.9,8.9,0,0,1,11-4,6.33,6.33,0,0,1,4,5.54,11,11,0,0,1-1.18,5.79q-13.38,30.3-26.74,60.61c-1.6,3.64-3.84,6.31-8.11,6.76-6.15.66-10-3.88-8.12-9.76.74-2.27,1.82-4.42,2.78-6.62a54.1,54.1,0,0,1,2.31-5.08,6.76,6.76,0,0,0,.14-6.69c-5.72-12.74-11.21-25.58-16.8-38.38a13.21,13.21,0,0,1-1.36-6.17,6.43,6.43,0,0,1,2.13-4.58c3.58-3.21,10.87-2.29,13.39,1.79a29.44,29.44,0,0,1,2.21,4.68c3.24,8.16,6.43,16.34,9.65,24.5C202.6,503.26,203,504.17,203.45,505.15Z"/><path class="cls-7" d="M330.19,502.91c0-5.59-.07-11.19,0-16.78,0-2-.49-3-2.66-2.76a10.27,10.27,0,0,1-2,0c-4.24-.25-6.39-2.45-6.38-6.56s1.92-6,6-6.5c1.55-.17,3.41.62,4.58-.64,1-1.09.46-2.82.67-4.25,1.46-9.75,7.05-15.81,16.44-18.5a51.66,51.66,0,0,1,11.83-1.76c5-.24,7.95,3.52,6.77,8.36a5.29,5.29,0,0,1-4.68,4.28c-2.1.32-4.26.43-6.31.95-4.45,1.12-6.69,4.14-6.76,8.7,0,2.57.07,2.72,2.61,2.8,2.13.08,4.28,0,6.39.14,4.15.37,5.76,2.3,5.71,6.62,0,4.11-1.89,6.1-6,6.33a62.1,62.1,0,0,1-6.4,0c-1.7-.07-2.35.54-2.32,2.28.08,4.66,0,9.33,0,14v17.19c0,.8,0,1.6,0,2.4-.43,7.35-6.77,11-13.37,7.71-2.95-1.48-4.09-4.09-4.11-7.23,0-5.59,0-11.19,0-16.79Z"/><path class="cls-8" d="M379.25,496.39c0-3.59-.07-7.18,0-10.78.05-1.77-.63-2.37-2.32-2.24a20.61,20.61,0,0,1-3.6,0c-3.76-.39-5.56-2.51-5.55-6.44s1.7-6.05,5.49-6.46c.13,0,.27,0,.39,0,1.76-.39,4.15.94,5.2-.8.79-1.29.32-3.36.35-5.08a24.59,24.59,0,0,1,.56-6.34,6.72,6.72,0,0,1,5.87-5.21,17.36,17.36,0,0,1,2.79-.18c5.42.07,8.12,2.65,8.32,8,.09,2.39.08,4.79,0,7.18-.05,1.69.61,2.41,2.32,2.38,3.06-.06,6.13-.1,9.19,0,4.33.19,6.17,2.28,6.1,6.66-.07,4.05-2,6.12-6.11,6.29-3.19.13-6.39.06-9.58,0-1.33,0-1.93.47-1.91,1.86.05,6.79-.18,13.59.12,20.36.26,5.62,3.47,8.19,9.21,8.23a38,38,0,0,0,5.12-.7c2.7-.36,4.08.63,4.53,3.25a14.67,14.67,0,0,1,0,5.16,6.48,6.48,0,0,1-5.06,5.55A30.57,30.57,0,0,1,390,525.52c-5.92-2.72-8.89-7.76-10.06-14C379,506.51,379.32,501.44,379.25,496.39Z"/><path class="cls-3" d="M501.67,478.11c1.32-.31,1.5-1.2,2-1.81,3.94-5.28,9.56-7,15.76-7.2,2.74-.11,4.42,1.46,5.15,4.13,1.76,6.4-.92,10.32-7.55,11.09-1.59.19-3.19.38-4.75.7-6.2,1.28-9.72,5.41-9.86,11.76-.11,5.6,0,11.19,0,16.79,0,1.86,0,3.72,0,5.59-.05,3.22-.8,6.22-4,7.69a10.79,10.79,0,0,1-10.71-.54c-2.35-1.46-3-3.91-3-6.58,0-6,0-12,0-18,0-7.86,0-15.72,0-23.58.05-7.4,6.32-11.2,13-7.92C500.8,471.82,501.54,474.73,501.67,478.11Z"/><path class="cls-9" d="M516,206.45c-.4,12.64-5.65,22.45-16.78,29q-49.54,28.9-99,57.9C349.34,323,298.35,352.5,247.76,382.65c-20.19,12-42.77-.14-46.66-20.62-.17-.91-.25-1.84-.43-2.76-.52-2.67.4-4.29,2.9-5.74q56.66-33,113.2-66.13c17.37-10.16,34.77-20.25,52.09-30.49,18-10.63,27.87-26.42,28.81-47.31,1-23-8.14-41.11-28-52.88C323.57,129.43,277.24,102.55,231,75.5c-9.2-5.38-18.34-10.85-27.64-16.07-2.39-1.35-2.94-2.9-2.74-5.45C201.8,38.86,215,25.92,230.11,25.32a28.94,28.94,0,0,1,16,4.33Q276.27,47.33,306.48,65q95.4,55.8,190.83,111.54c7.8,4.55,13.88,10.3,16.85,18.94A31.32,31.32,0,0,1,516,206.45Z"/></g></g></svg>