<svg xmlns="http://www.w3.org/2000/svg" width="48" height="48" viewBox="0 0 48 48"><defs><style>.a{fill:rgba(252,252,252,0);}.b,.f{fill:none;}.b{stroke:#1da1f2;}.c{fill:rgba(253,73,198,0.35);opacity:0;}.d{fill:#1da1f2;}.e{stroke:none;}</style></defs><rect class="a" width="48" height="48" rx="24"/><g class="b"><circle class="e" cx="24" cy="24" r="24"/><circle class="f" cx="24" cy="24" r="23.5"/></g><g transform="translate(14 14)"><rect class="c" width="20" height="20"/><g transform="translate(0.833 2.491)"><path class="d" d="M19.167,2.5A9.094,9.094,0,0,1,16.55,3.775,3.733,3.733,0,0,0,10,6.275v.833A8.884,8.884,0,0,1,2.5,3.333s-3.333,7.5,4.167,10.834A9.7,9.7,0,0,1,.833,15.833C8.333,20,17.5,15.833,17.5,6.25a3.739,3.739,0,0,0-.067-.692A6.427,6.427,0,0,0,19.167,2.5Z" transform="translate(-0.833 -2.491)"/></g></g></svg>