<svg xmlns="http://www.w3.org/2000/svg" width="284" height="220.083" viewBox="0 0 284 220.083"><defs><style>.a{fill:#ebebeb;}.b{fill:#f0f0f0;}.c{fill:#f5f5f5;}.d{fill:#fafafa;}.e{fill:#e0e0e0;}.f,.k,.m,.q{fill:#fff;}.g{fill:#e6e6e6;}.h{fill:#263238;}.i{fill:#ffc3bd;}.j,.o,.r{fill:#f3333e;}.k,.o{opacity:0.5;}.l{opacity:0.2;}.m{opacity:0.1;}.n{fill:#ed847e;}.p{opacity:0.6;}.q{opacity:0.8;}.r{opacity:0.4;}</style></defs><g transform="translate(0 -40.09)"><g transform="translate(0 40.09)"><rect class="a" width="284" height="0.142" transform="translate(0 194.432)"/><rect class="a" width="18.812" height="0.142" transform="translate(236.731 203.571)"/><rect class="a" width="4.936" height="0.142" transform="translate(183.197 205.116)"/><rect class="a" width="10.9" height="0.142" transform="translate(225.263 198.3)"/><rect class="a" width="24.532" height="0.142" transform="translate(29.797 199.254)"/><rect class="a" width="3.595" height="0.142" transform="translate(59.39 199.254)"/><rect class="a" width="53.21" height="0.142" transform="translate(74.675 201.651)"/><path class="a" d="M151.123,215.63H41.448a3.243,3.243,0,0,1-3.238-3.243V58.215A3.243,3.243,0,0,1,41.448,55H151.123a3.243,3.243,0,0,1,3.243,3.243V212.387A3.243,3.243,0,0,1,151.123,215.63ZM41.448,55.114a3.1,3.1,0,0,0-3.1,3.1V212.387a3.1,3.1,0,0,0,3.1,3.1H151.123a3.107,3.107,0,0,0,3.1-3.1V58.215a3.107,3.107,0,0,0-3.1-3.1Z" transform="translate(-16.507 -46.531)"/><path class="a" d="M367.424,215.63H257.743a3.249,3.249,0,0,1-3.243-3.243V58.215A3.249,3.249,0,0,1,257.743,55H367.424a3.243,3.243,0,0,1,3.232,3.215V212.387A3.243,3.243,0,0,1,367.424,215.63ZM257.743,55.114a3.107,3.107,0,0,0-3.1,3.1V212.387a3.107,3.107,0,0,0,3.1,3.1H367.424a3.107,3.107,0,0,0,3.1-3.1V58.215a3.107,3.107,0,0,0-3.1-3.1Z" transform="translate(-109.944 -46.531)"/><rect class="b" width="72.17" height="162.232" transform="translate(154.07 32.2)"/><rect class="c" width="70.648" height="162.232" transform="translate(155.592 32.2)"/><rect class="b" width="154.871" height="62.037" transform="translate(221.929 35.881) rotate(90)"/><path class="d" d="M292.24,141.122h0a16.915,16.915,0,0,1,16.9-16.932h16.018a16.909,16.909,0,0,1,16.926,16.932Z" transform="translate(-126.248 -76.421)"/><rect class="c" width="37" height="49.842" transform="translate(215.84 144.124) rotate(90)"/><rect class="c" width="21.987" height="64.235" transform="translate(187.98 139.353) rotate(180)"/><rect class="c" width="21.987" height="64.235" transform="translate(215.834 139.353) rotate(180)"/><path class="e" d="M364.937,226.245h9a1.4,1.4,0,0,0,1.4-1.4h0a1.4,1.4,0,0,0-1.4-1.4h-9a1.4,1.4,0,0,0-1.4,1.4h0A1.4,1.4,0,0,0,364.937,226.245Z" transform="translate(-157.049 -119.302)"/><rect class="b" width="154.871" height="1.119" transform="translate(221.929 35.881) rotate(90)"/><path class="e" d="M70.39,193.094h68.666V95.9c0-7.742-68.666-7.742-68.666,0Z" transform="translate(-30.408 -61.693)"/><path class="a" d="M73.17,193.094h68.66V95.9c0-7.742-68.666-7.742-68.66,0Z" transform="translate(-31.609 -61.693)"/><path class="d" d="M141.014,190.814v-90.4a1.465,1.465,0,0,0-.971-1.386c-3.811-1.369-14.2-2.931-29.951-2.931s-26.128,1.562-29.951,2.931a1.465,1.465,0,0,0-.971,1.386v90.4a1.465,1.465,0,0,0,1.465,1.465h58.913a1.465,1.465,0,0,0,1.465-1.465Z" transform="translate(-34.201 -64.286)"/><path class="f" d="M150.542,96.753l10.707,95.526H145.612L134.82,96.1C140.909,96.117,146.169,96.373,150.542,96.753Z" transform="translate(-58.242 -64.286)"/><path class="f" d="M120.355,96.16l10.792,96.145H122.5L111.75,96.484C114.368,96.325,117.243,96.211,120.355,96.16Z" transform="translate(-48.276 -64.312)"/><rect class="a" width="98.912" height="2.999" transform="translate(65.666 30.348) rotate(90)"/><rect class="a" width="98.912" height="2.999" transform="translate(89.818 30.348) rotate(90)"/><rect class="e" width="98.912" height="0.54" transform="translate(86.819 30.343) rotate(90)"/><rect class="e" width="98.912" height="0.54" transform="translate(62.667 30.343) rotate(90)"/><rect class="a" width="64.752" height="2.999" transform="translate(108.619 55.13) rotate(180)"/><rect class="c" width="70.051" height="3.311" transform="translate(113.35 133.804) rotate(180)"/><rect class="e" width="3.317" height="3.311" transform="translate(39.982 130.487)"/><rect class="b" width="17.125" height="4.839" transform="translate(253.993 19.988) rotate(180)"/><rect class="g" width="17.125" height="4.839" transform="translate(245.433 24.827) rotate(180)"/><rect class="c" width="17.125" height="4.839" transform="translate(133.56 91.187) rotate(180)"/><rect class="c" width="17.125" height="4.839" transform="translate(108.153 152.105) rotate(180)"/><rect class="g" width="17.125" height="4.839" transform="translate(236.867 152.678)"/><rect class="b" width="17.125" height="4.839" transform="translate(124.994 4.839) rotate(180)"/><rect class="c" width="17.125" height="4.839" transform="translate(62.088 181.499) rotate(180)"/><rect class="c" width="17.125" height="4.839" transform="translate(48.547 146.362) rotate(180)"/><rect class="b" width="17.125" height="4.839" transform="translate(70.659 186.338) rotate(180)"/><rect class="b" width="17.125" height="4.839" transform="translate(41.561 15.847)"/></g><g transform="translate(31.87 247.313)"><ellipse class="c" cx="110.13" cy="6.43" rx="110.13" ry="6.43" transform="translate(0 0)"/></g><g transform="translate(67.944 79.861)"><path class="h" d="M126.731,119.891c-3.363.744-7.27,5.458-3.408,10.269s-2.607,2.709-3.612,11.127,6.668,7,4.26,12.524,14.308,14.268,24.736,7.64,11.405-20.9,8.145-25.946-8.02-5.362-5.862-10.764-.386-11.019-7.117-11.07c-5.078-.04-2.033-3.59-9.02-3.561C129.026,110.138,123.874,114.228,126.731,119.891Z" transform="translate(-119.619 -110.11)"/><path class="f" d="M163.789,139.72a1.653,1.653,0,1,0,1.174.484A1.659,1.659,0,0,0,163.789,139.72Zm0,2.925a1.267,1.267,0,1,1,.9-.369,1.272,1.272,0,0,1-.9.369Z" transform="translate(-137.984 -122.901)"/><path class="h" d="M170.908,143.105h0a.136.136,0,0,1-.114-.165c.511-2.647-1.551-5.209-3.732-7.952-2.55-3.164-5.436-6.754-4.419-11.031.869-3.647.483-6.691-1.091-8.577-1.284-1.539-3.289-2.272-5.953-2.113-2.442.125-3.164-.568-3.931-1.238s-1.784-1.619-5.288-1.6h0a.142.142,0,0,1-.142-.136.148.148,0,0,1,.142-.148h.119c3.533,0,4.5.886,5.362,1.67.75.687,1.4,1.284,3.726,1.164,2.755-.142,4.839.6,6.186,2.215,1.63,1.96,2.033,5.112,1.136,8.827-.983,4.141,1.732,7.52,4.362,10.792,2.221,2.766,4.322,5.379,3.789,8.151a.142.142,0,0,1-.153.136Z" transform="translate(-131.119 -110.127)"/><path class="i" d="M212.436,148.272l-.761,1.488a1.937,1.937,0,0,0,0,1.784l1.346,2.613a3.629,3.629,0,0,0,2.715,1.931l.716.1c1.443-2.38,1.244-6.015,1.244-6.015l.057-1.039a1.619,1.619,0,0,0-1.494-1.755l-2.062-.142A1.88,1.88,0,0,0,212.436,148.272Z" transform="translate(-159.293 -126.149)"/><path class="j" d="M178.131,163.576s.034.062.062.1l.119.176.273.364c.193.25.4.494.619.738.432.488.892.966,1.369,1.426a22,22,0,0,0,3.13,2.459,18.386,18.386,0,0,0,7.248,2.84l.483.068.244.034a.306.306,0,0,0-.062,0,.682.682,0,0,0-.341.125c-.108.1.153-.045.4-.42a11.752,11.752,0,0,0,1.4-3.346,31.922,31.922,0,0,0,.829-4.186c.108-.716.17-1.448.233-2.175s.108-1.488.108-2.141l6.543.312c-.085.892-.17,1.659-.261,2.482s-.222,1.619-.335,2.425c-.25,1.624-.54,3.249-.966,4.919a23.719,23.719,0,0,1-.767,2.539,15.376,15.376,0,0,1-1.261,2.7,7.764,7.764,0,0,1-2.84,2.84,5.993,5.993,0,0,1-2.567.71h-.977l-.67-.045a27.765,27.765,0,0,1-5.277-1.017,31.209,31.209,0,0,1-4.953-1.988,33.987,33.987,0,0,1-4.516-2.772c-.721-.517-1.42-1.068-2.107-1.647-.341-.29-.676-.6-1.017-.909l-.511-.483-.267-.267c-.1-.1-.159-.165-.312-.335Z" transform="translate(-141.898 -131.507)"/><path class="k" d="M178.131,163.576s.034.062.062.1l.119.176.273.364c.193.25.4.494.619.738.432.488.892.966,1.369,1.426a22,22,0,0,0,3.13,2.459,18.386,18.386,0,0,0,7.248,2.84l.483.068.244.034a.306.306,0,0,0-.062,0,.682.682,0,0,0-.341.125c-.108.1.153-.045.4-.42a11.752,11.752,0,0,0,1.4-3.346,31.922,31.922,0,0,0,.829-4.186c.108-.716.17-1.448.233-2.175s.108-1.488.108-2.141l6.543.312c-.085.892-.17,1.659-.261,2.482s-.222,1.619-.335,2.425c-.25,1.624-.54,3.249-.966,4.919a23.719,23.719,0,0,1-.767,2.539,15.376,15.376,0,0,1-1.261,2.7,7.764,7.764,0,0,1-2.84,2.84,5.993,5.993,0,0,1-2.567.71h-.977l-.67-.045a27.765,27.765,0,0,1-5.277-1.017,31.209,31.209,0,0,1-4.953-1.988,33.987,33.987,0,0,1-4.516-2.772c-.721-.517-1.42-1.068-2.107-1.647-.341-.29-.676-.6-1.017-.909l-.511-.483-.267-.267c-.1-.1-.159-.165-.312-.335Z" transform="translate(-141.898 -131.507)"/><path class="i" d="M154.451,399.727c-.829-1.852-.256-9.656-.142-10.923-1.437-.755-6.379.17-6.379.17s1.38,8.2.568,10.752C150.389,400.784,154.451,399.727,154.451,399.727Z" transform="translate(-131.849 -230.378)"/><path class="i" d="M258.716,387.786c-1.556-1.3-4.828-8.418-5.288-9.616-1.624-.04-5.288,2.84-5.288,2.84s4.839,6.754,5.22,9.417C255.535,390.518,258.716,387.786,258.716,387.786Z" transform="translate(-175.14 -225.911)"/><path class="j" d="M158.867,411.94c-4.152,0-4.862-.062-7.2-.142-2-.074-2.476.176-4.084.142-1.34-.028-1.289-1.312-.88-2.795.148-.523.352-1.136.568-1.874a1.34,1.34,0,0,1,1.289-.971h4.544a1.386,1.386,0,0,1,1.068.528,9.243,9.243,0,0,0,5.561,2.647C161.986,409.776,160.526,411.94,158.867,411.94Z" transform="translate(-131.211 -238.064)"/><path class="j" d="M270.049,397c-4.47,2.022-6.816.994-9.06,1.505-1.926.432-1.863.8-3.777,1.346-1.272.358-1.926-1-1.812-2.192a22.953,22.953,0,0,0,.131-2.613.852.852,0,0,1,.5-.8l4.442-2.016a.863.863,0,0,1,.886.108c1.772,1.42,5.68,3.2,8.389,2.272C271.861,393.914,271.537,396.328,270.049,397Z" transform="translate(-178.271 -231.954)"/><path class="h" d="M179.548,222.34s10.491,24.089,16.245,41.839c7.049,16.063,21.169,49.762,21.169,49.762.278.858-4.186,2.431-5.152,2.272,0,0-18.642-22.356-26.23-47.752-19.738-24.765-25.56-44.645-25.56-44.645Z" transform="translate(-137.072 -158.593)"/><path class="l" d="M176.707,245.56c2.9,3.175,4.936,14.2,5.975,21.4a165.068,165.068,0,0,1-9.753-16.25C173.22,248.014,174.4,246.031,176.707,245.56Z" transform="translate(-142.649 -168.624)"/><path class="h" d="M168.26,223.13s.744,33.461-2.164,49.944c-3.056,17.307-12.5,38.187-11.843,49.547-.977.568-4.4.6-6.31,0,0,0-3.272-33.733,6.56-50.2-2.13-16.472-7.8-37.834-2.766-48.036Z" transform="translate(-131.629 -158.934)"/><path class="h" d="M154.475,393.668A16.192,16.192,0,0,0,154.69,396a.477.477,0,0,1-.4.568,23.843,23.843,0,0,1-6.714-.352.488.488,0,0,1-.392-.4l-.346-2.181a.488.488,0,0,1,.488-.568l6.674.125A.488.488,0,0,1,154.475,393.668Z" transform="translate(-131.374 -232.344)"/><path class="m" d="M154.475,393.668A16.192,16.192,0,0,0,154.69,396a.477.477,0,0,1-.4.568,23.843,23.843,0,0,1-6.714-.352.488.488,0,0,1-.392-.4l-.346-2.181a.488.488,0,0,1,.488-.568l6.674.125A.488.488,0,0,1,154.475,393.668Z" transform="translate(-131.374 -232.344)"/><path class="h" d="M254.324,379.075c.284.568.8,1.494,1.21,2.192a.488.488,0,0,1-.17.659,33.8,33.8,0,0,1-5.72,2.437.483.483,0,0,1-.568-.165l-1.352-1.789a.488.488,0,0,1,.17-.733l5.76-2.806a.477.477,0,0,1,.67.2Z" transform="translate(-174.917 -226.186)"/><path class="m" d="M254.324,379.075c.284.568.8,1.494,1.21,2.192a.488.488,0,0,1-.17.659,33.8,33.8,0,0,1-5.72,2.437.483.483,0,0,1-.568-.165l-1.352-1.789a.488.488,0,0,1,.17-.733l5.76-2.806a.477.477,0,0,1,.67.2Z" transform="translate(-174.917 -226.186)"/><path class="j" d="M164.991,167.717c.568,2.136,1.454,4.482,2.533,9.656a116.316,116.316,0,0,1,1.931,18.71c-2.92,2.6-12.627,2.158-22.368,1.7-.028-6.333-2.63-12.178-9.7-25.145a5.231,5.231,0,0,1,2.84-7.623c.846-.284,1.749-.568,2.687-.829a72.593,72.593,0,0,1,9.929-2.272c1.1-.148,2.272-.261,3.351-.358a8.446,8.446,0,0,1,8.8,6.157Z" transform="translate(-126.98 -132.325)"/><path class="k" d="M164.991,167.717c.568,2.136,1.454,4.482,2.533,9.656a116.316,116.316,0,0,1,1.931,18.71c-2.92,2.6-12.627,2.158-22.368,1.7-.028-6.333-2.63-12.178-9.7-25.145a5.231,5.231,0,0,1,2.84-7.623c.846-.284,1.749-.568,2.687-.829a72.593,72.593,0,0,1,9.929-2.272c1.1-.148,2.272-.261,3.351-.358a8.446,8.446,0,0,1,8.8,6.157Z" transform="translate(-126.98 -132.325)"/><path class="f" d="M158.675,162.2l-10.025,2.158a70.959,70.959,0,0,1,14.615,8.6C165.037,164.029,158.675,162.2,158.675,162.2Z" transform="translate(-132.16 -132.613)"/><path class="i" d="M144.44,146.23c1.59,3,3.976,8.611,2.391,11.218,0,0,9.048,2.613,13.876,6.765.648-6.714-3.851-8.912-3.851-8.912-3.817,0-4.624-2.76-4.748-5.339Z" transform="translate(-130.342 -125.714)"/><path class="f" d="M154.651,165.049a32.269,32.269,0,0,1-6.146-.721.142.142,0,0,1-.108-.17.148.148,0,0,1,.17-.108c.057,0,5.413,1.2,8.52.488.994-.227,1.579-.568,1.7-1.085a1.653,1.653,0,0,0-.449-1.369.143.143,0,0,1,.2-.2,1.914,1.914,0,0,1,.517,1.647c-.182.568-.835,1.028-1.937,1.278A11.61,11.61,0,0,1,154.651,165.049Z" transform="translate(-132.05 -132.457)"/><path class="j" d="M165.621,166.576h0a.568.568,0,0,1-.767-.108l-.312-.409a.568.568,0,0,1,.108-.767h0a.568.568,0,0,1,.767.108l.312.415A.568.568,0,0,1,165.621,166.576Z" transform="translate(-138.982 -133.904)"/><path class="l" d="M149.94,148.91l4.544,2.21a9.946,9.946,0,0,0,.227,1.8c-1.42.114-3.743-.926-4.317-2.272a4.97,4.97,0,0,1-.454-1.738Z" transform="translate(-132.718 -126.871)"/><path class="i" d="M135.795,130.568c2.34,4.851,3.221,6.947,6.816,8.611,5.379,2.5,10.877-1.068,10.048-6.43-.744-4.828-4.436-11.928-10.156-12.218a6.9,6.9,0,0,0-6.708,10.037Z" transform="translate(-126.274 -114.601)"/><path class="h" d="M135.36,125.5c2.539,3.607,2.408,9.525-.568,10.326-4.544-.7-5.532-1.88-5.532-1.88S130.714,122.822,135.36,125.5Z" transform="translate(-123.784 -116.58)"/><path class="h" d="M133.7,124.355c6.714.858,12.059-1.948,13.064-3.522C140.686,116.727,134.365,120.22,133.7,124.355Z" transform="translate(-125.702 -113.949)"/><path class="n" d="M158.38,133.29A13.389,13.389,0,0,0,161,135.426c-.329.7-1.363.8-1.363.8Z" transform="translate(-136.364 -120.124)"/><path class="h" d="M155.664,141.77a4.63,4.63,0,0,0,.721-.182.119.119,0,0,0,.068-.165.142.142,0,0,0-.176-.08,3.754,3.754,0,0,1-3.232-.352.131.131,0,0,0-.182,0,.136.136,0,0,0,.034.182,3.942,3.942,0,0,0,2.766.6Z" transform="translate(-133.972 -123.435)"/><path class="i" d="M135.858,144.26a3.681,3.681,0,0,0,2.965.358c1.2-.42.852-1.886-.284-2.84-1.017-.841-2.874-1.63-3.692-.7S134.642,143.584,135.858,144.26Z" transform="translate(-126.036 -123.306)"/><path class="f" d="M139.419,147.52a1.653,1.653,0,1,0,1.174.484A1.659,1.659,0,0,0,139.419,147.52Zm0,2.925a1.267,1.267,0,1,1,.9-.369A1.272,1.272,0,0,1,139.419,150.445Z" transform="translate(-127.456 -126.271)"/><path class="h" d="M146.865,130.983a.221.221,0,0,0,.108-.165,1.931,1.931,0,0,1,1.062-1.5.244.244,0,0,0,.125-.335.278.278,0,0,0-.358-.131,2.391,2.391,0,0,0-1.363,1.874.278.278,0,0,0,.426.256Z" transform="translate(-131.205 -118.197)"/><path class="h" d="M159.526,126.488a.222.222,0,0,0,.17-.091.261.261,0,0,0-.062-.364,2.755,2.755,0,0,0-2.391-.568.239.239,0,0,0-.148.324.284.284,0,0,0,.341.17,2.2,2.2,0,0,1,1.891.449.239.239,0,0,0,.2.08Z" transform="translate(-135.8 -116.712)"/><path class="h" d="M160.435,130.234c.142.42.04.835-.239.932s-.619-.176-.767-.6-.04-.841.239-.932S160.293,129.836,160.435,130.234Z" transform="translate(-136.789 -118.538)"/><path class="h" d="M151.765,133.823c.148.42.04.835-.239.932s-.619-.176-.767-.568-.04-.841.239-.932S151.617,133.4,151.765,133.823Z" transform="translate(-133.043 -120.1)"/><path class="h" d="M150.81,132.89l.466-1S151.543,132.844,150.81,132.89Z" transform="translate(-133.094 -119.519)"/><path class="h" d="M159.42,129.43l.466-1S160.153,129.379,159.42,129.43Z" transform="translate(-136.813 -118.024)"/><path class="o" d="M145.25,182.15,140.32,184c2.028,3.76,3.635,6.873,4.868,9.576a67.892,67.892,0,0,1,.062-11.428Z" transform="translate(-128.562 -141.231)"/><rect class="j" width="6.481" height="93.385" transform="translate(54.029 173.876) rotate(180)"/><path class="l" d="M203.34,251.83h6.481v15.705l-6.481-1.67Z" transform="translate(-155.787 -171.333)"/><path class="j" d="M0,0H57.811V10.826A14.836,14.836,0,0,1,42.975,25.662H14.836A14.836,14.836,0,0,1,0,10.826Z" transform="translate(85.445 92.124) rotate(180)"/><path class="i" d="M169.028,239.388l-.96-1.369a1.954,1.954,0,0,0-1.579-.829h-2.942a3.63,3.63,0,0,0-2.971,1.5l-.426.568c1.437,2.386,4.743,3.9,4.743,3.9l.9.54a1.613,1.613,0,0,0,2.244-.511l1.085-1.755A1.874,1.874,0,0,0,169.028,239.388Z" transform="translate(-137.128 -165.008)"/><path class="j" d="M143.36,177.04c-.148.312-.341.767-.506,1.136l-.506,1.261c-.329.846-.642,1.7-.926,2.562a47.207,47.207,0,0,0-1.4,5.192c-.17.863-.312,1.7-.42,2.567a24.715,24.715,0,0,0-.148,2.471,10.088,10.088,0,0,0,.721,4.078l.216.454a.905.905,0,0,1,.04.114A10.1,10.1,0,0,0,142.082,200a28.748,28.748,0,0,0,2.783,3.209c1.045,1.022,2.164,2.016,3.323,2.971.568.477,1.181.937,1.784,1.386s1.238.9,1.8,1.272l-3.221,5.112c-.772-.483-1.426-.926-2.124-1.4s-1.358-.954-2.028-1.448c-1.34-.977-2.653-2.016-3.931-3.141a35.629,35.629,0,0,1-3.715-3.7,20.3,20.3,0,0,1-1.7-2.272,15.04,15.04,0,0,1-1.437-2.766l.256.568a16.966,16.966,0,0,1-2.056-7.2,36.068,36.068,0,0,1,.182-6.634,57.618,57.618,0,0,1,1.091-6.248q.341-1.528.761-3.044c.136-.506.278-1.005.432-1.511s.3-.983.511-1.585Z" transform="translate(-124.854 -137.525)"/><path class="k" d="M143.36,177.04c-.148.312-.341.767-.506,1.136l-.506,1.261c-.329.846-.642,1.7-.926,2.562a47.207,47.207,0,0,0-1.4,5.192c-.17.863-.312,1.7-.42,2.567a24.715,24.715,0,0,0-.148,2.471,10.088,10.088,0,0,0,.721,4.078l.216.454a.905.905,0,0,1,.04.114A10.1,10.1,0,0,0,142.082,200a28.748,28.748,0,0,0,2.783,3.209c1.045,1.022,2.164,2.016,3.323,2.971.568.477,1.181.937,1.784,1.386s1.238.9,1.8,1.272l-3.221,5.112c-.772-.483-1.426-.926-2.124-1.4s-1.358-.954-2.028-1.448c-1.34-.977-2.653-2.016-3.931-3.141a35.629,35.629,0,0,1-3.715-3.7,20.3,20.3,0,0,1-1.7-2.272,15.04,15.04,0,0,1-1.437-2.766l.256.568a16.966,16.966,0,0,1-2.056-7.2,36.068,36.068,0,0,1,.182-6.634,57.618,57.618,0,0,1,1.091-6.248q.341-1.528.761-3.044c.136-.506.278-1.005.432-1.511s.3-.983.511-1.585Z" transform="translate(-124.854 -137.525)"/><rect class="m" width="28.139" height="7.151" transform="translate(55.772 88.915) rotate(180)"/><path class="l" d="M217.81,252.782V241.956a14.836,14.836,0,1,1,29.672,0v10.826" transform="translate(-162.038 -160.658)"/><rect class="j" width="40.601" height="1.903" transform="translate(96.373 94.027) rotate(180)"/><rect class="l" width="29.672" height="1.903" transform="translate(96.373 94.027) rotate(180)"/><rect class="e" width="1.051" height="25.066" transform="translate(51.848 84.354) rotate(180)"/><path class="j" d="M198.51,219.958h7.35v-3.6a.477.477,0,0,0-.477-.477H198.51l1.2,2.039Z" transform="translate(-153.7 -155.802)"/></g><g transform="translate(139.092 65.252)"><path class="j" d="M328.366,87.455a.284.284,0,0,1-.273-.222.278.278,0,0,1,.21-.341,13.259,13.259,0,0,0,1.852-.568.284.284,0,0,1,.21.528,13.413,13.413,0,0,1-1.931.608Z" transform="translate(-280.824 -85.217)"/><path class="j" d="M271.076,184.75a.29.29,0,0,1-.284-.273.284.284,0,0,1,.273-.3c1.312-.068,2.653-.187,3.976-.364a.29.29,0,0,1,.318.244.278.278,0,0,1-.244.318c-1.34.182-2.7.3-4.027.364Zm7.952-1.051a.286.286,0,1,1-.062-.568c1.335-.29,2.636-.63,3.862-1.017a.284.284,0,1,1,.17.54c-1.244.392-2.556.738-3.914,1.034Zm7.64-2.454a.278.278,0,0,1-.256-.165.284.284,0,0,1,.136-.381,20.669,20.669,0,0,0,2.778-1.505l.676-.454a.284.284,0,0,1,.392.08.278.278,0,0,1-.074.392l-.682.454a21.13,21.13,0,0,1-2.84,1.551.307.307,0,0,1-.114.028Zm6.685-4.425a.3.3,0,0,1-.216-.1.29.29,0,0,1,.028-.4,24.124,24.124,0,0,0,2.789-2.84.29.29,0,0,1,.4-.034.278.278,0,0,1,.034.4,25.311,25.311,0,0,1-2.84,2.891.278.278,0,0,1-.182.085Zm5.049-6.191a.261.261,0,0,1-.131-.034.284.284,0,0,1-.125-.381q.278-.534.511-1.091a17.811,17.811,0,0,0,.852-2.613.292.292,0,1,1,.568.136,17.853,17.853,0,0,1-.88,2.7c-.159.381-.335.755-.528,1.136a.278.278,0,0,1-.25.148Zm1.971-7.736h0a.284.284,0,0,1-.267-.307c.051-.772.079-1.59.079-2.494V158.6a.284.284,0,0,1,.278-.3.278.278,0,0,1,.29.278c0,.506,0,1.005,0,1.511,0,.92-.028,1.749-.08,2.533a.284.284,0,0,1-.284.267Zm-.108-8.037a.284.284,0,0,1-.284-.267c-.051-1.136-.1-2.4-.1-3.635v-.4a.261.261,0,0,1,.284-.278.284.284,0,0,1,.284.284v.4c0,1.227.051,2.459.1,3.607a.284.284,0,0,1-.273.3Zm24.282-3.5c-.517,0-1.022,0-1.505-.034a.284.284,0,1,1,.023-.568c.477,0,.977.034,1.482.034a22.657,22.657,0,0,0,2.494-.125.286.286,0,1,1,.063.568,23.854,23.854,0,0,1-2.539.125Zm-5.5-.29h0c-1.329-.1-2.681-.222-4.01-.358a.285.285,0,1,1,.057-.568c1.323.136,2.67.261,3.976.364a.284.284,0,0,1,0,.568Zm11.928-.812a.3.3,0,0,1-.261-.165.284.284,0,0,1,.142-.375,6.356,6.356,0,0,0,2.891-2.454.284.284,0,1,1,.483.3,6.89,6.89,0,0,1-3.135,2.675A.3.3,0,0,1,330.972,150.255Zm-19.908,0h-.034c-1.323-.17-2.67-.364-3.976-.568a.284.284,0,0,1-.239-.324.29.29,0,0,1,.324-.239c1.318.2,2.653.4,3.976.568a.285.285,0,0,1-.034.568Zm-7.952-1.233h-.051c-1.312-.239-2.641-.5-3.948-.772a.29.29,0,0,1,.114-.568c1.306.273,2.63.534,3.936.772a.284.284,0,0,1,.233.329.29.29,0,0,1-.278.227Zm-7.867-1.647h-.068c-1.3-.307-2.613-.636-3.9-.977a.293.293,0,0,1,.142-.568c1.289.341,2.6.67,3.891.971a.3.3,0,0,1,.216.346.284.284,0,0,1-.273.216Zm5.214-.534h-.045a.29.29,0,0,1-.239-.324,19.976,19.976,0,0,1,1.005-3.959.284.284,0,0,1,.534.193,19.312,19.312,0,0,0-.966,3.84.284.284,0,0,1-.284.239Zm-12.99-1.517a.2.2,0,0,1-.08,0c-1.278-.369-2.579-.767-3.851-1.176a.278.278,0,0,1-.182-.358.284.284,0,0,1,.358-.182c1.267.4,2.556.8,3.834,1.17a.284.284,0,0,1,.193.352.278.278,0,0,1-.267.182Zm47.32-1.46a.29.29,0,0,1-.278-.233,5.941,5.941,0,0,0-2.011-3.186.278.278,0,0,1,0-.4.284.284,0,0,1,.4,0,6.458,6.458,0,0,1,2.187,3.5.284.284,0,0,1-.221.335Zm-54.971-.994a.267.267,0,0,1-.1,0c-1.3-.46-2.562-.937-3.777-1.414a.29.29,0,0,1-.159-.369.284.284,0,0,1,.369-.159c1.2.477,2.471.949,3.754,1.409a.266.266,0,0,1-.085.523Zm-7.475-2.971a.262.262,0,0,1-.114,0c-1.25-.568-2.476-1.136-3.641-1.732a.284.284,0,1,1,.256-.506c1.136.568,2.374,1.136,3.618,1.7a.29.29,0,0,1-.119.568Zm30.967-.494a.313.313,0,0,1-.17-.051.284.284,0,0,1-.057-.4,10.984,10.984,0,0,1,2.7-2.613l.3-.187a.284.284,0,1,1,.3.483l-.278.176a10.469,10.469,0,0,0-2.562,2.476.29.29,0,0,1-.222.1Zm26.054-1.136a.3.3,0,0,1-.136-.034c-.477-.256-.943-.494-1.386-.716-.721-.352-1.465-.682-2.215-.977a.284.284,0,1,1,.2-.528c.767.3,1.528.636,2.272,1,.443.222.92.46,1.4.721a.29.29,0,0,1,.114.386.278.278,0,0,1-.25.136Zm-64.184-2.016a.256.256,0,0,1-.142-.04c-1.187-.687-2.34-1.4-3.408-2.136a.284.284,0,0,1,.312-.471c1.079.721,2.221,1.437,3.408,2.119a.284.284,0,0,1-.142.528Zm56.715-.892h-.068a28.708,28.708,0,0,0-3.925-.648.284.284,0,0,1-.256-.307.29.29,0,0,1,.312-.256,28.918,28.918,0,0,1,3.976.659.286.286,0,0,1-.062.568Zm-11.956-.182a.29.29,0,0,1-.278-.222.284.284,0,0,1,.21-.341,20.685,20.685,0,0,1,3.033-.483c.329,0,.665-.051.994-.068a.273.273,0,0,1,.3.267.284.284,0,0,1-.267.3c-.329,0-.653.045-.977.074a20.18,20.18,0,0,0-2.948.466Zm-51.421-3.408a.284.284,0,0,1-.176-.057c-1.079-.846-2.113-1.732-3.073-2.624a.284.284,0,0,1,0-.4.29.29,0,0,1,.4,0c.949.886,1.971,1.761,3.039,2.6a.284.284,0,0,1,.045.4.273.273,0,0,1-.233.074Zm-5.862-5.481a.3.3,0,0,1-.216-.1A34.781,34.781,0,0,1,249.947,123a.29.29,0,0,1,.068-.4.3.3,0,0,1,.4.074A33.684,33.684,0,0,0,252.9,125.8a.277.277,0,0,1-.239.471Zm-4.544-6.606a.278.278,0,0,1-.25-.159,28.728,28.728,0,0,1-1.607-3.72.29.29,0,0,1,.176-.364.284.284,0,0,1,.358.176,28.026,28.026,0,0,0,1.579,3.652.284.284,0,0,1-.125.381.261.261,0,0,1-.131.017Zm-2.6-7.588a.278.278,0,0,1-.278-.239c-.057-.3-.1-.6-.148-.909a22.2,22.2,0,0,1-.21-3.022v-.119a.284.284,0,0,1,.568,0v.114a21.016,21.016,0,0,0,.2,2.942c.045.3.091.6.142.892a.284.284,0,0,1-.227.329Zm.028-8h-.051a.284.284,0,0,1-.227-.329,24.118,24.118,0,0,1,1.074-3.919.3.3,0,0,1,.369-.17.284.284,0,0,1,.165.364,23.169,23.169,0,0,0-1.051,3.828.278.278,0,0,1-.307.227Zm2.772-7.5a.335.335,0,0,1-.142-.04.29.29,0,0,1-.1-.392,22.232,22.232,0,0,1,2.357-3.311.284.284,0,0,1,.426.369,22.4,22.4,0,0,0-2.272,3.232.284.284,0,0,1-.284.142Zm5.231-6.049a.284.284,0,0,1-.176-.506,21.261,21.261,0,0,1,3.436-2.175.286.286,0,1,1,.256.511,21.016,21.016,0,0,0-3.346,2.113.278.278,0,0,1-.187.057Zm34.887-3.539h0a30.546,30.546,0,0,1-4.038-.358.287.287,0,0,1,.079-.568,29.536,29.536,0,0,0,3.976.352.284.284,0,0,1,0,.568Zm-27.8-.148a.288.288,0,0,1-.091-.568,34.52,34.52,0,0,1,3.919-1.022.284.284,0,0,1,.335.227.273.273,0,0,1-.221.329,34.644,34.644,0,0,0-3.857,1.005Zm19.835-.892h-.051c-1.221-.227-2.6-.483-3.976-.676a.284.284,0,0,1-.239-.318.278.278,0,0,1,.318-.244c1.363.193,2.749.454,3.976.682a.284.284,0,0,1,.227.329.29.29,0,0,1-.256.244ZM268.5,85.236a.285.285,0,0,1-.034-.568c.721-.08,1.494-.153,2.272-.216.5-.04,1.028-.062,1.568-.062h.187a.284.284,0,0,1,.278.29.3.3,0,0,1-.284.278H272.3a13.487,13.487,0,0,0-1.528.057c-.784.062-1.545.136-2.272.222Z" transform="translate(-244.88 -84.39)"/><path class="j" d="M282.108,260.563h0c-.676-.028-1.346-.08-1.994-.142a.278.278,0,0,1-.256-.307.273.273,0,0,1,.307-.256c.642.062,1.3.108,1.971.136a.284.284,0,0,1,0,.568Z" transform="translate(-259.99 -160.191)"/><g class="p" transform="translate(0 0)"><path class="f" d="M328.366,87.455a.284.284,0,0,1-.273-.222.278.278,0,0,1,.21-.341,13.259,13.259,0,0,0,1.852-.568.284.284,0,0,1,.21.528,13.413,13.413,0,0,1-1.931.608Z" transform="translate(-280.824 -85.217)"/><path class="f" d="M271.076,184.75a.29.29,0,0,1-.284-.273.284.284,0,0,1,.273-.3c1.312-.068,2.653-.187,3.976-.364a.29.29,0,0,1,.318.244.278.278,0,0,1-.244.318c-1.34.182-2.7.3-4.027.364Zm7.952-1.051a.286.286,0,1,1-.062-.568c1.335-.29,2.636-.63,3.862-1.017a.284.284,0,1,1,.17.54c-1.244.392-2.556.738-3.914,1.034Zm7.64-2.454a.278.278,0,0,1-.256-.165.284.284,0,0,1,.136-.381,20.669,20.669,0,0,0,2.778-1.505l.676-.454a.284.284,0,0,1,.392.08.278.278,0,0,1-.074.392l-.682.454a21.13,21.13,0,0,1-2.84,1.551.307.307,0,0,1-.114.028Zm6.685-4.425a.3.3,0,0,1-.216-.1.29.29,0,0,1,.028-.4,24.124,24.124,0,0,0,2.789-2.84.29.29,0,0,1,.4-.034.278.278,0,0,1,.034.4,25.311,25.311,0,0,1-2.84,2.891.278.278,0,0,1-.182.085Zm5.049-6.191a.261.261,0,0,1-.131-.034.284.284,0,0,1-.125-.381q.278-.534.511-1.091a17.811,17.811,0,0,0,.852-2.613.292.292,0,1,1,.568.136,17.853,17.853,0,0,1-.88,2.7c-.159.381-.335.755-.528,1.136a.278.278,0,0,1-.25.148Zm1.971-7.736h0a.284.284,0,0,1-.267-.307c.051-.772.079-1.59.079-2.494V158.6a.284.284,0,0,1,.278-.3.278.278,0,0,1,.29.278c0,.506,0,1.005,0,1.511,0,.92-.028,1.749-.08,2.533a.284.284,0,0,1-.284.267Zm-.108-8.037a.284.284,0,0,1-.284-.267c-.051-1.136-.1-2.4-.1-3.635v-.4a.261.261,0,0,1,.284-.278.284.284,0,0,1,.284.284v.4c0,1.227.051,2.459.1,3.607a.284.284,0,0,1-.273.3Zm24.282-3.5c-.517,0-1.022,0-1.505-.034a.284.284,0,1,1,.023-.568c.477,0,.977.034,1.482.034a22.657,22.657,0,0,0,2.494-.125.286.286,0,1,1,.063.568,23.854,23.854,0,0,1-2.539.125Zm-5.5-.29h0c-1.329-.1-2.681-.222-4.01-.358a.285.285,0,1,1,.057-.568c1.323.136,2.67.261,3.976.364a.284.284,0,0,1,0,.568Zm11.928-.812a.3.3,0,0,1-.261-.165.284.284,0,0,1,.142-.375,6.356,6.356,0,0,0,2.891-2.454.284.284,0,1,1,.483.3,6.89,6.89,0,0,1-3.135,2.675A.3.3,0,0,1,330.972,150.255Zm-19.908,0h-.034c-1.323-.17-2.67-.364-3.976-.568a.284.284,0,0,1-.239-.324.29.29,0,0,1,.324-.239c1.318.2,2.653.4,3.976.568a.285.285,0,0,1-.034.568Zm-7.952-1.233h-.051c-1.312-.239-2.641-.5-3.948-.772a.29.29,0,0,1,.114-.568c1.306.273,2.63.534,3.936.772a.284.284,0,0,1,.233.329.29.29,0,0,1-.278.227Zm-7.867-1.647h-.068c-1.3-.307-2.613-.636-3.9-.977a.293.293,0,0,1,.142-.568c1.289.341,2.6.67,3.891.971a.3.3,0,0,1,.216.346.284.284,0,0,1-.273.216Zm5.214-.534h-.045a.29.29,0,0,1-.239-.324,19.976,19.976,0,0,1,1.005-3.959.284.284,0,0,1,.534.193,19.312,19.312,0,0,0-.966,3.84.284.284,0,0,1-.284.239Zm-12.99-1.517a.2.2,0,0,1-.08,0c-1.278-.369-2.579-.767-3.851-1.176a.278.278,0,0,1-.182-.358.284.284,0,0,1,.358-.182c1.267.4,2.556.8,3.834,1.17a.284.284,0,0,1,.193.352.278.278,0,0,1-.267.182Zm47.32-1.46a.29.29,0,0,1-.278-.233,5.941,5.941,0,0,0-2.011-3.186.278.278,0,0,1,0-.4.284.284,0,0,1,.4,0,6.458,6.458,0,0,1,2.187,3.5.284.284,0,0,1-.221.335Zm-54.971-.994a.267.267,0,0,1-.1,0c-1.3-.46-2.562-.937-3.777-1.414a.29.29,0,0,1-.159-.369.284.284,0,0,1,.369-.159c1.2.477,2.471.949,3.754,1.409a.266.266,0,0,1-.085.523Zm-7.475-2.971a.262.262,0,0,1-.114,0c-1.25-.568-2.476-1.136-3.641-1.732a.284.284,0,1,1,.256-.506c1.136.568,2.374,1.136,3.618,1.7a.29.29,0,0,1-.119.568Zm30.967-.494a.313.313,0,0,1-.17-.051.284.284,0,0,1-.057-.4,10.984,10.984,0,0,1,2.7-2.613l.3-.187a.284.284,0,1,1,.3.483l-.278.176a10.469,10.469,0,0,0-2.562,2.476.29.29,0,0,1-.222.1Zm26.054-1.136a.3.3,0,0,1-.136-.034c-.477-.256-.943-.494-1.386-.716-.721-.352-1.465-.682-2.215-.977a.284.284,0,1,1,.2-.528c.767.3,1.528.636,2.272,1,.443.222.92.46,1.4.721a.29.29,0,0,1,.114.386.278.278,0,0,1-.25.136Zm-64.184-2.016a.256.256,0,0,1-.142-.04c-1.187-.687-2.34-1.4-3.408-2.136a.284.284,0,0,1,.312-.471c1.079.721,2.221,1.437,3.408,2.119a.284.284,0,0,1-.142.528Zm56.715-.892h-.068a28.708,28.708,0,0,0-3.925-.648.284.284,0,0,1-.256-.307.29.29,0,0,1,.312-.256,28.918,28.918,0,0,1,3.976.659.286.286,0,0,1-.062.568Zm-11.956-.182a.29.29,0,0,1-.278-.222.284.284,0,0,1,.21-.341,20.685,20.685,0,0,1,3.033-.483c.329,0,.665-.051.994-.068a.273.273,0,0,1,.3.267.284.284,0,0,1-.267.3c-.329,0-.653.045-.977.074a20.18,20.18,0,0,0-2.948.466Zm-51.421-3.408a.284.284,0,0,1-.176-.057c-1.079-.846-2.113-1.732-3.073-2.624a.284.284,0,0,1,0-.4.29.29,0,0,1,.4,0c.949.886,1.971,1.761,3.039,2.6a.284.284,0,0,1,.045.4.273.273,0,0,1-.233.074Zm-5.862-5.481a.3.3,0,0,1-.216-.1A34.781,34.781,0,0,1,249.947,123a.29.29,0,0,1,.068-.4.3.3,0,0,1,.4.074A33.684,33.684,0,0,0,252.9,125.8a.277.277,0,0,1-.239.471Zm-4.544-6.606a.278.278,0,0,1-.25-.159,28.728,28.728,0,0,1-1.607-3.72.29.29,0,0,1,.176-.364.284.284,0,0,1,.358.176,28.026,28.026,0,0,0,1.579,3.652.284.284,0,0,1-.125.381.261.261,0,0,1-.131.017Zm-2.6-7.588a.278.278,0,0,1-.278-.239c-.057-.3-.1-.6-.148-.909a22.2,22.2,0,0,1-.21-3.022v-.119a.284.284,0,0,1,.568,0v.114a21.016,21.016,0,0,0,.2,2.942c.045.3.091.6.142.892a.284.284,0,0,1-.227.329Zm.028-8h-.051a.284.284,0,0,1-.227-.329,24.118,24.118,0,0,1,1.074-3.919.3.3,0,0,1,.369-.17.284.284,0,0,1,.165.364,23.169,23.169,0,0,0-1.051,3.828.278.278,0,0,1-.307.227Zm2.772-7.5a.335.335,0,0,1-.142-.04.29.29,0,0,1-.1-.392,22.232,22.232,0,0,1,2.357-3.311.284.284,0,0,1,.426.369,22.4,22.4,0,0,0-2.272,3.232.284.284,0,0,1-.284.142Zm5.231-6.049a.284.284,0,0,1-.176-.506,21.261,21.261,0,0,1,3.436-2.175.286.286,0,1,1,.256.511,21.016,21.016,0,0,0-3.346,2.113.278.278,0,0,1-.187.057Zm34.887-3.539h0a30.546,30.546,0,0,1-4.038-.358.287.287,0,0,1,.079-.568,29.536,29.536,0,0,0,3.976.352.284.284,0,0,1,0,.568Zm-27.8-.148a.288.288,0,0,1-.091-.568,34.52,34.52,0,0,1,3.919-1.022.284.284,0,0,1,.335.227.273.273,0,0,1-.221.329,34.644,34.644,0,0,0-3.857,1.005Zm19.835-.892h-.051c-1.221-.227-2.6-.483-3.976-.676a.284.284,0,0,1-.239-.318.278.278,0,0,1,.318-.244c1.363.193,2.749.454,3.976.682a.284.284,0,0,1,.227.329.29.29,0,0,1-.256.244ZM268.5,85.236a.285.285,0,0,1-.034-.568c.721-.08,1.494-.153,2.272-.216.5-.04,1.028-.062,1.568-.062h.187a.284.284,0,0,1,.278.29.3.3,0,0,1-.284.278H272.3a13.487,13.487,0,0,0-1.528.057c-.784.062-1.545.136-2.272.222Z" transform="translate(-244.88 -84.39)"/><path class="f" d="M282.108,260.563h0c-.676-.028-1.346-.08-1.994-.142a.278.278,0,0,1-.256-.307.273.273,0,0,1,.307-.256c.642.062,1.3.108,1.971.136a.284.284,0,0,1,0,.568Z" transform="translate(-259.99 -160.191)"/></g></g><g transform="translate(191.641 45.519)"><rect class="j" width="23.731" height="12.746" rx="3.22" transform="translate(0.523) rotate(2.35)"/><rect class="q" width="23.731" height="12.746" rx="3.22" transform="translate(0.523) rotate(2.35)"/><path class="r" d="M350.453,60.133a.3.3,0,0,1-.165-.051l-10.383-7.145a.284.284,0,0,1-.074-.4.29.29,0,0,1,.392-.074l10.224,7.055,10.792-6.191a.285.285,0,0,1,.284.494L350.606,60.07a.267.267,0,0,1-.153.062Z" transform="translate(-338.426 -50.845)"/><path class="r" d="M372.4,67.318a.267.267,0,0,1-.159-.051L366.3,63.137a.284.284,0,0,1-.074-.4.29.29,0,0,1,.4-.068l5.941,4.141a.278.278,0,0,1,.068.392A.284.284,0,0,1,372.4,67.318Z" transform="translate(-349.826 -55.253)"/><path class="r" d="M339.444,66.169a.284.284,0,0,1-.148-.534l6.248-3.624a.284.284,0,0,1,.284.488l-6.248,3.63a.267.267,0,0,1-.136.04Z" transform="translate(-338.152 -54.978)"/></g><g transform="translate(189.047 51.285)"><path class="j" d="M377.924,59.8l-39.97,9.116L332.83,72.08Z" transform="translate(-332.83 -59.8)"/><path class="l" d="M337.953,68.916,332.83,72.08,377.924,59.8" transform="translate(-332.83 -59.8)"/><path class="j" d="M381.82,59.8l-39.97,9.116,3.76,2.766Z" transform="translate(-336.727 -59.8)"/><path class="j" d="M384.68,59.8l-34.267,7.009-1.943,4.873Z" transform="translate(-339.587 -59.8)"/><path class="l" d="M384.68,59.8l-34.267,7.009-1.943,4.873Z" transform="translate(-339.587 -59.8)"/><path class="j" d="M386.157,59.8,351.89,66.809l10.792,3.914Z" transform="translate(-341.064 -59.8)"/></g></g></svg>