<svg xmlns="http://www.w3.org/2000/svg" width="415.231" height="354.188" viewBox="0 0 415.231 354.188"><defs><style>.a{fill:#f5f5f5;}.b,.p{fill:#00263e;}.c,.d,.f,.g,.i,.q,.y{fill:#fafafa;}.c{opacity:0.8;}.d,.h,.n{opacity:0.6;}.e,.m,.q,.s{opacity:0.3;}.f,.o{opacity:0.1;}.g{opacity:0.9;}.j{opacity:0.5;}.k,.t,.y,.z{opacity:0.4;}.l{fill:#f3333e;opacity:0.2;}.m,.n,.r{fill:#c30000;}.p{mix-blend-mode:multiply;isolation:isolate;}.s,.t{fill:#fff;}.u{fill:#e4897b;}.v{fill:#263238;}.w{fill:#de5753;}.x{fill:#ce6f64;}</style></defs><g transform="translate(-57.465 -98.668)"><g transform="translate(57.465 428.613)"><ellipse class="a" cx="207.615" cy="12.121" rx="207.615" ry="12.121"/></g><g transform="translate(71.178 98.668)"><path class="b" d="M191.488,130.748h0a36.094,36.094,0,0,0-.482-5.954A37.478,37.478,0,0,0,154.418,93.42H154.1a37.3,37.3,0,0,0-30.261,15.526c-.568.782-1.071,1.585-1.585,2.388a.92.92,0,0,0-.107.171,37.114,37.114,0,0,0-5.354,19.274v.075a37.349,37.349,0,0,0,67.685,21.684c.557-.782,1.071-1.574,1.574-2.388a.924.924,0,0,0,.107-.171A36.889,36.889,0,0,0,191.488,130.748Zm-73.1-.846a35.336,35.336,0,0,1,4.958-17.347h11.682a58.979,58.979,0,0,0-2.773,17.347Zm18.278-17.347h16.661V129.9H133.858a57.159,57.159,0,0,1,2.805-17.347Zm18.268-1.606V94.973a13.064,13.064,0,0,1,6.425,2.388c3.973,2.72,7.3,7.5,9.637,13.588Zm16.64,1.606a55.477,55.477,0,0,1,2.57,12.368c.161,1.67.236,3.33.257,4.979H154.932V112.555Zm-20.6-17.133a11.318,11.318,0,0,1,2.356-.407v15.965H137.263c3-8.074,7.86-13.942,13.706-15.591Zm2.356,36.118v17.347H136.7a54.877,54.877,0,0,1-2.549-12.4q-.225-2.506-.257-4.979Zm0,18.953v15.976a13.1,13.1,0,0,1-6.425-2.388c-3.962-2.72-7.292-7.5-9.637-13.588Zm3.962,15.559a11.189,11.189,0,0,1-2.356.407v-16h16.062c-3,8.042-7.86,13.92-13.706,15.559Zm-2.356-17.133v-17.4H174.4a56.837,56.837,0,0,1-2.805,17.347ZM176,131.519h13.92a35.465,35.465,0,0,1-4.958,17.347H173.231A58.98,58.98,0,0,0,176,131.519Zm13.92-1.606H176c0-1.692-.107-3.405-.268-5.129a56.635,56.635,0,0,0-2.452-12.218h11.661a35.775,35.775,0,0,1,4.487,12.421,38.453,38.453,0,0,1,.45,4.915Zm-14.852-28.194a35.957,35.957,0,0,1,8.909,9.241H172.7c-2.4-6.628-6.007-11.875-10.429-14.916l-.343-.225a35.807,35.807,0,0,1,13.106,5.889ZM146.3,95.84c-4.508,2.966-8.213,8.363-10.708,15.12H124.35l.782-1.146a35.539,35.539,0,0,1,21.127-13.985ZM118.46,131.519h13.867c0,1.692.107,3.405.268,5.129a57.287,57.287,0,0,0,2.452,12.218H123.322a35.561,35.561,0,0,1-4.487-12.421,34.8,34.8,0,0,1-.45-4.926Zm5.932,18.953h11.2c2.4,6.628,6.007,11.875,10.43,14.916l.353.225a36,36,0,0,1-21.983-15.141Zm37.6,15.109c4.5-2.955,8.2-8.363,10.708-15.12h11.222c-.257.385-.514.771-.782,1.146A35.5,35.5,0,0,1,161.988,165.581Z" transform="translate(-66.527 -77.026)"/><path class="c" d="M191.488,130.748h0a36.094,36.094,0,0,0-.482-5.954A37.478,37.478,0,0,0,154.418,93.42H154.1a37.3,37.3,0,0,0-30.261,15.526c-.568.782-1.071,1.585-1.585,2.388a.92.92,0,0,0-.107.171,37.114,37.114,0,0,0-5.354,19.274v.075a37.349,37.349,0,0,0,67.685,21.684c.557-.782,1.071-1.574,1.574-2.388a.924.924,0,0,0,.107-.171A36.889,36.889,0,0,0,191.488,130.748Zm-73.1-.846a35.336,35.336,0,0,1,4.958-17.347h11.682a58.979,58.979,0,0,0-2.773,17.347Zm18.278-17.347h16.661V129.9H133.858a57.159,57.159,0,0,1,2.805-17.347Zm18.268-1.606V94.973a13.064,13.064,0,0,1,6.425,2.388c3.973,2.72,7.3,7.5,9.637,13.588Zm16.64,1.606a55.477,55.477,0,0,1,2.57,12.368c.161,1.67.236,3.33.257,4.979H154.932V112.555Zm-20.6-17.133a11.318,11.318,0,0,1,2.356-.407v15.965H137.263c3-8.074,7.86-13.942,13.706-15.591Zm2.356,36.118v17.347H136.7a54.877,54.877,0,0,1-2.549-12.4q-.225-2.506-.257-4.979Zm0,18.953v15.976a13.1,13.1,0,0,1-6.425-2.388c-3.962-2.72-7.292-7.5-9.637-13.588Zm3.962,15.559a11.189,11.189,0,0,1-2.356.407v-16h16.062c-3,8.042-7.86,13.92-13.706,15.559Zm-2.356-17.133v-17.4H174.4a56.837,56.837,0,0,1-2.805,17.347ZM176,131.519h13.92a35.465,35.465,0,0,1-4.958,17.347H173.231A58.98,58.98,0,0,0,176,131.519Zm13.92-1.606H176c0-1.692-.107-3.405-.268-5.129a56.635,56.635,0,0,0-2.452-12.218h11.661a35.775,35.775,0,0,1,4.487,12.421,38.453,38.453,0,0,1,.45,4.915Zm-14.852-28.194a35.957,35.957,0,0,1,8.909,9.241H172.7c-2.4-6.628-6.007-11.875-10.429-14.916l-.343-.225a35.807,35.807,0,0,1,13.106,5.889ZM146.3,95.84c-4.508,2.966-8.213,8.363-10.708,15.12H124.35l.782-1.146a35.539,35.539,0,0,1,21.127-13.985ZM118.46,131.519h13.867c0,1.692.107,3.405.268,5.129a57.287,57.287,0,0,0,2.452,12.218H123.322a35.561,35.561,0,0,1-4.487-12.421,34.8,34.8,0,0,1-.45-4.926Zm5.932,18.953h11.2c2.4,6.628,6.007,11.875,10.43,14.916l.353.225a36,36,0,0,1-21.983-15.141Zm37.6,15.109c4.5-2.955,8.2-8.363,10.708-15.12h11.222c-.257.385-.514.771-.782,1.146A35.5,35.5,0,0,1,161.988,165.581Z" transform="translate(-66.527 -77.026)"/><rect class="b" width="336.656" height="81.573" transform="translate(32.167 71.518)"/><rect class="d" width="336.656" height="81.573" transform="translate(32.167 71.518)"/><rect class="b" width="336.656" height="81.573" transform="translate(24.575 79.11)"/><rect class="e" width="336.656" height="81.573" transform="translate(24.575 79.11)"/><rect class="b" width="336.656" height="81.573" transform="translate(16.983 86.702)"/><rect class="f" width="336.656" height="81.573" transform="translate(16.983 86.702)"/><rect class="b" width="49.449" height="304.533" transform="translate(337.577 102.764) rotate(90)"/><rect class="g" width="49.449" height="304.533" transform="translate(337.577 102.764) rotate(90)"/><rect class="b" width="49.449" height="1.788" transform="translate(286.351 152.213) rotate(-90)"/><rect class="d" width="49.449" height="1.788" transform="translate(286.351 152.213) rotate(-90)"/><rect class="b" width="35.807" height="1.788" transform="translate(40.636 145.392) rotate(-90)"/><rect class="d" width="35.807" height="1.788" transform="translate(40.636 145.392) rotate(-90)"/><path class="b" d="M360.952,204.045a7.9,7.9,0,1,1,5.59-13.492h0a7.9,7.9,0,0,1-5.59,13.492Zm0-13.653a5.761,5.761,0,1,0,4.069,1.681h0a5.708,5.708,0,0,0-4.069-1.735Z" transform="translate(-49.802 -70.314)"/><path class="b" d="M370.432,206.643a1.071,1.071,0,0,1-.76-.321l-5.407-5.407a1.071,1.071,0,1,1,1.51-1.51l5.408,5.407a1.076,1.076,0,0,1-.75,1.831Z" transform="translate(-49.035 -69.55)"/><g class="h" transform="translate(303.25 117.926)"><path class="i" d="M360.952,204.045a7.9,7.9,0,1,1,5.59-13.492h0a7.9,7.9,0,0,1-5.59,13.492Zm0-13.653a5.761,5.761,0,1,0,4.069,1.681h0a5.708,5.708,0,0,0-4.069-1.735Z" transform="translate(-353.052 -188.24)"/><path class="i" d="M370.432,206.643a1.071,1.071,0,0,1-.76-.321l-5.407-5.407a1.071,1.071,0,1,1,1.51-1.51l5.408,5.407a1.076,1.076,0,0,1-.75,1.831Z" transform="translate(-352.285 -187.476)"/></g><rect class="b" width="33.666" height="0.835" transform="translate(204.842 22.208)"/><rect class="b" width="33.666" height="0.835" transform="translate(204.842 25.752)"/><rect class="b" width="33.666" height="0.835" transform="translate(204.842 29.308)"/><rect class="b" width="33.666" height="0.835" transform="translate(204.842 32.852)"/><rect class="b" width="33.666" height="0.835" transform="translate(204.842 36.396)"/><rect class="b" width="21.951" height="0.835" transform="translate(204.842 39.951)"/><g class="j" transform="translate(204.842 22.208)"><rect class="i" width="33.666" height="0.835"/><rect class="i" width="33.666" height="0.835" transform="translate(0 3.544)"/><rect class="i" width="33.666" height="0.835" transform="translate(0 7.099)"/><rect class="i" width="33.666" height="0.835" transform="translate(0 10.644)"/><rect class="i" width="33.666" height="0.835" transform="translate(0 14.188)"/><rect class="i" width="21.951" height="0.835" transform="translate(0 17.743)"/></g><rect class="b" width="35.871" height="0.535" transform="translate(0 175.32)"/><rect class="b" width="35.871" height="0.535" transform="translate(0 177.59)"/><rect class="b" width="35.871" height="0.535" transform="translate(0 179.861)"/><rect class="b" width="35.871" height="0.535" transform="translate(0 182.131)"/><rect class="b" width="35.871" height="0.535" transform="translate(0 184.401)"/><rect class="b" width="22.551" height="0.535" transform="translate(0 186.681)"/><g class="k" transform="translate(0 175.32)"><rect class="i" width="35.871" height="0.535" transform="translate(0 0)"/><rect class="i" width="35.871" height="0.535" transform="translate(0 2.27)"/><rect class="i" width="35.871" height="0.535" transform="translate(0 4.54)"/><rect class="i" width="35.871" height="0.535" transform="translate(0 6.81)"/><rect class="i" width="35.871" height="0.535" transform="translate(0 9.08)"/><rect class="i" width="22.551" height="0.535" transform="translate(0 11.361)"/></g><path class="b" d="M213.9,103.76h0a6.767,6.767,0,0,0-6.767,6.767v22.326a6.767,6.767,0,0,0,6.767,6.767h0a6.767,6.767,0,0,0,6.767-6.767V110.527a6.767,6.767,0,0,0-6.767-6.767Z" transform="translate(-60.132 -76.294)"/><path class="l" d="M213.9,103.76h0a6.767,6.767,0,0,0-6.767,6.767v22.326a6.767,6.767,0,0,0,6.767,6.767h0a6.767,6.767,0,0,0,6.767-6.767V110.527a6.767,6.767,0,0,0-6.767-6.767Z" transform="translate(-60.132 -76.294)"/><path class="b" d="M229.735,91.33h0A6.767,6.767,0,0,0,223,98.1v35.636a6.767,6.767,0,0,0,6.767,6.767h0a6.767,6.767,0,0,0,6.767-6.767V98.1a6.767,6.767,0,0,0-6.8-6.767Z" transform="translate(-59.009 -77.174)"/><path class="m" d="M229.735,91.33h0A6.767,6.767,0,0,0,223,98.1v35.636a6.767,6.767,0,0,0,6.767,6.767h0a6.767,6.767,0,0,0,6.767-6.767V98.1a6.767,6.767,0,0,0-6.8-6.767Z" transform="translate(-59.009 -77.174)"/><path class="b" d="M245.567,116.19h0a6.767,6.767,0,0,0-6.767,6.767v9.016a6.767,6.767,0,0,0,6.767,6.767h0a6.767,6.767,0,0,0,6.778-6.767v-9.016a6.767,6.767,0,0,0-6.778-6.767Z" transform="translate(-57.89 -75.414)"/><path class="n" d="M245.567,116.19h0a6.767,6.767,0,0,0-6.767,6.767v9.016a6.767,6.767,0,0,0,6.767,6.767h0a6.767,6.767,0,0,0,6.778-6.767v-9.016a6.767,6.767,0,0,0-6.778-6.767Z" transform="translate(-57.89 -75.414)"/><path class="b" d="M379.889,262.333h27.359L360.54,213.89h0l19.349,48.443" transform="translate(-49.272 -68.498)"/><g class="o" transform="translate(311.268 145.392)"><path d="M379.889,262.333h27.359L360.54,213.89h0l19.349,48.443" transform="translate(-360.54 -213.89)"/></g><path class="p" d="M354.05,236.762,361,213.89l3.94,22.872Z" transform="translate(-49.732 -68.498)"/><path class="b" d="M360.54,213.89v67.781l4.84-4.829,14.509-14.509Z" transform="translate(-49.272 -68.498)"/><path class="q" d="M360.54,213.89v67.781l4.84-4.829,14.509-14.509Z" transform="translate(-49.272 -68.498)"/><path class="r" d="M410.443,78.11H350.479A11.522,11.522,0,0,0,339,89.578v30.967a11.522,11.522,0,0,0,11.468,11.468h44l-.321,10.826,11.1-10.826h5.172A11.522,11.522,0,0,0,421.9,120.545V89.578A11.522,11.522,0,0,0,410.443,78.11ZM349.13,91.3a3.212,3.212,0,0,1,3.212-3.212h13.8a3.212,3.212,0,1,1,0,6.425H352.331a3.212,3.212,0,0,1-3.2-3.212Zm57.908,29.982H383.181a3.212,3.212,0,1,1,0-6.328h23.857a3.212,3.212,0,1,1,0,6.328Zm0-13.4H355.544a3.212,3.212,0,1,1,0-6.328h51.494a3.212,3.212,0,1,1,0,6.328Zm0-13.4H376.553a3.212,3.212,0,0,1,0-6.425h30.485a3.212,3.212,0,1,1,0,6.425Z" transform="translate(-50.797 -78.11)"/></g><g transform="translate(117.645 130.07)"><path class="b" d="M325.29,171.039A57.5,57.5,0,0,0,313.779,152H228.641a57.5,57.5,0,0,0-11.511,19.039l11.779,58.636a57.534,57.534,0,0,0,96.371-58.636Z" transform="translate(-104.891 -124.282)"/><path class="f" d="M325.29,171.039A57.5,57.5,0,0,0,313.779,152H228.641a57.5,57.5,0,0,0-11.511,19.039l11.779,58.636a57.534,57.534,0,0,0,96.371-58.636Z" transform="translate(-104.891 -124.282)"/><path class="b" d="M328.911,192.085a57.341,57.341,0,0,1-15.162,36.332H229.156a57.619,57.619,0,0,1-11.779-58.636h108.15a57.2,57.2,0,0,1,3.384,22.3Z" transform="translate(-105.117 -123.023)"/><path class="g" d="M328.911,192.085a57.341,57.341,0,0,1-15.162,36.332H229.156a57.619,57.619,0,0,1-11.779-58.636h108.15a57.2,57.2,0,0,1,3.384,22.3Z" transform="translate(-105.117 -123.023)"/><path class="s" d="M328.9,194.583a57.405,57.405,0,1,1-3.394-22.3,57.405,57.405,0,0,1,3.394,22.3Z" transform="translate(-105.103 -125.521)"/><path class="t" d="M303.815,144.3l-82.729,75.448q-.621-1.146-1.221-2.313a56.752,56.752,0,0,1-5.215-16.062h0L286.1,136.2a57.2,57.2,0,0,1,17.711,8.1Z" transform="translate(-105.067 -125.4)"/><path class="t" d="M325.108,172.538l-77.729,70.929a57.48,57.48,0,0,1-20.859-15.676l84.935-77.461a57.555,57.555,0,0,1,13.653,22.208Z" transform="translate(-104.226 -124.4)"/><path class="b" d="M329.482,159.347a66.389,66.389,0,1,0-24.264,90.632,66.389,66.389,0,0,0,24.264-90.632Zm-102.8,59.365a143.06,143.06,0,1,0,.011,0Z" transform="translate(-105.709 -126.114)"/><path class="r" d="M329.482,159.347a66.389,66.389,0,1,0-24.264,90.632,66.389,66.389,0,0,0,24.264-90.632Zm-102.8,59.365a143.06,143.06,0,1,0,.011,0Z" transform="translate(-105.709 -126.114)"/><path class="u" d="M125.3,251.89l8.2,1.906-6.8,5.076s-4.872-2.206-5.1-5.664Z" transform="translate(-111.653 -117.21)"/><path class="u" d="M137.56,259.13l-5.911,3.941-5.279-4.326,6.8-5.065Z" transform="translate(-111.316 -117.084)"/><path class="b" d="M231.339,221.573C222.623,228,213.682,234.1,204.7,240.065s-18.086,11.779-27.23,17.486-18.375,11.3-27.637,16.726c-4.626,2.763-9.294,5.44-13.92,8.159a27.112,27.112,0,0,1-7.431,3.287,23.286,23.286,0,0,1-4.283.717,18.2,18.2,0,0,1-4.808-.246,8.781,8.781,0,0,1-6.907-10.333,7.5,7.5,0,0,1,.3-1.071,17.731,17.731,0,0,1,2.142-4.283,22.72,22.72,0,0,1,2.741-3.32,27.326,27.326,0,0,1,6.564-4.8c4.679-2.666,9.327-5.354,14.038-8,9.38-5.3,18.846-10.462,28.333-15.559s19.092-10.033,28.751-14.852,19.392-9.509,29.329-13.835a6.65,6.65,0,0,1,6.617,11.447Z" transform="translate(-112.311 -120.206)"/><path class="r" d="M231.339,221.573C222.623,228,213.682,234.1,204.7,240.065s-18.086,11.779-27.23,17.486-18.375,11.3-27.637,16.726c-4.626,2.763-9.294,5.44-13.92,8.159a27.112,27.112,0,0,1-7.431,3.287,23.286,23.286,0,0,1-4.283.717,18.2,18.2,0,0,1-4.808-.246,8.781,8.781,0,0,1-6.907-10.333,7.5,7.5,0,0,1,.3-1.071,17.731,17.731,0,0,1,2.142-4.283,22.72,22.72,0,0,1,2.741-3.32,27.326,27.326,0,0,1,6.564-4.8c4.679-2.666,9.327-5.354,14.038-8,9.38-5.3,18.846-10.462,28.333-15.559s19.092-10.033,28.751-14.852,19.392-9.509,29.329-13.835a6.65,6.65,0,0,1,6.617,11.447Z" transform="translate(-112.311 -120.206)"/><path class="u" d="M137.448,204.831c-.535.867-1.146,1.917-1.724,2.9s-1.146,2.013-1.681,3.052q-1.606,3.068-3.212,6.232c-1.071,2.109-1.938,4.283-2.816,6.425-.428,1.071-.878,2.142-1.274,3.212l-.6,1.638c-.118.311-.139.439-.214.664s-.107.439-.171.653a33.333,33.333,0,0,0-.632,6.425c-.054,2.3,0,4.647.128,7.014s.257,4.744.471,7.121.428,4.8.653,7.153l-4.133.846c-.728-2.388-1.3-4.765-1.863-7.174s-1-4.829-1.413-7.292-.7-4.936-.878-7.5a37.243,37.243,0,0,1,.2-8.042,10.523,10.523,0,0,1,.214-1.071c.1-.343.193-.825.278-1.071l.525-1.82c.343-1.21.739-2.409,1.146-3.6.825-2.388,1.724-4.733,2.731-7.046s2.077-4.572,3.212-6.8c.589-1.071,1.21-2.217,1.842-3.319s1.264-2.142,2.056-3.309Z" transform="translate(-111.911 -120.874)"/><path class="b" d="M132.042,411.139a10.064,10.064,0,0,1-2.142-.3.182.182,0,0,1-.15-.15.2.2,0,0,1,.086-.2c.289-.193,2.816-1.82,3.791-1.381a.664.664,0,0,1,.385.557,1.071,1.071,0,0,1-.321,1.071,2.42,2.42,0,0,1-1.649.407Zm-1.638-.578c1.456.289,2.548.236,2.966-.15a.728.728,0,0,0,.2-.7.289.289,0,0,0-.171-.257C132.9,409.233,131.431,409.94,130.4,410.561Z" transform="translate(-111.077 -106.086)"/><path class="b" d="M129.893,410.978a.172.172,0,0,1-.1,0,.182.182,0,0,1-.1-.171c0-.1,0-2.495.91-3.3a1.071,1.071,0,0,1,.835-.268.685.685,0,0,1,.664.557c.193.932-1.328,2.731-2.142,3.212a.171.171,0,0,1-.075-.032Zm1.424-3.384a.664.664,0,0,0-.439.171,4.476,4.476,0,0,0-.771,2.634c.792-.643,1.735-1.992,1.617-2.559,0-.1-.075-.2-.321-.236Z" transform="translate(-111.08 -106.214)"/><path class="b" d="M167.494,411.139a13.406,13.406,0,0,1-2.623-.3.182.182,0,0,1-.161-.161.2.2,0,0,1,.107-.2c.375-.193,3.694-1.885,4.712-1.328a.632.632,0,0,1,.343.525,1.071,1.071,0,0,1-.364.953,3.106,3.106,0,0,1-2.013.514Zm-1.97-.578c1.852.311,3.212.225,3.726-.225a.728.728,0,0,0,.225-.632.246.246,0,0,0-.128-.214C168.79,409.19,166.884,409.908,165.524,410.561Z" transform="translate(-108.602 -106.086)"/><path class="b" d="M164.9,410.977a.139.139,0,0,1-.107,0,.161.161,0,0,1-.086-.171c0-.1.2-2.345,1.242-3.212a1.488,1.488,0,0,1,1.071-.343c.546.053.7.332.739.557.15.942-1.81,2.741-2.805,3.212Zm1.992-3.384a1.071,1.071,0,0,0-.685.257,4.594,4.594,0,0,0-1.071,2.57c1.007-.61,2.345-2.024,2.249-2.591,0,0,0-.193-.385-.225Z" transform="translate(-108.602 -106.213)"/><path class="u" d="M148.1,174.49c.653,5,2.142,15.141-1.478,18.2,0,0,1.071,5.1,10.194,5.686,10.087.653,5.14-4.69,5.14-4.69-5.418-1.67-5.011-5.75-3.8-9.519Z" transform="translate(-109.882 -122.689)"/><path class="v" d="M165.5,165.181a.364.364,0,0,1-.182-.054.385.385,0,0,1-.161-.535,3.909,3.909,0,0,1,2.923-2.142.4.4,0,0,1,.075.782h0a3.212,3.212,0,0,0-2.3,1.692.428.428,0,0,1-.353.257Z" transform="translate(-108.574 -123.542)"/><path class="w" d="M168.16,169.1a17.915,17.915,0,0,0,2.784,4.048,2.891,2.891,0,0,1-2.345.675Z" transform="translate(-108.358 -123.071)"/><path class="v" d="M167.5,168.165c.064.675.471,1.178.9,1.135s.75-.61.685-1.285-.471-1.178-.91-1.135S167.436,167.5,167.5,168.165Z" transform="translate(-108.405 -123.228)"/><path class="v" d="M168,166.97l1.563-.61S168.814,167.688,168,166.97Z" transform="translate(-108.369 -123.265)"/><path class="u" d="M156.33,411.816h8.341l.557-19.3h-8.341Z" transform="translate(-109.195 -107.255)"/><path class="u" d="M120.96,411.816H129.3l2.677-19.3h-8.331Z" transform="translate(-111.699 -107.255)"/><path class="v" d="M129.965,409.64H120.6a.664.664,0,0,0-.664.567l-1.071,7.41a1.339,1.339,0,0,0,1.328,1.488c3.212-.054,4.84-.246,8.963-.246,2.527,0,6.232.257,9.733.257s3.684-3.459,2.227-3.769c-6.532-1.4-7.56-3.341-9.766-5.193A2.141,2.141,0,0,0,129.965,409.64Z" transform="translate(-111.848 -106.043)"/><path class="v" d="M165.114,409.64h-9.359a.653.653,0,0,0-.664.568l-1.071,7.41a1.349,1.349,0,0,0,1.338,1.488c3.212-.054,4.84-.246,8.952-.246,2.538,0,7.774.257,11.275.257s3.684-3.459,2.227-3.769c-6.532-1.4-9.1-3.341-11.308-5.193A2.142,2.142,0,0,0,165.114,409.64Z" transform="translate(-109.359 -106.043)"/><path class="x" d="M165.2,392.52l-.278,9.948H156.58l.289-9.948Z" transform="translate(-109.177 -107.255)"/><path class="x" d="M123.551,392.52h8.341l-1.381,9.948H122.17Z" transform="translate(-111.613 -107.255)"/><path class="b" d="M140.6,206.668a42.768,42.768,0,0,1-5.472,6.874l-.953-.632L123.62,205.9s5.761-12.849,10.1-13.5c4.144-.664,7.164,3.619,8.566,8.2C142.819,202.257,141.931,204.505,140.6,206.668Z" transform="translate(-111.511 -121.427)"/><path class="d" d="M140.6,206.668a42.768,42.768,0,0,1-5.472,6.874l-.953-.632L123.62,205.9s5.761-12.849,10.1-13.5c4.144-.664,7.164,3.619,8.566,8.2C142.819,202.257,141.931,204.505,140.6,206.668Z" transform="translate(-111.511 -121.427)"/><path class="b" d="M139.9,205.895a42.768,42.768,0,0,1-5.472,6.874l-.953-.632c.471-3.855,1.97-7.678,3.684-8.888C138.213,203.357,139.144,204.471,139.9,205.895Z" transform="translate(-110.813 -120.654)"/><path class="y" d="M139.9,205.895a42.768,42.768,0,0,1-5.472,6.874l-.953-.632c.471-3.855,1.97-7.678,3.684-8.888C138.213,203.357,139.144,204.471,139.9,205.895Z" transform="translate(-110.813 -120.654)"/><path class="b" d="M176.053,213.138h0c-.5,3.212-1.156,6.992-2.035,11.479-1.071,5.739-2.57,12.625-4.465,20.859l-33.783-2.142c1.456-13.717,2.024-22.2-2.72-50.841a99.389,99.389,0,0,1,14.477-.953,107.676,107.676,0,0,1,15.334,1c6.553,1.071,13.92,3.041,13.92,3.041S178.666,196.316,176.053,213.138Z" transform="translate(-110.843 -121.483)"/><path class="d" d="M176.053,213.138h0c-.5,3.212-1.156,6.992-2.035,11.479-1.071,5.739-2.57,12.625-4.465,20.859l-33.783-2.142c1.456-13.717,2.024-22.2-2.72-50.841a99.389,99.389,0,0,1,14.477-.953,107.676,107.676,0,0,1,15.334,1c6.553,1.071,13.92,3.041,13.92,3.041S178.666,196.316,176.053,213.138Z" transform="translate(-110.843 -121.483)"/><path class="b" d="M173.65,211.76h0c-.5,3.212-1.156,6.992-2.035,11.479A82.962,82.962,0,0,1,167,211h6.275Z" transform="translate(-108.44 -120.105)"/><path class="y" d="M173.65,211.76h0c-.5,3.212-1.156,6.992-2.035,11.479A82.962,82.962,0,0,1,167,211h6.275Z" transform="translate(-108.44 -120.105)"/><path class="u" d="M146.291,168.79c1.274,8.17,1.649,11.661,6.2,15.484,6.842,5.761,16.6,2.4,17.786-6,1.071-7.549-1.2-19.649-9.562-22.155a11.275,11.275,0,0,0-14.424,12.667Z" transform="translate(-109.917 -124.025)"/><path class="b" d="M161.46,241.48s-.535,14.873-1.82,33.633c-1.071,15.741-2.688,34.2-4.947,48.914l-.064.407c-4.058,26.042-22.037,86.905-22.037,86.905H121.22s9.369-58.786,11.425-84.592c5.215-65.179-7.849-72.557,3.962-86.927Z" transform="translate(-111.681 -118.065)"/><path class="e" d="M161.46,241.48s-.535,14.873-1.82,33.633c-1.071,15.741-2.688,34.2-4.947,48.914l-.064.407c-4.058,26.042-22.037,86.905-22.037,86.905H121.22s9.369-58.786,11.425-84.592c5.215-65.179-7.849-72.557,3.962-86.927Z" transform="translate(-111.681 -118.065)"/><path class="b" d="M157.817,273.865c-1.071,15.741-2.688,34.2-4.947,48.914-3.844-19.114-10.162-47.029-1.681-65.318C153.212,262.653,155.568,268.521,157.817,273.865Z" transform="translate(-109.857 -116.816)"/><path class="z" d="M157.817,273.865c-1.071,15.741-2.688,34.2-4.947,48.914-3.844-19.114-10.162-47.029-1.681-65.318C153.212,262.653,155.568,268.521,157.817,273.865Z" transform="translate(-109.857 -116.816)"/><path class="b" d="M168.776,242.027s9.637,57.116,9.059,82.536c-.568,26.449-10.258,86.734-10.258,86.734H156.312s1.778-58.754.782-84.721c-1.071-28.312-13.064-86.166-13.064-86.166Z" transform="translate(-110.066 -118.023)"/><path class="e" d="M168.776,242.027s9.637,57.116,9.059,82.536c-.568,26.449-10.258,86.734-10.258,86.734H156.312s1.778-58.754.782-84.721c-1.071-28.312-13.064-86.166-13.064-86.166Z" transform="translate(-110.066 -118.023)"/><path class="v" d="M153.735,400.835h15.109l1.178-5.065-16.822.118Z" transform="translate(-109.417 -107.025)"/><path class="v" d="M119.68,400.835h15.109l1.178-5.065-16.18.118Z" transform="translate(-111.79 -107.025)"/><path class="v" d="M135.346,238.014l-1.713,2.934c-.139.225.128.482.514.5l35.432,2.3c.3,0,.568-.107.6-.3l.5-3.009c0-.2-.225-.4-.557-.418L135.86,237.8A.653.653,0,0,0,135.346,238.014Z" transform="translate(-110.804 -118.208)"/><path class="b" d="M139.37,242.13l-.91-.064c-.182,0-.321-.118-.3-.225l.685-3.908c0-.107.182-.193.364-.182l.921.054c.182,0,.311.118.3.236l-.685,3.9C139.723,242.055,139.552,242.14,139.37,242.13Z" transform="translate(-110.481 -118.211)"/><path class="e" d="M139.37,242.13l-.91-.064c-.182,0-.321-.118-.3-.225l.685-3.908c0-.107.182-.193.364-.182l.921.054c.182,0,.311.118.3.236l-.685,3.9C139.723,242.055,139.552,242.14,139.37,242.13Z" transform="translate(-110.481 -118.211)"/><path class="b" d="M160.08,243.469l-.91-.054c-.182,0-.321-.118-.3-.236l.685-3.9c0-.118.182-.193.375-.182l.91.054c.182,0,.321.118.3.236l-.685,3.9C160.466,243.4,160.294,243.48,160.08,243.469Z" transform="translate(-109.015 -118.116)"/><path class="e" d="M160.08,243.469l-.91-.054c-.182,0-.321-.118-.3-.236l.685-3.9c0-.118.182-.193.375-.182l.91.054c.182,0,.321.118.3.236l-.685,3.9C160.466,243.4,160.294,243.48,160.08,243.469Z" transform="translate(-109.015 -118.116)"/><path class="u" d="M176.226,203.31c1.285,4.283,2.506,8.62,3.694,12.946l3.587,12.946.45,1.606.118.4.054.2v.107a3.812,3.812,0,0,0,.139.418,6.865,6.865,0,0,0,1.071,1.8,17.872,17.872,0,0,0,4.39,3.384,56.61,56.61,0,0,0,11.779,4.754l-.621,4.176a44.533,44.533,0,0,1-14.006-3.03,22.2,22.2,0,0,1-6.735-4.155,13.341,13.341,0,0,1-2.784-3.662,10.02,10.02,0,0,1-.5-1.146l-.118-.289-.075-.2-.139-.4-.568-1.617c-1.5-4.283-2.891-8.566-4.208-12.914s-2.613-8.631-3.791-13Z" transform="translate(-108.372 -120.649)"/><path class="b" d="M174.616,195.322c4.283,1.4,8.78,15.409,8.78,15.409l-15.462,6.66s-6.425-15.719-3.576-19.274S169.7,193.715,174.616,195.322Z" transform="translate(-108.678 -121.27)"/><path class="d" d="M174.616,195.322c4.283,1.4,8.78,15.409,8.78,15.409l-15.462,6.66s-6.425-15.719-3.576-19.274S169.7,193.715,174.616,195.322Z" transform="translate(-108.678 -121.27)"/><path class="v" d="M168.7,155.849c-2.731-3.373-23.825-5.782-24.949,3.405-7.5,5.247-.385,18.8.685,22.251-5.172,1.435-21.833,7.131-9.637,18.2s30.485,9.187,34.062-2.27c2.506-8.01-5.45-21.416-5.279-26.106S173.379,161.578,168.7,155.849Z" transform="translate(-111.029 -124.222)"/><path class="v" d="M145.354,182.772a.246.246,0,0,1-.2-.1c-1.938-2.356-8.684-14.734-6.318-20.623a5.129,5.129,0,0,1,4.529-3.212.257.257,0,0,1,.289.236.268.268,0,0,1-.225.3,4.626,4.626,0,0,0-4.1,2.848c-2.281,5.7,4.337,17.786,6.232,20.1a.257.257,0,0,1-.2.428Z" transform="translate(-110.469 -123.797)"/><path class="u" d="M159.832,169.818a7.11,7.11,0,0,0,2.142,4.09c1.521,1.456,2.955.46,3.095-1.392.128-1.66-.514-4.412-2.313-5.183S159.607,167.966,159.832,169.818Z" transform="translate(-108.949 -123.211)"/><path class="u" d="M194.611,238.377l6.082-2.067-.953,7.313s-2.4,1.071-5.5-1.628l-2.966-1.9,2.334-1.274A5.652,5.652,0,0,1,194.611,238.377Z" transform="translate(-106.722 -118.313)"/><path class="u" d="M204.384,236.29l-1.863,6.393-3.341.932.953-7.3Z" transform="translate(-106.162 -118.315)"/></g></g></svg>