<svg xmlns="http://www.w3.org/2000/svg" width="643.742" height="479.665" viewBox="0 0 643.742 479.665"><defs><style>.a{fill:#ebebeb;}.b{fill:#e0e0e0;}.c{fill:#e6e6e6;}.d{fill:#f0f0f0;}.aa,.e,.h,.i,.j,.m,.o,.r,.y{fill:#fff;}.f{fill:#f5f5f5;}.g{fill:#00263e;}.h{opacity:0.3;}.ab,.h,.i,.o,.p,.r,.s,.t,.z{isolation:isolate;}.i,.p{opacity:0.6;}.j,.r{opacity:0.4;}.k{fill:#c30000;}.l{fill:#f3333e;}.m{opacity:0.5;}.n{fill:#263238;}.aa,.o,.s,.t{opacity:0.2;}.q{fill:#fad2cc;}.s{fill:#715d5d;}.u{fill:#f59e9c;}.v,.x{fill:none;stroke:#263238;stroke-linecap:round;stroke-linejoin:round;}.v{stroke-width:0.725px;}.w{fill:#de5753;}.x{stroke-width:0.5px;}.y{opacity:0.7;}</style></defs><g transform="translate(0 -55)"><g transform="translate(0 55)"><rect class="a" width="643.742" height="0.322" transform="translate(0 421.522)"/><rect class="a" width="42.641" height="0.322" transform="translate(536.598 442.238)"/><rect class="a" width="11.188" height="0.322" transform="translate(415.252 445.74)"/><rect class="a" width="24.707" height="0.322" transform="translate(510.603 430.29)"/><rect class="a" width="55.606" height="0.322" transform="translate(67.541 432.453)"/><rect class="a" width="8.15" height="0.322" transform="translate(134.619 432.453)"/><rect class="a" width="120.612" height="0.322" transform="translate(169.266 437.886)"/><path class="a" d="M294.149,419.1H45.549a7.352,7.352,0,0,1-7.339-7.352V62.287A7.352,7.352,0,0,1,45.549,55h248.6a7.352,7.352,0,0,1,7.352,7.352v349.4A7.351,7.351,0,0,1,294.149,419.1ZM45.549,55.257a7.03,7.03,0,0,0-7.017,7.03V411.749a7.03,7.03,0,0,0,7.017,7.03h248.6a7.043,7.043,0,0,0,7.03-7.03V62.287a7.043,7.043,0,0,0-7.03-7.03Z" transform="translate(10.985 -55)"/><path class="a" d="M510.465,419.1H261.852a7.364,7.364,0,0,1-7.352-7.352V62.287A7.364,7.364,0,0,1,261.852,55H510.465a7.352,7.352,0,0,1,7.326,7.287V411.749A7.352,7.352,0,0,1,510.465,419.1ZM261.852,55.257a7.043,7.043,0,0,0-7.03,7.03V411.749a7.043,7.043,0,0,0,7.03,7.03H510.465a7.043,7.043,0,0,0,7.03-7.03V62.287a7.042,7.042,0,0,0-7.03-7.03Z" transform="translate(73.165 -55)"/><rect class="b" width="210.581" height="8.382" rx="2.12" transform="translate(344.582 70.425)"/><rect class="c" width="185.565" height="164.669" transform="translate(357.097 77.095)"/><rect class="d" width="176.038" height="155.721" transform="translate(361.744 81.614)"/><path class="e" d="M322.285,118.39,280.97,273.776V200.763l21.81-82.373Z" transform="translate(80.774 -36.776)"/><path class="e" d="M335.209,118.39,293.533,274.111H286.89L328.566,118.39Z" transform="translate(82.476 -36.776)"/><path class="e" d="M421.069,194.71V219.6l-8.433,32.573H405.98Z" transform="translate(116.713 -14.836)"/><rect class="c" width="2.961" height="162.004" transform="translate(420.171 78.82)"/><rect class="c" width="2.961" height="162.004" transform="translate(477.644 78.82)"/><path class="b" d="M397,111.78s4.274,55.722,28.827,84.111c0,0-17.883,71.7-17.87,96.69l33.23-6.128-11.974-90.124,5.729-84.523Z" transform="translate(114.131 -38.677)"/><path class="b" d="M310.716,111.78s-4.262,55.722-28.827,84.111c0,0,17.883,71.7,17.87,96.69l-33.23-6.128,11.986-90.124-5.729-84.523Z" transform="translate(76.623 -38.677)"/><rect class="d" width="193.393" height="283.543" transform="translate(116.08 136.898)"/><rect class="b" width="179.72" height="52.362" transform="translate(122.916 145.82)"/><rect class="a" width="10.21" height="43.89" transform="translate(122.916 154.305)"/><rect class="a" width="10.21" height="43.89" transform="translate(172.278 154.305)"/><rect class="a" width="10.21" height="43.89" transform="matrix(0.985, -0.17, 0.17, 0.985, 228.476, 154.936)"/><rect class="a" width="10.21" height="38.11" transform="translate(135.559 160.086)"/><rect class="a" width="10.21" height="38.11" transform="translate(159.03 160.086)"/><rect class="a" width="10.21" height="38.11" transform="translate(218.267 160.086)"/><rect class="a" width="10.21" height="38.11" transform="translate(185.942 160.979) rotate(-12.53)"/><rect class="a" width="5.098" height="46.066" transform="translate(149.503 152.116)"/><rect class="a" width="5.098" height="46.066" transform="translate(210.22 152.116)"/><rect class="b" width="179.72" height="52.362" transform="translate(302.636 258.849) rotate(180)"/><rect class="a" width="10.21" height="43.89" transform="translate(302.636 258.849) rotate(180)"/><rect class="a" width="10.21" height="43.89" transform="translate(253.261 258.849) rotate(180)"/><rect class="a" width="10.21" height="43.89" transform="matrix(-0.985, -0.17, 0.17, -0.985, 189.635, 258.842)"/><rect class="a" width="10.21" height="38.11" transform="translate(289.993 258.849) rotate(180)"/><rect class="a" width="10.21" height="38.11" transform="translate(266.509 258.849) rotate(180)"/><rect class="a" width="10.21" height="38.11" transform="translate(207.285 258.849) rotate(180)"/><rect class="a" width="10.21" height="38.11" transform="translate(231.374 258.837) rotate(-167.47)"/><rect class="a" width="5.098" height="46.066" transform="translate(276.049 258.849) rotate(180)"/><rect class="a" width="5.098" height="46.066" transform="translate(215.332 258.849) rotate(180)"/><rect class="a" width="10.21" height="43.89" transform="translate(122.916 214.958)"/><rect class="a" width="10.21" height="38.11" transform="translate(135.559 220.739)"/><rect class="a" width="10.21" height="38.11" transform="translate(159.03 220.739)"/><rect class="a" width="5.098" height="46.066" transform="translate(149.503 212.783)"/><rect class="b" width="179.72" height="52.362" transform="translate(122.916 267.14)"/><rect class="a" width="10.21" height="43.89" transform="translate(226.069 275.625)"/><rect class="a" width="10.21" height="43.89" transform="matrix(0.985, -0.17, 0.17, 0.985, 282.267, 276.247)"/><rect class="a" width="10.21" height="38.11" transform="translate(189.35 281.405)"/><rect class="a" width="10.21" height="38.11" transform="translate(212.821 281.405)"/><rect class="a" width="10.21" height="38.11" transform="translate(272.045 281.405)"/><rect class="a" width="10.21" height="38.11" transform="translate(239.731 282.3) rotate(-12.53)"/><rect class="a" width="5.098" height="46.066" transform="translate(203.281 273.436)"/><rect class="a" width="5.098" height="46.066" transform="translate(264.012 273.436)"/><rect class="a" width="10.21" height="43.89" transform="matrix(0.985, -0.17, 0.17, 0.985, 164.817, 276.256)"/><rect class="a" width="10.21" height="38.11" transform="translate(154.588 281.405)"/><rect class="a" width="10.21" height="38.11" transform="translate(122.278 282.303) rotate(-12.53)"/><rect class="a" width="5.098" height="46.066" transform="translate(146.554 273.436)"/><rect class="b" width="33.359" height="284.277" transform="translate(116.08 421.175) rotate(180)"/></g><g transform="translate(72.241 505.517)"><ellipse class="f" cx="249.63" cy="14.574" rx="249.63" ry="14.574"/></g><g transform="translate(92.811 102.367)"><path class="g" d="M288.388,97.275v407a5.948,5.948,0,0,1-6.038,5.948H77.485a5.33,5.33,0,0,1-5.395-5.459V96.785a4.8,4.8,0,0,1,4.622-5h48.641a3.785,3.785,0,0,1,3.463,2.42l2.227,5.485a3.785,3.785,0,0,0,3.463,2.395h91.579a3.747,3.747,0,0,0,3.463-2.3l2.227-5.51a3.863,3.863,0,0,1,3.463-2.433h47.882a5.433,5.433,0,0,1,5.266,5.433Z" transform="translate(-72.087 -91.79)"/><rect class="h" width="216.297" height="365.967" transform="translate(0.004 25.428)"/><rect class="i" width="2.794" height="3.734" transform="translate(28.367 16.415) rotate(180)"/><rect class="i" width="2.794" height="4.97" transform="translate(23.797 16.403) rotate(180)"/><rect class="i" width="2.794" height="6.219" transform="translate(19.239 16.403) rotate(180)"/><rect class="i" width="2.794" height="7.467" transform="translate(14.681 16.403) rotate(180)"/><rect class="i" width="1.661" height="3.734" transform="translate(189.586 11.317)"/><rect class="i" width="13.222" height="6.45" transform="translate(205.602 16.403) rotate(180)"/><rect class="j" width="86.352" height="86.352" transform="translate(7.072 113.723)"/><rect class="j" width="86.352" height="86.352" transform="translate(7.072 205.354)"/><rect class="j" width="86.352" height="86.352" transform="translate(99.926 205.354)"/><rect class="j" width="86.352" height="86.352" transform="translate(7.072 296.997)"/><rect class="j" width="86.352" height="86.352" transform="translate(99.926 113.723)"/><rect class="j" width="86.352" height="86.352" transform="translate(99.926 296.997)"/><rect class="g" width="7.892" height="269.625" transform="translate(199.178 113.723)"/><rect class="e" width="10.12" height="29.419" rx="1.07" transform="translate(198.058 122.337)"/><rect class="k" width="201.272" height="70.387" transform="translate(6.905 34.775)"/><path class="e" d="M140.321,196.6H92.568a1.468,1.468,0,0,0-1.468,1.468V228.4a1.468,1.468,0,0,0,1.468,1.455h47.753a1.468,1.468,0,0,0,1.455-1.455V198.068a1.468,1.468,0,0,0-1.455-1.468Zm.309,30.9H92.259v-29.29h48.384Z" transform="translate(-66.621 -61.659)"/><rect class="e" width="11.626" height="4.249" transform="translate(44.01 169.124)"/><path class="e" d="M123.884,227.26H102.77a.772.772,0,0,0-.76.76v1.2h22.634v-1.2a.76.76,0,0,0-.76-.76Z" transform="translate(-63.484 -52.844)"/><path class="e" d="M212.631,198.26H164.878a1.468,1.468,0,0,0-1.468,1.468v31.2h50.675v-31.2a1.468,1.468,0,0,0-1.455-1.468Zm.309,30.9H164.556v-29.3H212.94Z" transform="translate(-45.833 -61.182)"/><path class="e" d="M196.615,224.52v1.21a.811.811,0,0,1-.811.811H183.895a.811.811,0,0,1-.811-.811v-1.21H159.6v2.575a.8.8,0,0,0,.785.785h58.954a.785.785,0,0,0,.785-.785V224.52Z" transform="translate(-46.928 -53.632)"/><path class="e" d="M123,156.266l1.764-3.862a13.222,13.222,0,0,0,7.39,2.33c3.064,0,4.313-1.03,4.313-2.395,0-4.2-13.016-1.287-13.016-9.643,0-3.862,3.064-6.965,9.437-6.965a15.025,15.025,0,0,1,7.725,1.983l-1.6,3.862a12.643,12.643,0,0,0-6.206-1.751c-3.077,0-4.262,1.146-4.262,2.575,0,4.12,13.029,1.287,13.029,9.5,0,3.747-3.116,6.94-9.514,6.94A15.978,15.978,0,0,1,123,156.266Z" transform="translate(-57.45 -79.158)"/><path class="e" d="M155.639,153.59h-10.4l-1.983,4.8H138l9.978-22.4h5.15l10.017,22.4H157.7ZM154,149.727l-3.553-8.575-3.553,8.575Z" transform="translate(-53.138 -79.083)"/><path class="e" d="M159.28,136h5.15v18.179h11.227V158.4H159.28Z" transform="translate(-47.02 -79.08)"/><path class="e" d="M191.632,154.231v4.159H174.29V136h16.93v4.159H179.44v4.854h10.4v4.03h-10.4v5.15Z" transform="translate(-42.705 -79.08)"/><path class="e" d="M128.573,261.82H100.094a1.674,1.674,0,0,0-1.674,1.674v51.821a1.674,1.674,0,0,0,1.674,1.674h28.479a1.674,1.674,0,0,0,1.674-1.674V263.494A1.674,1.674,0,0,0,128.573,261.82Zm-.528,50.817H100.622V266.172h27.423Z" transform="translate(-64.517 -42.909)"/><path class="e" d="M142.855,340.87H91.034a1.674,1.674,0,0,0-1.674,1.674v36.217a1.674,1.674,0,0,0,1.674,1.661h51.821a1.661,1.661,0,0,0,1.661-1.661V342.544a1.674,1.674,0,0,0-1.661-1.674Zm-.451,37.337H91.471V343.084H142.4Z" transform="translate(-67.121 -20.183)"/><path class="e" d="M214.933,273.817H203.345a3.553,3.553,0,0,1-3.27-2.176l-1.069-2.575a3.541,3.541,0,0,0-3.27-2.176H183.209a3.554,3.554,0,0,0-3.283,2.176l-1.056,2.575a3.566,3.566,0,0,1-3.283,2.176H164a3,3,0,0,0-3,3v27.2a3,3,0,0,0,3,3h50.984a3,3,0,0,0,3-3v-27.2a3,3,0,0,0-3.051-3Zm-28.466-4.107h5.961V272.4h-5.961Zm2.974,31.3a10.583,10.583,0,1,1,7.492-3.1,10.6,10.6,0,0,1-7.492,3.1Zm25.029-19.814h-5.961v-2.7h5.961Z" transform="translate(-46.526 -41.451)"/><path class="e" d="M170.09,342.58v34.852h33.475V342.58Zm31.621,31.685H171.957V345.7h29.754Z" transform="translate(-43.912 -19.692)"/><path class="e" d="M207.139,342.54H197.83V377.5h9.309a4.635,4.635,0,0,0,4.622-4.635v-25.75a4.622,4.622,0,0,0-4.622-4.571Zm-5.729,19.081a1.545,1.545,0,1,1,1.455-.726,1.545,1.545,0,0,1-1.455.726Zm3.257-6.437a.642.642,0,1,1,0-.026Zm.129,9.721a1.532,1.532,0,1,0,0-.026Zm3.257-3.386a1.545,1.545,0,1,1,1.4-1.539,1.545,1.545,0,0,1-1.4,1.539Z" transform="translate(-35.938 -19.703)"/><path class="e" d="M162.165,342.54a4.635,4.635,0,0,0-4.635,4.622v25.75a4.635,4.635,0,0,0,4.635,4.635h9.308V342.54Zm-.914,19.081a1.532,1.532,0,1,1,1.092-.444A1.545,1.545,0,0,1,161.251,361.621Zm3.244-6.437a1.545,1.545,0,1,1-1.4,1.539A1.545,1.545,0,0,1,164.5,355.183Zm.142,9.721a1.545,1.545,0,1,1,1.4-1.539,1.545,1.545,0,0,1-1.4,1.539Zm3.244-3.386a1.53,1.53,0,1,0,0-.026Z" transform="translate(-47.523 -19.703)"/><path class="l" d="M125.261,186.716l2.614.876,1.957-1.931,2.317,1.493,2.382-1.391,1.867,2.021,2.652-.747,1.313,2.433,2.755-.077.657,2.678,2.691.618-.026,2.755,2.446,1.275-.7,2.665,2.047,1.828-1.352,2.408,1.532,2.292-1.893,2,.914,2.6-2.343,1.455.245,2.742-2.626.837-.451,2.717-2.755.155-1.107,2.523-2.7-.541-1.7,2.163-2.485-1.2-2.2,1.674-2.1-1.777-2.536,1.081-1.609-2.24-2.717.412-1-2.575-2.742-.27-.322-2.742-2.588-.953.373-2.729-2.266-1.558,1.03-2.562-1.8-2.073,1.635-2.214-1.236-2.472,2.137-1.738-.579-2.691,2.5-1.159.1-2.755,2.717-.489.785-2.639,2.755.193Z" transform="translate(-60.316 -64.804)"/><path class="e" d="M126.479,203.305c.528,1.442-.09,3.18-2.575,4.068a6.193,6.193,0,0,1-3.6.3l.3-1.79a4.519,4.519,0,0,0,2.729-.129c.991-.373,1.455-1,1.2-1.7s-.863-.875-2-.451l-.9.322-.489-1.287,1.03-2.652-3.644,1.287-.592-1.6,6-2.214.476,1.287-1.12,2.923A2.575,2.575,0,0,1,126.479,203.305Z" transform="translate(-58.908 -61.412)"/><path class="e" d="M131.97,201.152c.566,1.519-.064,3.244-2.511,4.146a6.283,6.283,0,0,1-3.6.3l.219-1.8a4.519,4.519,0,0,0,2.729-.129c.991-.373,1.442-1.017,1.185-1.712s-.85-.953-2.408-.373l-2.189.811L124,197.431l5.227-1.931.592,1.584-3.579,1.287.464,1.674.708-.257C129.987,198.86,131.416,199.633,131.97,201.152Z" transform="translate(-57.163 -61.975)"/><path class="e" d="M129.864,196.936a1.481,1.481,0,0,1,.824-2.047,1.648,1.648,0,0,1,1.133,3.077,1.493,1.493,0,0,1-1.957-1.03Zm1.97-.721c-.219-.605-.554-.8-.9-.669s-.476.5-.257,1.094.566.8.9.669S132.053,196.756,131.834,196.215Zm2.2-2.5.953-.348-1.751,6.991-.953.361Zm.605,4.455a1.481,1.481,0,1,1,1.14,1.039,1.481,1.481,0,0,1-1.14-1.039Zm1.957-.734c-.219-.579-.554-.8-.9-.669s-.476.5-.257,1.107.567.8.9.67.476-.5.257-1.107Z" transform="translate(-55.521 -62.587)"/><path class="e" d="M131.665,201.176a1.287,1.287,0,1,1,1.609.682,1.21,1.21,0,0,1-1.609-.682Zm1.867-.7a.721.721,0,1,0-.425.927.721.721,0,0,0,.425-.927Z" transform="translate(-54.992 -60.866)"/><path class="e" d="M134.147,199.484l.219.579,1-.373.154.4-1.017.373.3.8-.5.18-.811-2.176,1.648-.605.155.4Z" transform="translate(-54.434 -61.067)"/><path class="e" d="M135.677,198.914l.206.567,1-.373.154.412-1,.373.3.8-.515.18-.8-2.176,1.648-.605.142.4Z" transform="translate(-53.995 -61.23)"/><path class="l" d="M125.261,261.876l2.614.875,1.957-1.931,2.317,1.493,2.382-1.391,1.867,2.021,2.652-.747,1.313,2.42,2.755-.064.657,2.678,2.691.618-.026,2.755,2.446,1.275-.7,2.665,2.047,1.828-1.352,2.408,1.532,2.292-1.893,2,.914,2.6-2.343,1.455.245,2.742-2.626.824-.451,2.73-2.755.142-1.107,2.523-2.7-.528-1.7,2.163-2.485-1.2-2.2,1.674-2.1-1.777-2.536,1.082-1.609-2.24-2.717.412-1-2.575-2.742-.27-.322-2.742-2.588-.953.373-2.729-2.266-1.571,1.03-2.549-1.8-2.073,1.635-2.227-1.236-2.459,2.137-1.738-.579-2.691,2.5-1.159.1-2.755,2.717-.489.785-2.639,2.755.193Z" transform="translate(-60.316 -43.197)"/><path class="e" d="M126.777,278.2a3.129,3.129,0,0,1-2.189,4.043c-2.369.875-4.377-.064-5.395-2.832s.077-5.266,2.652-6.219a5.008,5.008,0,0,1,2.575-.3l-.206,1.725a2.923,2.923,0,0,0-1.751.167,2.408,2.408,0,0,0-1.493,3.373,3.051,3.051,0,0,1,1.828-1.545,2.9,2.9,0,0,1,3.978,1.584Zm-1.88.8a1.39,1.39,0,0,0-1.983-.8,1.442,1.442,0,0,0-1.017,1.841,1.4,1.4,0,0,0,1.983.708,1.378,1.378,0,0,0,1-1.8Z" transform="translate(-58.653 -39.742)"/><path class="e" d="M132.337,276.153c.567,1.519-.064,3.257-2.575,4.159a6.283,6.283,0,0,1-3.6.283l.283-1.738a4.287,4.287,0,0,0,2.717-.129c.991-.361,1.455-1,1.2-1.7s-.85-.953-2.408-.386l-2.189.811-1.287-4.983,5.227-1.931.579,1.6-3.566,1.288.464,1.687.7-.258C130.3,273.875,131.783,274.634,132.337,276.153Z" transform="translate(-57.028 -40.402)"/><path class="e" d="M130.01,272.046a1.468,1.468,0,1,1,.744.96A1.481,1.481,0,0,1,130.01,272.046Zm1.97-.721c-.219-.605-.567-.8-.914-.669s-.476.515-.257,1.094.566.8.914.669.425-.5.206-1.094Zm2.2-2.5.94-.348-1.751,6.991-.94.361Zm.592,4.455a.77.77,0,1,1-.051,0Zm1.97-.721c-.219-.592-.566-.811-.914-.669s-.476.5-.258,1.094.566.8.914.669.425-.5.206-1.094Z" transform="translate(-55.448 -40.994)"/><path class="e" d="M131.766,276.228a1.287,1.287,0,1,1,1.578.6,1.288,1.288,0,0,1-1.578-.6Zm1.88-.7a.727.727,0,1,0-.431.933A.727.727,0,0,0,133.646,275.532Z" transform="translate(-54.938 -39.215)"/><path class="e" d="M134.257,274.594l.206.579,1.017-.373.142.4-1,.373.3.8-.515.18-.8-2.176,1.648-.605.142.4Z" transform="translate(-54.403 -39.474)"/><path class="e" d="M135.8,274.024l.219.579,1-.373.155.4-1.017.373.3.8-.5.18-.811-2.176,1.648-.605.154.4Z" transform="translate(-53.96 -39.637)"/><path class="l" d="M195.6,261.819l2.614.876,1.97-1.944,2.317,1.506,2.382-1.391,1.867,2.021,2.652-.747,1.3,2.42,2.755-.064.669,2.678,2.691.618-.026,2.755,2.446,1.262-.708,2.665,2.06,1.841-1.352,2.408,1.532,2.292L218.866,283l.914,2.6-2.33,1.455.232,2.755-2.626.824-.451,2.717-2.742.155-1.12,2.523-2.7-.541-1.7,2.163-2.485-1.185-2.189,1.674-2.111-1.777-2.536,1.081-1.6-2.253-2.729.412-.991-2.562-2.742-.283-.322-2.729-2.588-.953.36-2.729-2.266-1.571,1.043-2.549-1.815-2.086,1.635-2.214-1.223-2.459,2.124-1.751-.579-2.691,2.511-1.146.1-2.755,2.717-.5.785-2.639,2.742.193Z" transform="translate(-40.095 -43.217)"/><path class="e" d="M194.982,272.42l.476,1.288-.5,8.459-2.15.8.5-8.085-2.832,1.056.515,1.39-1.764.657-1.107-3.013Z" transform="translate(-38.729 -39.862)"/><path class="e" d="M202.451,276.2c.566,1.519-.064,3.244-2.575,4.159a6.27,6.27,0,0,1-3.6.283l.232-1.8a4.493,4.493,0,0,0,2.717-.129c.991-.373,1.442-1.017,1.185-1.712s-.85-.953-2.408-.373l-2.189.811-1.287-4.983,5.227-1.931.592,1.584-3.579,1.287.464,1.674.7-.258C200.468,273.906,201.9,274.679,202.451,276.2Z" transform="translate(-36.889 -40.408)"/><path class="e" d="M200.254,272.016a1.481,1.481,0,0,1,.824-2.047,1.455,1.455,0,0,1,1.944,1.03,1.481,1.481,0,1,1-2.768,1.017Zm1.97-.734c-.219-.592-.554-.8-.9-.669s-.476.515-.257,1.107.566.8.9.669S202.443,271.888,202.224,271.282Zm2.2-2.485.953-.348-1.751,6.991-.953.348Zm.605,4.455a1.494,1.494,0,1,1,.746.942,1.481,1.481,0,0,1-.746-.942Zm1.957-.734c-.219-.592-.554-.8-.9-.669s-.476.5-.258,1.107.566.8.9.669.476-.515.257-1.107Z" transform="translate(-35.285 -41.003)"/><path class="e" d="M202.025,276.256a1.287,1.287,0,1,1,1.609.682,1.2,1.2,0,0,1-1.609-.682Zm1.867-.7a.721.721,0,1,0-.412.953.708.708,0,0,0,.451-.953Z" transform="translate(-34.764 -39.281)"/><path class="e" d="M204.517,274.564l.219.566,1-.373.154.412-1.017.373.3.785-.5.193-.811-2.176,1.648-.605.154.4Z" transform="translate(-34.204 -39.482)"/><path class="e" d="M206.067,274l.206.567,1-.373.155.412-1,.373.283.785-.5.193-.8-2.176,1.648-.618.142.412Z" transform="translate(-33.759 -39.649)"/><path class="l" d="M125.261,331.869l2.614.875,1.957-1.944,2.317,1.493,2.382-1.378,1.867,2.021,2.652-.747,1.313,2.42,2.755-.064.657,2.678,2.691.618-.026,2.755,2.446,1.262-.7,2.665,2.047,1.841-1.352,2.395,1.532,2.292-1.893,2,.914,2.6L147.1,357.1l.245,2.755-2.626.824-.451,2.717-2.755.154-1.107,2.523-2.7-.541L136,367.7l-2.485-1.184-2.2,1.674-2.1-1.777-2.536,1.081-1.609-2.253-2.717.412-1-2.562-2.742-.283-.322-2.729-2.588-.953.373-2.729-2.266-1.571,1.03-2.549-1.8-2.086,1.635-2.214-1.236-2.459,2.137-1.751-.579-2.691,2.5-1.146.1-2.755,2.717-.5.785-2.639,2.755.193Z" transform="translate(-60.316 -23.078)"/><path class="e" d="M126.758,348.345c.605,1.609-.464,3.167-2.639,3.965s-3.978.322-4.571-1.288a2.317,2.317,0,0,1,.541-2.5,2.1,2.1,0,0,1-1.635-1.391c-.554-1.506.438-2.948,2.382-3.669s3.669-.283,4.223,1.223a2.137,2.137,0,0,1-.348,2.137,2.3,2.3,0,0,1,2.047,1.519Zm-6.27-1.867c.232.644.9.863,1.7.567s1.2-.9.966-1.558-.94-.875-1.751-.579S120.205,345.809,120.488,346.478Zm4.274,2.575c-.283-.76-1.081-.991-2.073-.631s-1.416,1.056-1.133,1.815,1.069,1,2.047.644,1.416-1.094,1.133-1.854Z" transform="translate(-58.801 -19.535)"/><path class="e" d="M125.152,346.867c-1.043-2.82,0-5.008,2.034-5.781s4.262.245,5.3,3.077.09,5-2.034,5.781S126.194,349.7,125.152,346.867Zm5.343-1.97c-.708-1.944-1.7-2.5-2.691-2.137s-1.365,1.429-.644,3.373,1.7,2.5,2.678,2.137,1.378-1.429.657-3.36Z" transform="translate(-56.95 -20.193)"/><path class="e" d="M130.244,341.949a1.493,1.493,0,0,1,.824-2.06,1.648,1.648,0,1,1-.824,2.06Zm1.97-.734c-.219-.592-.554-.8-.9-.669s-.476.515-.257,1.094.566.8.9.682S132.433,341.82,132.214,341.215Zm2.2-2.485.953-.361-1.751,7-.953.348Zm.605,4.442a1.468,1.468,0,1,1,.74.953,1.481,1.481,0,0,1-.74-.953Zm1.957-.721c-.219-.592-.554-.8-.9-.669s-.476.5-.257,1.094.566.8.9.669.476-.5.257-1.094Z" transform="translate(-55.412 -20.902)"/><path class="e" d="M132.024,346.173a1.287,1.287,0,1,1,1.609.7,1.21,1.21,0,0,1-1.609-.7Zm1.867-.7a.721.721,0,1,0-.412.953.7.7,0,0,0,.438-.953Z" transform="translate(-54.887 -19.178)"/><path class="e" d="M134.507,344.484l.219.579,1-.373.154.4-1.017.373.3.8-.5.193-.811-2.189,1.648-.605.154.4Z" transform="translate(-54.331 -19.381)"/><path class="e" d="M136.057,343.914l.206.579,1-.373.155.4-1,.373.283.8-.5.18-.8-2.176,1.648-.605.142.4Z" transform="translate(-53.885 -19.545)"/><path class="l" d="M195.6,186.659l2.614.876,1.97-1.944L202.5,187.1l2.382-1.391,1.867,2.021,2.652-.747,1.3,2.421,2.755-.064.669,2.678,2.691.618-.026,2.755,2.446,1.275-.708,2.652,2.06,1.841-1.352,2.408,1.532,2.292-1.905,2,.914,2.588-2.33,1.468.232,2.742-2.626.824L214.6,218.2l-2.742.142-1.12,2.523-2.7-.541-1.7,2.176-2.485-1.2-2.189,1.674-2.111-1.777-2.536,1.081-1.6-2.24-2.729.412-.991-2.575-2.742-.283-.322-2.729-2.588-.953.36-2.729-2.266-1.571,1.043-2.549-1.815-2.086,1.635-2.214-1.223-2.459,2.124-1.738-.579-2.7,2.511-1.146.1-2.755,2.717-.489.785-2.652,2.742.206Z" transform="translate(-40.095 -64.824)"/><path class="e" d="M196.541,203.271c.566,1.506-.064,3.244-2.575,4.146a6.27,6.27,0,0,1-3.6.283l.219-1.8a4.339,4.339,0,0,0,2.729-.129c.991-.36,1.442-1,1.184-1.7s-.85-.953-2.408-.386l-2.189.811-1.287-4.983,5.227-1.931.592,1.6-3.579,1.287.464,1.687.7-.257C194.558,200.927,195.987,201.7,196.541,203.271Z" transform="translate(-38.588 -61.377)"/><path class="e" d="M195.034,201.84c-1.043-2.832-.064-5.008,2.034-5.794s4.274.258,5.317,3.077.077,5.008-2.034,5.781S196.077,204.66,195.034,201.84Zm5.356-1.918c-.721-1.944-1.712-2.5-2.7-2.124s-1.365,1.416-.644,3.36,1.7,2.5,2.678,2.137S201.1,201.8,200.39,199.922Z" transform="translate(-36.862 -61.891)"/><path class="e" d="M200.434,196.8a1.493,1.493,0,0,1,.824-2.06,1.648,1.648,0,1,1-.824,2.06Zm1.97-.734c-.219-.592-.554-.8-.9-.67s-.476.515-.258,1.107.567.785.914.669S202.636,196.67,202.4,196.065Zm2.2-2.485.953-.36-1.777,7-.953.348Zm.605,4.442a.967.967,0,1,1,0,.064Zm1.957-.721c-.219-.592-.554-.8-.9-.669s-.476.5-.257,1.094.566.8.9.67S207.387,197.894,207.168,197.3Z" transform="translate(-35.233 -62.63)"/><path class="e" d="M202.234,201.023a1.287,1.287,0,1,1,1.609.7,1.21,1.21,0,0,1-1.609-.7Zm1.867-.7a.7.7,0,0,0-.927-.438.747.747,0,1,0,.927.438Z" transform="translate(-34.703 -60.906)"/><path class="e" d="M204.708,199.328l.219.579,1-.373.154.4-1.017.373.3.8-.5.193L204,199.135l1.648-.605.154.4Z" transform="translate(-34.164 -61.104)"/><path class="e" d="M206.247,198.764l.206.579,1-.373.154.4-1,.373.3.8-.515.18-.8-2.176,1.648-.605.142.4Z" transform="translate(-33.707 -61.274)"/><path class="l" d="M195.6,331.8l2.614.875,1.97-1.931,2.317,1.493,2.382-1.39,1.867,2.034,2.652-.76,1.3,2.433,2.755-.077.669,2.678,2.691.618-.026,2.755,2.446,1.275-.708,2.665,2.06,1.828-1.352,2.408,1.532,2.292-1.905,2,.914,2.6-2.33,1.455.232,2.742-2.626.837-.451,2.717-2.742.154-1.12,2.524-2.7-.541-1.7,2.163-2.485-1.2-2.189,1.674-2.111-1.777-2.536,1.081-1.6-2.24-2.729.412-.991-2.575-2.742-.27L188.636,360l-2.588-.953.36-2.729-2.266-1.558,1.043-2.562-1.815-2.073,1.635-2.214-1.223-2.472,2.124-1.738-.579-2.691,2.511-1.159.1-2.755,2.717-.489.785-2.639,2.742.193Z" transform="translate(-40.095 -23.096)"/><path class="e" d="M197.966,348.764l-1.4.515.67,1.79-1.944.721-.657-1.8-4.609,1.7-.5-1.287,2.034-6.927,2.086-.772-1.841,6.54,2.292-.85-.592-1.609,1.88-.682.592,1.6,1.39-.515Z" transform="translate(-38.327 -19.657)"/><path class="e" d="M203.037,345.958c.566,1.519-.064,3.257-2.511,4.159a6.27,6.27,0,0,1-3.6.283l.219-1.8a4.339,4.339,0,0,0,2.729-.129c.991-.361,1.442-1,1.184-1.7s-.85-.953-2.408-.386l-2.189.811-1.287-4.983,5.227-1.931.592,1.6-3.579,1.287.464,1.687.7-.258C201.054,343.679,202.483,344.451,203.037,345.958Z" transform="translate(-36.702 -20.353)"/><path class="e" d="M200.43,341.926a1.481,1.481,0,1,1,.747.954,1.481,1.481,0,0,1-.747-.954Zm1.97-.721c-.219-.605-.554-.8-.9-.669s-.476.5-.257,1.094.566.8.9.669.476-.541.322-1.094Zm2.2-2.5.953-.348-1.8,6.991-.953.361Zm.605,4.455a1.481,1.481,0,1,1,1.14,1.039,1.481,1.481,0,0,1-1.14-1.039Zm1.957-.734c-.219-.579-.554-.8-.9-.669s-.476.515-.257,1.107.566.8.9.669.476-.489.257-1.107Z" transform="translate(-35.203 -20.905)"/><path class="e" d="M202.255,346.166a1.287,1.287,0,1,1,1.609.682,1.21,1.21,0,0,1-1.609-.682Zm1.867-.7a.7.7,0,0,0-.927-.451.747.747,0,1,0,.927.451Z" transform="translate(-34.698 -19.183)"/><path class="e" d="M204.717,344.474l.219.579,1-.373.154.4-1.017.373.3.8-.5.18-.811-2.176,1.648-.605.154.4Z" transform="translate(-34.147 -19.384)"/><path class="e" d="M206.267,343.9l.206.579,1-.373.154.4-1,.373.3.8-.515.18-.8-2.176,1.648-.605.142.4Z" transform="translate(-33.701 -19.548)"/><path class="m" d="M124.23,173.218,129.2,143.3a1.468,1.468,0,0,0-1.2-1.687l-47.109-7.815a1.455,1.455,0,0,0-1.687,1.2l-1.751,10.57v7l2.858-17.214,47.74,7.931-4.828,28.84-45.8-7.609v2.42l45.062,7.48a1.455,1.455,0,0,0,1.738-1.2Z" transform="translate(-70.551 -79.721)"/><rect class="m" width="4.249" height="11.626" transform="translate(21.871 94.94) rotate(-80.57)"/><path class="m" d="M106.37,169.185l-20.831-3.463a.772.772,0,0,0-.875.631l-.193,1.184,22.325,3.7.206-1.184a.773.773,0,0,0-.631-.863Z" transform="translate(-68.527 -70.538)"/><path class="m" d="M191.289,127.426,207.4,154.154l38.625-23.3v-2.086L207.4,152.03l-15.1-25.08,13.531-8.15h-3.1l-10.982,6.618A1.468,1.468,0,0,0,191.289,127.426Z" transform="translate(-37.882 -84.025)"/><path class="m" d="M234.257,120.126l-.8-1.326H232.12l2.137,3.541Z" transform="translate(-26.08 -84.025)"/><path class="m" d="M233.251,136.653a.811.811,0,0,1-.27,1.12l-10.21,6.141a.8.8,0,0,1-1.107-.27l-.631-1.03L201,154.678l1.287,2.189a.76.76,0,0,0,1.069.27l39.912-24.024V129.25l-10.57,6.437Z" transform="translate(-35.026 -81.021)"/><path class="m" d="M193.283,159.657l-10.7,5.729a.721.721,0,0,0-.3.966l5.961,11.111h1.069l-5.665-10.557,10.3-5.51,8.588,16.068H203.6l-9.373-17.51a.708.708,0,0,0-.94-.3Z" transform="translate(-40.429 -72.301)"/><path class="m" d="M86.509,129.924l10.712-5.716a.721.721,0,0,0,.3-.966L95.135,118.8H94.08l2.06,3.862-10.3,5.51L80.806,118.8H79.75l5.794,10.828A.721.721,0,0,0,86.509,129.924Z" transform="translate(-69.884 -84.025)"/><path class="m" d="M132.136,174.461l-10.3-6.437a.708.708,0,0,0-.979.232l-4.2,6.759h1.107l3.283-5.3,8.562,5.3h2.858a.708.708,0,0,0-.335-.554Z" transform="translate(-59.273 -69.905)"/><path class="m" d="M224.509,149.285,212.483,170.8a1.12,1.12,0,0,0,.438,1.545l14.716,8.227h3.077l-16.8-9.386,11.678-20.832,14.355,8.021v-1.712l-13.892-7.725a1.133,1.133,0,0,0-1.545.348Z" transform="translate(-31.768 -75.409)"/><path class="m" d="M133.65,132.566l23.806,7.725a1.481,1.481,0,0,0,1.867-.94l4.159-12.708a1.468,1.468,0,0,0-.94-1.854l-5.433-1.777a1.751,1.751,0,0,1-1.2-1.519l-.1-1.287a1.738,1.738,0,0,0-1-1.416h-4.262l2.111.682-.412,1.287-2.794-.914.348-1.03h-4.519a1.712,1.712,0,0,1-1.133,0H136.6l-3.862,11.909a1.468,1.468,0,0,0,.914,1.841Zm25.2-6.515,2.781.914-.412,1.287-2.781-.914Zm-15.669,1.043a2,2,0,1,1-.026,0Z" transform="translate(-54.672 -84.028)"/><path class="m" d="M147.81,167.842l2.665,8.819h1.094l-2.24-7.416,16.068-4.854,3.708,12.27H170.2l-4.313-14.291Z" transform="translate(-50.318 -71.499)"/><path class="m" d="M175.256,176.514l-4.2-13.866A2.575,2.575,0,0,0,167.8,160.9l-5.021,1.519,4.429,14.677h8.15A4.563,4.563,0,0,0,175.256,176.514Zm-7.429-4.377a.428.428,0,1,1,0,.026Zm.116-2.935a.875.875,0,1,1,1.072.534A.876.876,0,0,1,167.943,169.2Zm2.24,4.133a.868.868,0,1,1,.579-1.081.85.85,0,0,1-.579,1.107Zm1.21-2.356a.85.85,0,0,1-1.082-.579.868.868,0,1,1,1.082.579Z" transform="translate(-46.014 -71.958)"/><path class="m" d="M143.417,168.4a2.575,2.575,0,0,0-1.751,3.244l1.133,3.721h3.386a.888.888,0,0,1,.554-.541.875.875,0,0,1,1.056.541h3.219l-2.575-8.485Z" transform="translate(-52.118 -70.203)"/><path class="m" d="M183.1,118.8H179.57l1.918,1.751Z" transform="translate(-41.187 -84.025)"/><path class="m" d="M180.129,125.4l3.553-3.862-2.961-2.7h-4.7a.863.863,0,0,1-.206.747.875.875,0,0,1-1.223,0,.85.85,0,0,1-.245-.8h-1.017a.863.863,0,0,1-.155.914.876.876,0,0,1-1.223,0,.863.863,0,0,1-.206-.966H169.07l7.377,6.785a2.575,2.575,0,0,0,3.682-.116Z" transform="translate(-44.206 -84.045)"/><path class="m" d="M106.29,127.472l-1.8-.76a1,1,0,0,1-.592-.991L102,124.91l-.1.257a3.36,3.36,0,0,0,1.764,4.4l4.764,2.021a3.347,3.347,0,0,0,4.4-1.764l.1-.257-5.523-2.356a.966.966,0,0,1-1.12.257Z" transform="translate(-63.593 -82.269)"/><path class="m" d="M111.39,124.972l-4.764-2.021a3.347,3.347,0,0,0-4.4,1.764l-.1.257,1.893.811a.991.991,0,0,1,1.12-.27l1.8.772a1,1,0,0,1,.592.991l5.523,2.343.1-.245a3.347,3.347,0,0,0-1.764-4.4Z" transform="translate(-63.453 -82.91)"/></g><g transform="translate(126.431 270.29)"><path class="n" d="M186,421.988H179.03l2.356-23.278h9.321Z" transform="translate(-74.963 -171.478)"/><path class="n" d="M241.805,421.988H234.84L237.2,398.71h9.321Z" transform="translate(-58.918 -171.478)"/><path class="n" d="M276.152,421.988h6.965l-2.356-23.278H271.44Z" transform="translate(-48.396 -171.478)"/><path class="n" d="M220.329,421.988h6.978l-2.356-23.278H215.63Z" transform="translate(-64.441 -171.478)"/><path class="n" d="M354.842,421.988h6.965l-2.356-23.278H350.13Z" transform="translate(-25.774 -171.478)"/><path class="n" d="M299.022,421.988H306l-2.356-23.278H294.31Z" transform="translate(-41.821 -171.478)"/><path class="o" d="M276.152,421.988h6.965l-2.356-23.278H271.44Z" transform="translate(-48.396 -171.478)"/><path class="o" d="M220.329,421.988h6.978l-2.356-23.278H215.63Z" transform="translate(-64.441 -171.478)"/><path class="o" d="M354.842,421.988h6.965l-2.356-23.278H350.13Z" transform="translate(-25.774 -171.478)"/><path class="o" d="M299.022,421.988H306l-2.356-23.278H294.31Z" transform="translate(-41.821 -171.478)"/><path class="n" d="M112.8,421.988H105.83l2.356-23.278h9.321Z" transform="translate(-96.007 -171.478)"/><path class="n" d="M168.618,421.988H161.64L164,398.71h9.334Z" transform="translate(-79.962 -171.478)"/><path class="n" d="M249.5,387.874H394.342l22.067-114.007a20.188,20.188,0,0,0-19.827-24.037H292.888a20.188,20.188,0,0,0-19.827,16.351Z" transform="translate(-54.704 -214.279)"/><path class="n" d="M330.07,387.874h41.2l22.068-114.007A20.188,20.188,0,0,0,373.51,249.83h0a20.188,20.188,0,0,0-19.827,16.351Z" transform="translate(-31.541 -214.279)"/><g class="p" transform="translate(194.796 35.551)"><path class="e" d="M249.5,387.874H394.342l22.067-114.007a20.188,20.188,0,0,0-19.827-24.037H292.888a20.188,20.188,0,0,0-19.827,16.351Z" transform="translate(-249.5 -249.83)"/><path class="e" d="M330.07,387.874h41.2l22.068-114.007A20.188,20.188,0,0,0,373.51,249.83h0a20.188,20.188,0,0,0-19.827,16.351Z" transform="translate(-226.337 -249.83)"/></g><path class="i" d="M249.49,387.655H353.236L376.8,266.078a20.1,20.1,0,0,1,19.827-16.248H292.891a20.111,20.111,0,0,0-19.827,16.248Z" transform="translate(-54.706 -214.279)"/><rect class="n" width="246.206" height="60.074" rx="7.91" transform="translate(98.956 172.205)"/><rect class="i" width="151.962" height="60.074" rx="7.91" transform="translate(98.956 172.205)"/><rect class="i" width="246.206" height="60.074" rx="7.91" transform="translate(98.956 172.205)"/><rect class="n" width="246.206" height="60.074" rx="7.91" transform="translate(0 172.205)"/><rect class="i" width="151.962" height="60.074" rx="7.91" transform="translate(0 172.205)"/><rect class="i" width="246.206" height="60.074" rx="7.91" transform="translate(0 172.205)"/><path class="q" d="M230.79,339.643c.116.206.245.283.386.27,4.107-.747,15.1,5.266,28.492,12.218l3.759,1.931c.412.232.837.438,1.287.657,6.759,3.45,13.931,6.94,21.025,9.785,8.343,3.386,16.583,5.9,23.831,6.437.979.077,1.944.116,2.884.116,32.548,0,21.887-53.714,21.887-53.714l-38.869-2.974-4.583,7.905L288.4,326.55l-5.613-1.506c-2.807-.76-7-1.738-11.819-2.755l-1.12-.245c-1.609-.348-3.3-.7-5.021-1.03-12.682-2.575-27.243-5.06-32.638-5.15C228.382,315.838,229.052,337.068,230.79,339.643Z" transform="translate(-60.482 -195.725)"/><path class="l" d="M262.828,321.8l-7.558,37.337s25.981,21.1,48.306,12.875,15.308-46.169,15.308-46.169L291.551,308.63l-10.879,15.192Z" transform="translate(-53.045 -197.375)"/><path class="l" d="M264.946,318.465l-7.854,40.453L252.38,355.2l6.283-37.517Z" transform="translate(-53.876 -194.773)"/><path class="r" d="M252.38,355.194l4.712,3.721.27-1.4.734-3.811,3.193-16.454,3.116-15.978.335-1.8.206-1-6.3-.773-.386,2.3-2.948,17.6-2.253,13.519Z" transform="translate(-53.876 -194.77)"/><path class="s" d="M230.48,336.668c.116.206.245.283.386.27,4.107-.747,15.1,5.266,28.492,12.218l-.682,4.081,4.712,3.721.27-1.545a104.715,104.715,0,0,0,15.81,9.012h0l5.948-3.026,8.6-4.493-3.541-32.187-5.15,7.068s-11.9,2.884-17.793,3.45l-1.288.129c-1.622.129-3.193.219-4.674.232-1.03,0-2.008,0-2.935-.09C248.543,334.775,237.587,334.4,230.48,336.668Z" transform="translate(-60.172 -192.749)"/><path class="q" d="M167,355.9l.373,7.789h.9c1.146.077,3.322.18,6.283.322,16.737.773,58.078,2.227,75.717-1.287l81.112,1.558L313.567,333.07,202.084,350.412l-34.311,5.343Z" transform="translate(-78.421 -190.349)"/><path class="n" d="M156.554,345.355c.142,3.038.258,5.781.373,8.317.167,3.463.3,6.553.438,9.489.245,5.15,4.442,1.725,13.544,1.094.219,0,.3-.734.309-1.8,0-2.266-.322-6.1-.515-7.944l-.1-1.056a38.865,38.865,0,0,1-3.154-3.27,26.56,26.56,0,0,1-5.691-9.437C159.94,334.373,156.233,338.145,156.554,345.355Z" transform="translate(-81.43 -189.077)"/><path class="l" d="M263.58,342.479l9.141,31.9,17.948-1.725s51.6,13.622,37.26-60.357l-38.766-3.721-11.3,29.483Z" transform="translate(-50.656 -197.389)"/><path class="l" d="M266.185,333.56,276.5,367.7h-6.09L261.37,335.3Z" transform="translate(-51.291 -190.208)"/><path class="r" d="M266.185,333.56,276.5,367.7h-6.09L261.37,335.3Z" transform="translate(-51.291 -190.208)"/><path class="s" d="M156.84,351.066c.167,3.463.3,6.553.438,9.489.245,5.15,4.442,1.725,13.544,1.094.219,0,.3-.734.309-1.8,1.146.077,3.322.18,6.283.322,8.6-4.841,20.6-10.467,27.514-13.609L170.616,351.9l-.1-1.056a38.865,38.865,0,0,1-3.154-3.27Z" transform="translate(-81.342 -186.471)"/><path class="q" d="M253.094,315.53c1.416,0,.451,23.7-1.03,23.973-6.334,1.146-92.7,26.625-92.7,26.625l-2.575-7.558S238.957,315.453,253.094,315.53Z" transform="translate(-81.356 -195.391)"/><path class="n" d="M164.043,361.054c.837-.3-3.232-10.3-3.232-10.3s-8.5-4.171-11.974-9.811-6.013-1-3.734,5.832,4,12.064,5.626,16.93S155.52,364.079,164.043,361.054Z" transform="translate(-84.966 -188.811)"/><path class="n" d="M322.912,313.355l.386,5.884-40.118-8.5,1.725-6.5Z" transform="translate(-45.021 -198.637)"/><rect class="l" width="1.931" height="9.836" transform="translate(265.381 120.65) rotate(-169.49)"/><rect class="e" width="8.536" height="6.476" transform="matrix(-0.976, -0.22, 0.22, -0.976, 255.507, 116.364)"/><rect class="l" width="1.931" height="9.836" transform="matrix(-0.983, -0.182, 0.182, -0.983, 242.152, 114.946)"/><path class="n" d="M301.262,224.513s20.316-9.888,27.037,11.381-1.893,35.96-1.893,35.96-23.522-6.038-43.337-1.828c0,0,4.274-18.128,3.257-28.531S301.262,224.513,301.262,224.513Z" transform="translate(-45.053 -222.217)"/><path class="l" d="M293.146,261.4c-4.468.206-23.175,25.338-23.175,25.338l-6.952-9.012s-10.725,20.831-5.42,30.745,33.243-17.188,33.243-17.188Z" transform="translate(-52.799 -210.953)"/><path class="i" d="M293.149,261.4l-1.841,20.085-.476,9.811s-4.6,4.442-10.4,9.077c-8.523,6.811-19.686,13.995-22.84,8.111-5.3-9.914,5.42-30.745,5.42-30.745l6.952,9.012v-.064C271.069,285.154,288.823,261.593,293.149,261.4Z" transform="translate(-52.802 -210.953)"/><path class="t" d="M285.884,279.237l-.476,9.811s-4.6,4.442-10.4,9.077c-.554-11.768,10.4-28.9,10.4-28.9Z" transform="translate(-47.377 -208.705)"/><path class="t" d="M267.3,281.353l.991,1.918-2.91,11.343s8.034-7.326,2.91-14.484Z" transform="translate(-50.138 -205.568)"/><path class="l" d="M284.588,317.888l38.3,8.15s-.116-21.218,2.884-32.934c.979-3.8,2.2-8.06,3.759-13.016.657-2.086,1.378-4.3,2.176-6.669s1.506-4.558,2.356-7.017a111.474,111.474,0,0,0-15.759-3.8,120.141,120.141,0,0,0-17.059-1.8c-7.377-.064-15.875.773-15.875.773s-1.2.3-1.97,8.124C282.734,277.049,283.056,291.134,284.588,317.888Z" transform="translate(-45.052 -211.126)"/><path class="i" d="M284.588,317.883l38.3,8.163v-1.287c.167-4.931.27-21.591,2.845-31.634.7-2.7,1.519-5.665,2.511-8.935.386-1.288.8-2.652,1.287-4.068.657-2.1,1.378-4.313,2.163-6.682s1.506-4.545,2.369-7a114.2,114.2,0,0,0-15.759-3.862,122.3,122.3,0,0,0-17.059-1.8c-7.39,0-15.875.772-15.875.772s-1.21.3-1.97,8.124C282.734,277.07,283.056,291.142,284.588,317.883Z" transform="translate(-45.052 -211.134)"/><path class="q" d="M300.359,271.891c9.36-1.2,12.18-5.15,12.18-5.15-3.862-3.6-3.141-8.935-2.163-12.257a19.922,19.922,0,0,1,1.159-3.064l-11.278,2.034a32.432,32.432,0,0,1,.438,4.751,14.559,14.559,0,0,1-.309,3.489c-.772,3.36-2.691,3.412-2.691,3.412C295.66,268.827,300.359,271.891,300.359,271.891Z" transform="translate(-40.995 -213.822)"/><path class="t" d="M300.008,258.242a14.564,14.564,0,0,1-.309,3.489c4.468-.592,7.866-4.171,9.991-7.287a19.917,19.917,0,0,1,1.159-3.064l-11.278,2.086a32.43,32.43,0,0,1,.438,4.777Z" transform="translate(-40.309 -213.833)"/><path class="q" d="M300.159,228.51c-10.377,2.124-12.579,8.356-11.163,19.2,1.777,13.557,6.682,22.441,19.068,16.943C324.891,257.182,317.437,224.995,300.159,228.51Z" transform="translate(-43.46 -220.485)"/><path class="u" d="M294.477,241.85a22.752,22.752,0,0,1-2.137,4.918,2.923,2.923,0,0,0,2.974.618Z" transform="translate(-42.388 -216.573)"/><path class="v" d="M297.77,234.663a5.549,5.549,0,0,1,4.828.657" transform="translate(-40.827 -218.72)"/><path class="v" d="M292.735,235.461a4.931,4.931,0,0,0-3.965,1.7" transform="translate(-43.414 -218.411)"/><path class="n" d="M315.218,244.692s-6.592-7.532-7.2-14.252c0,0-22.273-4.21-19.029,16.866,0,0-5.794-18.115,11.961-22.17s22.994,22.055,15.373,31.7C316.3,256.833,319.3,249.417,315.218,244.692Z" transform="translate(-43.61 -221.5)"/><path class="q" d="M308.2,243.352a4.648,4.648,0,0,1,4.043-5.15c3.3-.309,6.167,5.974-1.506,9.193C309.639,247.859,308.764,246.867,308.2,243.352Z" transform="translate(-37.838 -217.625)"/><path class="n" d="M294.9,249.517a27.2,27.2,0,0,1,2.433,3.026l.618-.3c2.781-1.365,3.618-2.923,3.708-4.223a4.4,4.4,0,0,0-.914-2.794,14.626,14.626,0,0,1-4.905,3.862C295.273,249.35,294.9,249.517,294.9,249.517Z" transform="translate(-41.652 -215.601)"/><path class="e" d="M295.63,249.041l.747.876c2.575-1.288,4.274-2.575,4.712-3.747a3.862,3.862,0,0,0-.554-.94A14.626,14.626,0,0,1,295.63,249.041Z" transform="translate(-41.442 -215.601)"/><path class="w" d="M297.27,251.623c2.781-1.365,3.618-2.923,3.708-4.223a9.939,9.939,0,0,0-2.781,2.124A3.7,3.7,0,0,0,297.27,251.623Z" transform="translate(-40.97 -214.978)"/><path class="n" d="M302.241,230.6s7.661,16.209,18.36,13.8-10.3-20.6-10.3-20.6-18.887-3.038-25.647,8.034,5.884,15.836,5.884,15.836S287.19,234.594,302.241,230.6Z" transform="translate(-45.169 -221.87)"/><path class="x" d="M297.76,228.07s1.107,11.909,10.441,14.265" transform="translate(-40.83 -220.535)"/><path class="n" d="M298.74,240.962c0,.824.5,1.468,1.056,1.455s.966-.708.927-1.532-.5-1.468-1.043-1.455S298.715,240.164,298.74,240.962Z" transform="translate(-40.548 -217.269)"/><path class="n" d="M300.058,239.6l-1.828-.631S299.221,240.438,300.058,239.6Z" transform="translate(-40.695 -217.401)"/><path class="n" d="M290.791,241.152c0,.824.5,1.468,1.056,1.442s.966-.708.927-1.532-.5-1.468-1.056-1.442S290.752,240.328,290.791,241.152Z" transform="translate(-42.834 -217.214)"/><path class="n" d="M292.1,239.781l-1.815-.631S291.207,240.618,292.1,239.781Z" transform="translate(-42.98 -217.349)"/><path class="n" d="M283.014,279.321a.94.94,0,0,1-.966,1.081H271.272a1.287,1.287,0,0,1-1.21-1.081l-2.408-21.243a1.082,1.082,0,0,1,.978-1.288H279.4a1.378,1.378,0,0,1,1.21,1.287Z" transform="translate(-49.49 -212.278)"/><path class="m" d="M279.421,257.922l2.433,21.462a.811.811,0,0,1-.85,1h-9.128c-.618,0-1.738-.335-1.8-.94l-2.433-21.527c-.077-.605.979-1.081,1.584-1.081h9.18a1.107,1.107,0,0,1,1.017,1.082Z" transform="translate(-49.489 -212.264)"/><path class="q" d="M262.06,279.955l5.613-9.527a31.588,31.588,0,0,1,.476-6.18c.489-1.185,5.987-3.862,7.068-3.438s1.481,10.21.489,11.587-4.416,2.794-4.416,2.794l.232,1.867-3.27,9.914Z" transform="translate(-51.093 -211.135)"/><path class="l" d="M260.31,275.247l1.867-1.867,8.832,9.914-1.262,3.927Z" transform="translate(-51.596 -207.509)"/><path class="t" d="M295.08,290.577s10.39,23.677,23.793,31.337c.167-4.931.9-22.891,3.476-32.934.7-2.7,1.519-5.665,2.511-8.935l-4.133-4.905s-2.82,8.768-1.571,16.377l-15.63-9.579Z" transform="translate(-41.6 -207.003)"/><path class="q" d="M309.294,287.7l-12.733-10.017a44.832,44.832,0,0,0-2.7-6.3c-.785-.927-11.961-5.06-12.875-5.15s0,9.167,1.4,10.751,10.4,4.686,10.4,4.686L306.1,294.256Z" transform="translate(-45.759 -209.561)"/><path class="l" d="M330.433,265.15c7.493,3.759,10.828,46.066-2.176,53.366s-32.457-25.75-32.457-25.75l7.557-8.021S319.194,298.007,321.1,296.8s-.258-14.162-.258-14.162-2.227-3.927,2.459-10.094S330.433,265.15,330.433,265.15Z" transform="translate(-41.393 -209.875)"/><path class="i" d="M330.433,265.15c7.493,3.759,10.828,46.066-2.176,53.366s-32.457-25.75-32.457-25.75l7.557-8.021S319.194,298.007,321.1,296.8s-.258-14.162-.258-14.162-2.227-3.927,2.459-10.094S330.433,265.15,330.433,265.15Z" transform="translate(-41.393 -209.875)"/><path class="l" d="M296.2,292l-2.266-1.352,8.484-12.437,3.116,1.725Z" transform="translate(-41.931 -206.12)"/></g><g transform="translate(446.847 335.028)"><path class="n" d="M355.914,305.24h39.912a.953.953,0,0,1,.953.953v34.543H355V306.218A.953.953,0,0,1,355.914,305.24Z" transform="translate(-344.79 -263.088)"/><rect class="l" width="39.719" height="33.294" rx="1.22" transform="translate(10.686 43.259)"/><rect class="t" width="39.719" height="33.294" rx="1.22" transform="translate(10.686 43.259)"/><rect class="l" width="39.719" height="33.294" rx="1.22" transform="translate(8.111 43.259)"/><rect class="y" width="39.719" height="33.294" rx="1.22" transform="translate(8.111 43.259)"/><path class="l" d="M354.941,306.1h36.577a1.571,1.571,0,0,1,1.571,1.571v9.888H353.37v-9.875a1.571,1.571,0,0,1,1.571-1.584Z" transform="translate(-345.259 -262.841)"/><path class="e" d="M360.859,314.282v-3.206l-1.584,2.652h-.4l-1.6-2.575v3.167h-.85V309.48h.734l1.918,3.206,1.893-3.206h.734v4.841Z" transform="translate(-344.379 -261.869)"/><path class="e" d="M361.27,311.925a2.575,2.575,0,1,1,2.575,2.485,2.485,2.485,0,0,1-2.575-2.485Zm4.313,0a1.7,1.7,0,1,0-1.7,1.7,1.648,1.648,0,0,0,1.7-1.7Z" transform="translate(-342.988 -261.932)"/><path class="e" d="M370.36,309.45v4.841h-.734l-2.678-3.283v3.283h-.888V309.45h.734l2.678,3.27v-3.27Z" transform="translate(-341.611 -261.877)"/><path class="e" d="M370.41,309.453h2.111a2.433,2.433,0,1,1,0,4.841H370.41Zm2.073,4.081a1.661,1.661,0,0,0,0-3.322H371.3v3.322Z" transform="translate(-340.36 -261.88)"/><path class="e" d="M378.074,313.171h-2.42l-.476,1.12h-.927l2.176-4.841h.888l2.189,4.841h-.94Zm-.3-.708-.914-2.112-.9,2.112Z" transform="translate(-339.256 -261.877)"/><path class="e" d="M380.832,312.579v1.712h-.9v-1.7L378,309.45h.953l1.416,2.356,1.442-2.356h.875Z" transform="translate(-338.178 -261.877)"/><path class="l" d="M370.03,326.938c0,2.086-1.571,3.862-4.892,3.862a7.725,7.725,0,0,1-4.648-1.429l.991-1.79A5.755,5.755,0,0,0,365.1,328.8c1.648,0,2.575-.734,2.575-1.88S366.863,325.1,365,325.1h-1.133v-1.571l2.807-3.347h-5.523V318.26h8.42v1.532l-3,3.566C368.872,323.745,370.03,325.135,370.03,326.938Z" transform="translate(-343.212 -259.345)"/><path class="l" d="M369.06,324.54c0-4.068,2.227-6.36,5.15-6.36s5.15,2.292,5.15,6.36-2.227,6.36-5.15,6.36S369.06,328.6,369.06,324.54Zm8.021,0c0-2.987-1.159-4.365-2.858-4.365s-2.845,1.378-2.845,4.365,1.172,4.365,2.845,4.365S377.081,327.527,377.081,324.54Z" transform="translate(-340.748 -259.368)"/><path class="n" d="M363.051,308.411a1.03,1.03,0,0,1-1.03-1.03v-1.687a1.03,1.03,0,0,1,1.03-1.03h1.12a1.03,1.03,0,0,1,1.03,1.03v1.081h.914v-1.081a1.957,1.957,0,0,0-1.944-1.944h-1.12a1.944,1.944,0,0,0-1.931,1.944v1.687a1.944,1.944,0,0,0,1.931,1.944.464.464,0,1,0,0-.914Z" transform="translate(-343.031 -263.516)"/><path class="n" d="M373.051,308.411a1.03,1.03,0,0,1-1.03-1.03v-1.687a1.03,1.03,0,0,1,1.03-1.03h1.12a1.03,1.03,0,0,1,1.03,1.03v1.081h.914v-1.081a1.957,1.957,0,0,0-1.944-1.944h-1.12a1.944,1.944,0,0,0-1.931,1.944v1.687a1.944,1.944,0,0,0,1.931,1.944.463.463,0,1,0,0-.914Z" transform="translate(-340.156 -263.516)"/><path class="n" d="M399.722,334.109v-.438a1.069,1.069,0,0,0-1.081-1.081H353.771a1.081,1.081,0,0,0-1.081,1.081v.438Z" transform="translate(-345.454 -255.225)"/><rect class="n" width="4.867" height="64.941" transform="translate(66.975 14.484)"/><path class="l" d="M432.782,309.3h-52l4.21-36.8h43.581Z" transform="translate(-337.379 -272.5)"/><g class="z" transform="translate(43.401)"><path class="g" d="M432.782,309.3h-52l4.21-36.8h43.581Z" transform="translate(-380.78 -272.5)"/></g><path class="aa" d="M403.96,313.271v27.81h-4.88V310.22Z" transform="translate(-332.118 -261.656)"/><path class="l" d="M395.038,331.97h17.046l3.038,2.858H392Z" transform="translate(-334.153 -255.403)"/><path class="n" d="M395.038,331.97h17.046l3.038,2.858H392Z" transform="translate(-334.153 -255.403)"/><rect class="g" width="95.66" height="106.823" transform="translate(0 78.949)"/><rect class="ab" width="29.355" height="106.823" transform="translate(66.318 78.949)"/><rect class="aa" width="55.014" height="20.69" transform="translate(4.764 83.686)"/><rect class="aa" width="55.014" height="20.69" transform="translate(4.764 109.436)"/><rect class="aa" width="55.014" height="44.714" transform="translate(4.764 135.186)"/><path class="t" d="M373.69,341.123a2.176,2.176,0,1,1-1.034-2.023,2.176,2.176,0,0,1,1.034,2.023Z" transform="translate(-340.666 -253.445)"/><path class="t" d="M373.69,360.413a2.176,2.176,0,1,1-1.034-2.023,2.176,2.176,0,0,1,1.034,2.023Z" transform="translate(-340.666 -247.9)"/><path class="t" d="M355.492,395.346a2.176,2.176,0,1,1-2.176-2.176A2.176,2.176,0,0,1,355.492,395.346Z" transform="translate(-345.9 -237.809)"/></g></g></svg>