<svg xmlns="http://www.w3.org/2000/svg" xmlns:xlink="http://www.w3.org/1999/xlink" width="446.916" height="336.305" viewBox="0 0 446.916 336.305"><defs><style>.a{fill:none;}.b{fill:#ebebeb;}.c{fill:#e6e6e6;}.d{fill:#f5f5f5;}.e,.m,.v,.x{fill:#fff;}.f{fill:#f0f0f0;}.g{fill:#e0e0e0;}.h,.j{fill:#f3333e;}.h,.m,.w{opacity:0.3;}.i{fill:#00263e;}.k,.q{opacity:0.2;}.l{fill:#263238;}.n{fill:#cf7a64;}.o{fill:#ce7a63;}.p{clip-path:url(#a);}.r{fill:#ba4d3c;}.s{fill:#fdcfa6;}.t{fill:#f0ac78;}.u{fill:#fafafa;}.v{opacity:0.7;}.x{opacity:0.1;}</style><clipPath id="a"><path class="a" d="M166.838,173.094a133.46,133.46,0,0,1,27.539-.179,15.311,15.311,0,0,1,13.7,15.276c-.045,14.087-2.306,29.648-4.648,51.288-6.668,6.891-42.439-.277-42.439-.277a156.165,156.165,0,0,1,2.9-23.374c-1.216-8.938-4.308-19.128-6.051-30.971a10.36,10.36,0,0,1,9-11.763Z" transform="translate(-157.731 -172.29)"/></clipPath></defs><g transform="translate(0 3.297)"><rect class="b" width="446.916" height="0.223" transform="translate(0 292.641)"/><path class="b" d="M215.895,307.776H43.3a5.1,5.1,0,0,1-5.095-5.1V60.059A5.1,5.1,0,0,1,43.3,55h172.59a5.1,5.1,0,0,1,5.1,5.1V302.672A5.1,5.1,0,0,1,215.895,307.776ZM43.3,55.179a4.88,4.88,0,0,0-4.871,4.88V302.672a4.88,4.88,0,0,0,4.871,4.88h172.59a4.889,4.889,0,0,0,4.88-4.88V60.059a4.889,4.889,0,0,0-4.88-4.88Z" transform="translate(-4.057 -55)"/><path class="b" d="M432.2,307.776H259.6a5.113,5.113,0,0,1-5.1-5.1V60.059A5.113,5.113,0,0,1,259.6,55H432.2a5.1,5.1,0,0,1,5.086,5.059V302.672A5.1,5.1,0,0,1,432.2,307.776ZM259.6,55.179a4.889,4.889,0,0,0-4.88,4.88V302.672a4.889,4.889,0,0,0,4.88,4.88H432.2a4.889,4.889,0,0,0,4.88-4.88V60.059a4.889,4.889,0,0,0-4.88-4.88Z" transform="translate(-27.02 -55)"/><rect class="b" width="23.24" height="0.223" transform="translate(155.92 301.15)"/><rect class="b" width="48.356" height="0.223" transform="translate(46.89 298.728)"/><rect class="b" width="23.526" height="0.223" transform="translate(131.501 309.454)"/><rect class="b" width="34.708" height="0.223" transform="translate(230.814 307.952)"/><rect class="b" width="9.555" height="0.223" transform="translate(273.477 307.952)"/><rect class="b" width="48.767" height="0.223" transform="translate(353.376 304.18)"/><rect class="c" width="80.096" height="173.216" transform="translate(58.975 23.293)"/><rect class="d" width="80.096" height="173.216" transform="translate(62.041 23.293)"/><rect class="e" width="162.946" height="69.093" transform="translate(136.631 28.433) rotate(90)"/><rect class="c" width="162.946" height="2.315" transform="translate(136.631 28.433) rotate(90)"/><rect class="d" width="75.547" height="6.891" transform="translate(64.32 170.266)"/><rect class="d" width="75.547" height="6.891" transform="translate(64.32 152.086)"/><rect class="c" width="80.096" height="173.216" transform="translate(169.158 23.293)"/><rect class="d" width="80.096" height="173.216" transform="translate(172.224 23.293)"/><rect class="e" width="162.946" height="69.093" transform="translate(246.814 28.433) rotate(90)"/><rect class="c" width="162.946" height="2.315" transform="translate(246.823 28.433) rotate(90)"/><rect class="d" width="75.547" height="6.891" transform="translate(174.503 170.266)"/><rect class="d" width="75.547" height="6.891" transform="translate(174.503 152.086)"/><path class="d" d="M346.341,206.49c11.879,3.084,24.8,12.952,28.478,22.712q1.546-12.844,4.156-25.555a19.942,19.942,0,0,1-3.128,3.048c-16.563,14.078-26.055-17.617-19.45-41.59,11.4,4.541,22.98,15.973,25.4,26.136q3.155-12.594,7.347-24.938a20.554,20.554,0,0,1-3.495,2.682c-18.207,11.977-23.669-20.764-14.024-43.923,10.726,5.944,20.782,18.77,21.89,29.246q4.38-11.334,9.68-22.346c-12.514-.232-7.3-23.928,3.924-37.023,8.715,11.808,14.123,33.3-.08,36.593q-2.047,4.183-3.96,8.411c8.313-6.722,24.491-6.257,35.592-1.126-10.011,16.241-31.963,36.29-39.6,17.045a18.444,18.444,0,0,1-.992-4.228q-4.827,12-8.625,24.312c7.383-7.624,23.463-9.135,35.119-5.426-7.812,17.171-27.065,39.659-37.067,21.6A17.627,17.627,0,0,1,386,188.077q-3.28,12.424-5.5,25.027c6.364-8.447,22.122-11.906,34.144-9.68-5.586,17.877-21.89,42.546-34.064,25.921a17.467,17.467,0,0,1-2-3.817q-1.707,12.692-2.342,25.5c5.265-9.171,20.469-14.534,32.678-13.819-3.307,18.4-16.447,44.924-30.587,29.917h0a3.432,3.432,0,0,0-5.274.054l-.438.545q-.063-12.952.965-25.859a21.242,21.242,0,0,1-2.735,3.406C356.137,261.246,342.784,230.981,346.341,206.49Z" transform="translate(-36.709 -59.24)"/><path class="b" d="M389.348,232.913c-7.83,2.494-16.2,9.635-18.4,16.411q-1.35-8.7-3.405-17.278a13.247,13.247,0,0,0,2.154,1.966c11.379,9.055,16.92-12.853,11.924-28.978-7.472,3.468-14.909,11.62-16.268,18.645q-2.413-8.474-5.506-16.759a13.121,13.121,0,0,0,2.387,1.689c12.424,7.571,15.249-14.918,8.241-30.39-7,4.4-13.363,13.479-13.845,20.639q-3.191-7.58-7-14.909c8.3-.563,4.273-16.545-3.531-25.1-5.506,8.331-8.572,23.15.965,24.929q1.457,2.789,2.842,5.613c-5.7-4.317-16.464-3.468-23.722.393,7.07,10.726,22.176,23.687,26.815,10.324a13.106,13.106,0,0,0,.554-2.914q3.513,8.044,6.346,16.286c-5.1-4.952-15.848-5.461-23.517-2.556,5.631,11.459,19,26.154,25.215,13.524a12.136,12.136,0,0,0,.894-2.807q2.494,8.348,4.281,16.893c-4.469-5.551-15.016-7.392-22.971-5.479,4.165,12.013,15.633,28.281,23.32,16.554a12.068,12.068,0,0,0,1.242-2.682q1.448,8.59,2.19,17.3c-3.727-6.078-13.988-9.242-22.1-8.348,2.681,12.424,12.067,30.086,21.1,19.387h0a2.261,2.261,0,0,1,3.513-.134l.313.358q-.295-8.822-1.287-17.591a13.733,13.733,0,0,0,1.9,2.226C384.182,270.552,392.316,249.493,389.348,232.913Z" transform="translate(-34.631 -66.026)"/><path class="f" d="M411.492,274.28s-.84,96.641-32.866,96.641S345.76,274.28,345.76,274.28Z" transform="translate(-36.709 -78.281)"/><rect class="d" width="173.359" height="58.984" transform="translate(260.632 268.042) rotate(180)"/><rect class="b" width="49.447" height="163.822" transform="translate(255.868 213.823) rotate(90)"/><rect class="c" width="49.447" height="108.949" transform="translate(200.987 213.831) rotate(90)"/><rect class="g" width="49.447" height="73.804" transform="translate(200.987 213.831) rotate(90)"/><rect class="g" width="16.598" height="1.502" transform="translate(250.237 230.251) rotate(90)"/><rect class="g" width="3.888" height="163.822" transform="translate(255.868 213.823) rotate(90)"/><rect class="c" width="24.017" height="58.984" transform="translate(63.256 209.058)"/><path class="d" d="M99.964,379.478H97.64v-24.6h4.013Z" transform="translate(-10.366 -86.838)"/><path class="d" d="M288.789,379.478h2.324v-24.6H287.1Z" transform="translate(-30.481 -86.838)"/><path class="c" d="M73.094,379.478H70.77v-24.6h4.013Z" transform="translate(-7.514 -86.838)"/><path class="c" d="M261.919,379.478h2.324v-24.6H260.23Z" transform="translate(-27.628 -86.838)"/></g><g transform="translate(50.152 316.068)"><ellipse class="d" cx="173.305" cy="10.118" rx="173.305" ry="10.118"/></g><g transform="translate(166.078)"><path class="e" d="M275.613,124.8c16.733-5.712,28.352-16.813,29.336-30.337,1.546-21.291-23.856-40.491-56.74-42.9s-60.781,12.952-62.336,34.252c-1.26,17.385,15.436,33.367,39.5,39.945-6.257,6.972-16.509,9.537-16.509,9.537s19.584-1.135,26.422-7.392c2.4.366,4.836.652,7.329.831a87.765,87.765,0,0,0,24.4-1.564c6.212,6.57,22.265,10.958,22.265,10.958S279.483,133.266,275.613,124.8Z" transform="translate(-185.805 -51.311)"/><path class="h" d="M275.613,124.8c16.733-5.712,28.352-16.813,29.336-30.337,1.546-21.291-23.856-40.491-56.74-42.9s-60.781,12.952-62.336,34.252c-1.26,17.385,15.436,33.367,39.5,39.945-6.257,6.972-16.509,9.537-16.509,9.537s19.584-1.135,26.422-7.392c2.4.366,4.836.652,7.329.831a87.765,87.765,0,0,0,24.4-1.564c6.212,6.57,22.265,10.958,22.265,10.958S279.483,133.266,275.613,124.8Z" transform="translate(-185.805 -51.311)"/><path class="i" d="M287.618,110.09l-7.061.572a7.8,7.8,0,1,1-14.712,1.2l-11.942.974-.974-11.951a7.41,7.41,0,0,0,5.6-.733,7.964,7.964,0,0,0,4.067-7.633A7.785,7.785,0,0,0,251.7,86.171L250.73,74.23l11.951-.974a7.588,7.588,0,0,1-.644-3.414,7.875,7.875,0,0,1,7.106-7.455,7.785,7.785,0,0,1,8.241,9.671l7.07-.572a4.9,4.9,0,0,1,5.274,4.469l2.36,28.871A4.889,4.889,0,0,1,287.618,110.09Z" transform="translate(-192.698 -52.483)"/><path class="j" d="M250.545,86.948a7.7,7.7,0,0,0-3.379.644l-.974-11.942-11.933.965a7.705,7.705,0,0,1,.635,2.681A7.8,7.8,0,1,1,219.538,77.8l-7.061.581a4.88,4.88,0,0,0-4.469,5.265L210.35,112.5a4.9,4.9,0,0,0,5.274,4.469l7.07-.581a7.678,7.678,0,0,0,.241,4.612,7.794,7.794,0,1,0,14.464-5.81l11.949-.965-.974-11.951a7.723,7.723,0,0,0,2.538.215,7.8,7.8,0,0,0,7.151-8.4,7.893,7.893,0,0,0-7.517-7.142Z" transform="translate(-188.161 -53.895)"/><path class="i" d="M238.608,61.1a22.286,22.286,0,0,0-2.208-1.841l.572-.8a21.349,21.349,0,0,1,2.315,1.931Z" transform="translate(-191.177 -52.069)"/><path class="j" d="M245.144,69.878a20.979,20.979,0,0,0-3.414-5.452l.76-.626a22.1,22.1,0,0,1,3.575,5.738Z" transform="translate(-191.743 -52.637)"/><path class="i" d="M252.8,67.007h-.983a16.982,16.982,0,0,1,3.969-10.8l.76.635A16.009,16.009,0,0,0,252.8,67.007Z" transform="translate(-192.814 -51.831)"/><path class="j" d="M247.315,62.137a26.866,26.866,0,0,0-2.985-7.8l.813-.554a27.512,27.512,0,0,1,3.137,8.161Z" transform="translate(-192.019 -51.573)"/><path class="i" d="M262.752,133.437a22.345,22.345,0,0,1-2.092-2.172l.751-.635a22.236,22.236,0,0,0,2,2.065Z" transform="translate(-193.752 -59.732)"/><path class="j" d="M258.715,128.774a21.775,21.775,0,0,1-3.495-6.874l.956-.25a21.069,21.069,0,0,0,3.316,6.57Z" transform="translate(-193.175 -58.779)"/><path class="j" d="M251.728,128.034a9.832,9.832,0,0,1,.733-6.024l.894.438a9.108,9.108,0,0,0-.652,5.363Z" transform="translate(-192.785 -58.817)"/></g><g transform="translate(121.533 73.113)"><path class="i" d="M182.113,315.748c-5.747-32.08-8.143-70.756-8.143-70.756l30.632-.483s-2.619,52.128-3.888,73.965c-1.314,22.694-2.235,66.385-2.235,66.385H187.914S178.922,343.815,182.113,315.748Z" transform="translate(-140.003 -144.935)"/><path class="k" d="M188.394,254.82s-4.156,31.141-7.571,53.97c-3.03-19.191-4.952-39.329-5.953-51.476Z" transform="translate(-140.099 -146.03)"/><path class="l" d="M214.319,412.56s-14.185-3.334-14.811-8.17l-9.046,1.171-.992,9.421h3.736l.6-1.171,1.251,1.171c12.692,0,17.394-.134,19.745-.894a1.484,1.484,0,0,0-.483-1.528Z" transform="translate(-141.649 -161.909)"/><path class="j" d="M189,406.707c3.4.2,10.181-.3,11.5-.956s.536-5.917.536-5.917-11.861-1.18-12.907-.527S189,406.707,189,406.707Z" transform="translate(-141.474 -161.349)"/><path class="m" d="M189,406.707c3.4.2,10.181-.3,11.5-.956s.536-5.917.536-5.917-11.861-1.18-12.907-.527S189,406.707,189,406.707Z" transform="translate(-141.474 -161.349)"/><path class="i" d="M150.171,314.86c5.229-32.258,5.059-53.809,10.288-69.719l29.9-.411s-14.5,51.19-21.059,72.5-18.574,67.654-18.574,67.654H141S141.429,339.816,150.171,314.86Z" transform="translate(-136.503 -144.959)"/><path class="l" d="M160.744,412.56s-10.726-3.334-11.325-8.17l-9.046,1.171-.983,9.421h2.333l.6-1.171,1.251,1.171c12.692,0,15.3-.134,17.653-.894a1.484,1.484,0,0,0-.483-1.528Z" transform="translate(-136.332 -161.909)"/><path class="j" d="M139.367,406.434c2.083.429,9.975-.071,11.387-.724s.974-6.176.974-6.176-10.726-1.278-11.879-.626S139.367,406.434,139.367,406.434Z" transform="translate(-136.309 -161.308)"/><path class="m" d="M139.367,406.434c2.083.429,9.975-.071,11.387-.724s.974-6.176.974-6.176-10.726-1.278-11.879-.626S139.367,406.434,139.367,406.434Z" transform="translate(-136.309 -161.308)"/><path class="n" d="M206.666,181.307l2.565,2.208,2.681,2.235c1.788,1.493,3.575,2.923,5.363,4.317.894.688,1.788,1.359,2.682,1.993s1.788,1.26,2.637,1.788,1.734,1.055,2.521,1.484a14.615,14.615,0,0,0,1.895.849l-1.225-.089c-.17.08.259.089.8,0a12.024,12.024,0,0,0,1.966-.7,40.792,40.792,0,0,0,4.594-2.449c1.591-.894,3.182-1.966,4.782-3.03l4.809-3.218.116-.072a3.575,3.575,0,0,1,4.97,4.889,56.717,56.717,0,0,1-3.781,5.1,59.445,59.445,0,0,1-4.344,4.71,40.222,40.222,0,0,1-5.247,4.326,22.344,22.344,0,0,1-3.4,1.931,13.9,13.9,0,0,1-5,1.305,3.985,3.985,0,0,1-.8,0l-.42-.063a22.561,22.561,0,0,1-5.014-1.376,36.78,36.78,0,0,1-3.951-1.832,65.377,65.377,0,0,1-6.838-4.192c-2.145-1.475-4.174-3.039-6.15-4.639-.983-.813-1.966-1.618-2.914-2.467s-1.859-1.671-2.86-2.637a7.07,7.07,0,0,1,9.51-10.458Z" transform="translate(-142.229 -138.034)"/><path class="o" d="M249.54,193.662l7.919-.063-2.735-9.1s-7.151.894-7.285,4.818Z" transform="translate(-147.803 -138.564)"/><path class="o" d="M264.144,187.619l-1.5-3.021a2.744,2.744,0,0,0-3.262-1.412l-3.79,1.162,2.735,9.1,4.523-2.118a2.753,2.753,0,0,0,1.3-3.709Z" transform="translate(-148.669 -138.412)"/><path class="i" d="M199.245,175.93a14.659,14.659,0,0,0-3.879,19.056,10.627,10.627,0,0,0,1.832,2.422c3.137,2.976,10.914,5.6,16.017,7.821,6.5-2.315,9.832-9.2,8.84-13.014-4.943-6.552-13.971-16.152-18.654-17.421A4.907,4.907,0,0,0,199.245,175.93Z" transform="translate(-142.066 -137.52)"/><path class="j" d="M166.838,173.094a133.46,133.46,0,0,1,27.539-.179,15.311,15.311,0,0,1,13.7,15.276c-.045,14.087-2.306,29.648-4.648,51.288-6.668,6.891-42.439-.277-42.439-.277a156.165,156.165,0,0,1,2.9-23.374c-1.216-8.938-4.308-19.128-6.051-30.971a10.36,10.36,0,0,1,9-11.763Z" transform="translate(-138.279 -137.268)"/><g class="p" transform="translate(19.452 35.022)"><g class="q" transform="translate(-1.574 0.574)"><path class="e" d="M166.192,188.846a.237.237,0,0,1-.009-.474,8.214,8.214,0,0,0,4.836-1.931,1.859,1.859,0,0,1-.67-.518,2.682,2.682,0,0,1-.465-1.01c-.527-1.922-.054-4.469,1.85-5.488a1.7,1.7,0,0,1,2.1.143,1.788,1.788,0,0,1,.34.831,6.016,6.016,0,0,1-.608,3.575,8.322,8.322,0,0,1-1.609,2.243h.161a4.693,4.693,0,0,0,3.745-1.573,6.472,6.472,0,0,0,1.573-3.879.223.223,0,0,1,.25-.215.241.241,0,0,1,.223.25,6.981,6.981,0,0,1-1.7,4.165,5.122,5.122,0,0,1-4.129,1.725,4.312,4.312,0,0,1-.545-.089,8.822,8.822,0,0,1-5.363,2.226Zm6.623-9.242a1.85,1.85,0,0,0-.849.241c-1.68.894-2.092,3.245-1.627,4.952a2.2,2.2,0,0,0,.375.822,1.5,1.5,0,0,0,.706.474,8.045,8.045,0,0,0,1.716-2.324,5.568,5.568,0,0,0,.572-3.289,1.3,1.3,0,0,0-.232-.608.84.84,0,0,0-.661-.313Z" transform="translate(-157.03 -173.59)"/><path class="e" d="M188.057,198.269h-.08a6.981,6.981,0,0,1-3.522-2.789,5.139,5.139,0,0,1-.51-4.469,4.2,4.2,0,0,1,.241-.5,8.786,8.786,0,0,1-.652-5.738.241.241,0,0,1,.465.107,8.3,8.3,0,0,0,.5,5.193,1.877,1.877,0,0,1,.688-.51,2.574,2.574,0,0,1,1.09-.161c2,0,4.273,1.18,4.755,3.307a1.7,1.7,0,0,1-.715,1.975,1.788,1.788,0,0,1-.894.1,6.06,6.06,0,0,1-3.262-1.582,8.232,8.232,0,0,1-1.707-2.172c0,.054-.045.107-.063.152a4.71,4.71,0,0,0,.465,4.031,6.418,6.418,0,0,0,3.28,2.592.24.24,0,0,1-.08.465Zm-3.334-7.714a8.044,8.044,0,0,0,1.788,2.3,5.479,5.479,0,0,0,3,1.466,1.233,1.233,0,0,0,.644-.054c.465-.206.581-.894.447-1.439-.42-1.868-2.53-2.914-4.3-2.95a2.225,2.225,0,0,0-.894.134,1.5,1.5,0,0,0-.688.545Z" transform="translate(-158.873 -174.173)"/><path class="e" d="M208.486,192.2a1.251,1.251,0,0,1-.983-.411,1.663,1.663,0,0,1-.358-.822,5.9,5.9,0,0,1,.518-3.575,8.464,8.464,0,0,1,1.546-2.288h-.161a4.728,4.728,0,0,0-3.7,1.663,6.471,6.471,0,0,0-1.475,3.924.237.237,0,1,1-.474-.027,6.927,6.927,0,0,1,1.591-4.2,5.1,5.1,0,0,1,4.085-1.788,3.254,3.254,0,0,1,.554.072,8.733,8.733,0,0,1,5.274-2.351.223.223,0,0,1,.25.215.241.241,0,0,1-.215.25,8.34,8.34,0,0,0-4.8,2.056,1.788,1.788,0,0,1,.7.5,2.682,2.682,0,0,1,.483.992c.572,1.913.161,4.424-1.716,5.533a2.342,2.342,0,0,1-1.117.259Zm1.269-6.99a8.044,8.044,0,0,0-1.663,2.36,5.6,5.6,0,0,0-.492,3.307,1.457,1.457,0,0,0,.25.6,1.26,1.26,0,0,0,1.511,0c1.654-.965,2.011-3.289,1.511-4.988a2.315,2.315,0,0,0-.393-.822,1.546,1.546,0,0,0-.724-.456Z" transform="translate(-161.005 -173.937)"/><path class="e" d="M197.916,186.49h-.045a.241.241,0,0,1-.188-.277,8.339,8.339,0,0,0-.626-5.175,1.993,1.993,0,0,1-.679.518,2.619,2.619,0,0,1-1.09.2h0c-1.993,0-4.273-1.1-4.8-3.2a1.689,1.689,0,0,1,.67-1.993,1.788,1.788,0,0,1,.894-.116,5.953,5.953,0,0,1,3.3,1.511,8.4,8.4,0,0,1,1.788,2.118l.054-.152a4.684,4.684,0,0,0-.563-4.022,6.445,6.445,0,0,0-3.352-2.5.241.241,0,0,1-.143-.3.232.232,0,0,1,.3-.143,6.882,6.882,0,0,1,3.575,2.681,5.1,5.1,0,0,1,.617,4.469,3.456,3.456,0,0,1-.223.5,8.786,8.786,0,0,1,.787,5.729A.25.25,0,0,1,197.916,186.49Zm-6.141-9.591a1.1,1.1,0,0,0-.447.08c-.456.215-.554.894-.411,1.448.465,1.85,2.583,2.842,4.344,2.842h0a2.1,2.1,0,0,0,.894-.152,1.52,1.52,0,0,0,.644-.563,8.045,8.045,0,0,0-1.788-2.252,5.488,5.488,0,0,0-3.03-1.394Z" transform="translate(-159.624 -172.933)"/><path class="e" d="M170.527,215.846a.241.241,0,0,1,0-.474,8.268,8.268,0,0,0,4.845-1.931,1.9,1.9,0,0,1-.679-.518,2.681,2.681,0,0,1-.465-1c-.527-1.931-.054-4.469,1.859-5.488a1.671,1.671,0,0,1,2.092.134,1.787,1.787,0,0,1,.34.831,6.016,6.016,0,0,1-.608,3.575,8.125,8.125,0,0,1-1.618,2.19h.161a4.692,4.692,0,0,0,3.745-1.573,6.445,6.445,0,0,0,1.573-3.879.223.223,0,0,1,.25-.215.241.241,0,0,1,.223.25,6.954,6.954,0,0,1-1.7,4.165,5.122,5.122,0,0,1-4.13,1.725,4.591,4.591,0,0,1-.545-.089,8.813,8.813,0,0,1-5.363,2.226Zm6.659-9.251a1.841,1.841,0,0,0-.894.232c-1.68.894-2.092,3.245-1.627,4.952a2.2,2.2,0,0,0,.375.822,1.5,1.5,0,0,0,.706.474,7.965,7.965,0,0,0,1.716-2.324,5.568,5.568,0,0,0,.572-3.289,1.3,1.3,0,0,0-.232-.608A.84.84,0,0,0,177.186,206.595Z" transform="translate(-157.495 -176.457)"/><path class="e" d="M192.987,226.376H192.9a7.016,7.016,0,0,1-3.522-2.789,5.1,5.1,0,0,1-.5-4.469,4.079,4.079,0,0,1,.232-.5,8.777,8.777,0,0,1-.644-5.738.232.232,0,0,1,.286-.17.223.223,0,0,1,.17.277,8.313,8.313,0,0,0,.51,5.193,1.9,1.9,0,0,1,.688-.509,2.682,2.682,0,0,1,1.09-.161c1.993,0,4.273,1.18,4.755,3.307a1.689,1.689,0,0,1-.724,1.975,1.671,1.671,0,0,1-.894.1,5.962,5.962,0,0,1-3.262-1.582,8.42,8.42,0,0,1-1.707-2.172.158.158,0,0,1-.063.152,4.71,4.71,0,0,0,.465,4.031,6.436,6.436,0,0,0,3.289,2.592.242.242,0,0,1-.08.465Zm-3.334-7.714a7.732,7.732,0,0,0,1.788,2.3,5.542,5.542,0,0,0,2.994,1.475,1.368,1.368,0,0,0,.652-.063c.465-.206.572-.894.447-1.439-.42-1.868-2.53-2.914-4.3-2.95a2.136,2.136,0,0,0-.894.134,1.528,1.528,0,0,0-.688.545Z" transform="translate(-159.396 -177.155)"/><path class="e" d="M174.483,231.409a.241.241,0,0,1-.215-.152,6.972,6.972,0,0,1-.268-4.469A5.131,5.131,0,0,1,177,223.454a3.4,3.4,0,0,1,.527-.152,8.831,8.831,0,0,1,3.852-4.308.241.241,0,1,1,.223.42,8.348,8.348,0,0,0-3.575,3.826h0a1.966,1.966,0,0,1,.831.179,2.6,2.6,0,0,1,.894.706c1.305,1.52,1.958,3.978.688,5.756a1.716,1.716,0,0,1-1.993.733,1.788,1.788,0,0,1-.661-.608,5.953,5.953,0,0,1-.983-3.486,8.277,8.277,0,0,1,.474-2.681l-.152.054a4.7,4.7,0,0,0-2.682,3.03,6.5,6.5,0,0,0,.25,4.174.232.232,0,0,1-.134.3Zm3.37-7.7a7.99,7.99,0,0,0-.545,2.842,5.47,5.47,0,0,0,.894,3.209,1.269,1.269,0,0,0,.474.447c.465.215,1.037-.152,1.376-.617,1.108-1.564.492-3.826-.661-5.175a2.226,2.226,0,0,0-.7-.581,1.6,1.6,0,0,0-.84-.125Z" transform="translate(-157.858 -177.818)"/><path class="e" d="M172.365,249.043h0a6.891,6.891,0,0,1-4.165-1.663,5.113,5.113,0,0,1-1.788-4.121,4.237,4.237,0,0,1,.08-.545,8.858,8.858,0,0,1-2.252-5.363.224.224,0,0,1,.223-.241.241.241,0,0,1,.25.223,8.366,8.366,0,0,0,1.957,4.827,1.9,1.9,0,0,1,.518-.679,2.753,2.753,0,0,1,1-.474c1.922-.527,4.424-.072,5.5,1.788a1.689,1.689,0,0,1-.125,2.1,1.886,1.886,0,0,1-.831.349,6.024,6.024,0,0,1-3.575-.6,8.41,8.41,0,0,1-2.252-1.582.98.98,0,0,0,0,.161,4.711,4.711,0,0,0,1.591,3.8,6.5,6.5,0,0,0,3.888,1.555.233.233,0,0,1-.018.465ZM167,242.589a8.044,8.044,0,0,0,2.342,1.707,5.56,5.56,0,0,0,3.289.554,1.359,1.359,0,0,0,.608-.241c.384-.331.295-1.01,0-1.511-.939-1.671-3.254-2.074-4.961-1.6a2.378,2.378,0,0,0-.831.375,1.716,1.716,0,0,0-.411.715Z" transform="translate(-156.848 -179.746)"/><path class="e" d="M164.095,226.066h0a6.954,6.954,0,0,1-4.165-1.671,5.1,5.1,0,0,1-1.788-4.121,4.74,4.74,0,0,1,.08-.545,8.858,8.858,0,0,1-2.252-5.318.241.241,0,0,1,.223-.25.25.25,0,0,1,.25.223,8.366,8.366,0,0,0,1.957,4.836,2,2,0,0,1,.518-.688,2.681,2.681,0,0,1,1-.465c1.922-.536,4.469-.08,5.5,1.788a1.689,1.689,0,0,1-.125,2.1,1.787,1.787,0,0,1-.831.34,5.953,5.953,0,0,1-3.575-.59,8.241,8.241,0,0,1-2.252-1.591,1.252,1.252,0,0,0,0,.161,4.71,4.71,0,0,0,1.591,3.736,6.436,6.436,0,0,0,3.888,1.546.255.255,0,0,1-.018.51Zm-5.363-6.462a7.856,7.856,0,0,0,2.342,1.707,5.5,5.5,0,0,0,3.289.554,1.261,1.261,0,0,0,.608-.241c.384-.322.295-1,0-1.5-.894-1.671-3.254-2.074-4.961-1.6a2.2,2.2,0,0,0-.822.375,1.618,1.618,0,0,0-.42.706Z" transform="translate(-155.97 -177.31)"/><path class="e" d="M212.816,216.7a1.278,1.278,0,0,1-.983-.4,1.662,1.662,0,0,1-.358-.822,6,6,0,0,1,.518-3.575,8.419,8.419,0,0,1,1.546-2.279h-.161a4.728,4.728,0,0,0-3.7,1.663A6.445,6.445,0,0,0,208.2,215.2a.232.232,0,0,1-.25.223.241.241,0,0,1-.223-.241,6.9,6.9,0,0,1,1.591-4.2,5.139,5.139,0,0,1,4.085-1.832,4.6,4.6,0,0,1,.554.08,8.8,8.8,0,0,1,5.274-2.36.232.232,0,0,1,.25.223.241.241,0,0,1-.215.25,8.277,8.277,0,0,0-4.791,2.047,1.976,1.976,0,0,1,.688.51,2.547,2.547,0,0,1,.483.992c.572,1.913.161,4.424-1.716,5.524A2.253,2.253,0,0,1,212.816,216.7Zm1.278-6.99a7.973,7.973,0,0,0-1.654,2.369,5.649,5.649,0,0,0-.492,3.3,1.349,1.349,0,0,0,.259.608c.331.375,1.01.277,1.5,0,1.654-.974,2.011-3.3,1.511-4.988a2.315,2.315,0,0,0-.393-.822,1.662,1.662,0,0,0-.733-.465Z" transform="translate(-161.465 -176.536)"/><path class="e" d="M211.009,234.69a.241.241,0,0,1-.232-.223,8.268,8.268,0,0,0-2.029-4.8,1.975,1.975,0,0,1-.509.688,2.682,2.682,0,0,1-.992.483c-1.913.563-4.424.143-5.524-1.743a1.689,1.689,0,0,1,.1-2.1,1.663,1.663,0,0,1,.822-.358,5.917,5.917,0,0,1,3.575.536,8.446,8.446,0,0,1,2.279,1.555v-.152a4.746,4.746,0,0,0-1.645-3.718,6.552,6.552,0,0,0-3.915-1.493.232.232,0,0,1,0-.465,6.838,6.838,0,0,1,4.192,1.609,5.077,5.077,0,0,1,1.788,4.094,3.274,3.274,0,0,1-.071.545,8.8,8.8,0,0,1,2.333,5.283.241.241,0,0,1-.223.259Zm-7.446-7.669a3.852,3.852,0,0,0-.831.08,1.216,1.216,0,0,0-.6.25c-.384.331-.286,1.01,0,1.5.965,1.663,3.289,2.029,4.979,1.528a2.288,2.288,0,0,0,.822-.384,1.662,1.662,0,0,0,.456-.715,7.848,7.848,0,0,0-2.36-1.68,6.078,6.078,0,0,0-2.467-.581Z" transform="translate(-160.793 -178.238)"/><path class="e" d="M203.81,249.281a1.215,1.215,0,0,1-.894-.349,1.725,1.725,0,0,1-.42-.8,6.007,6.007,0,0,1,.286-3.575,8.3,8.3,0,0,1,1.385-2.387h-.161a4.666,4.666,0,0,0-3.575,1.913,6.453,6.453,0,0,0-1.207,4,.223.223,0,0,1-.232.241.232.232,0,0,1-.232-.232,6.909,6.909,0,0,1,1.3-4.3,5.122,5.122,0,0,1,3.951-2.1,4.105,4.105,0,0,1,.554,0,8.8,8.8,0,0,1,5.1-2.681.234.234,0,1,1,.063.465,8.321,8.321,0,0,0-4.639,2.369,2.02,2.02,0,0,1,.724.456,2.825,2.825,0,0,1,.554.965c.7,1.868.465,4.4-1.341,5.631a2.261,2.261,0,0,1-1.216.375Zm.894-7.07a8.1,8.1,0,0,0-1.5,2.476,5.524,5.524,0,0,0-.268,3.325,1.314,1.314,0,0,0,.295.59,1.251,1.251,0,0,0,1.5-.116c1.582-1.082,1.788-3.423,1.162-5.077a2.145,2.145,0,0,0-.447-.8,1.636,1.636,0,0,0-.724-.4Z" transform="translate(-160.512 -179.949)"/><path class="e" d="M183.551,252.567a.241.241,0,0,1-.223-.152.232.232,0,0,1,.134-.3,8.268,8.268,0,0,0,3.96-3.388,1.967,1.967,0,0,1-.8-.277,2.681,2.681,0,0,1-.769-.8c-1.108-1.663-1.466-4.183,0-5.792a1.457,1.457,0,0,1,2.619.134,5.926,5.926,0,0,1,.563,3.575,8.3,8.3,0,0,1-.787,2.681h.152a4.693,4.693,0,0,0,3.039-2.681,6.436,6.436,0,0,0,.241-4.183.241.241,0,0,1,.17-.286.232.232,0,0,1,.286.17,6.945,6.945,0,0,1-.259,4.469,5.131,5.131,0,0,1-3.361,2.959,3.131,3.131,0,0,1-.545.1,8.8,8.8,0,0,1-4.335,3.817Zm3.709-10.949a1.582,1.582,0,0,0-1.064.554c-1.287,1.421-.894,3.745.045,5.211a2.333,2.333,0,0,0,.626.67,1.573,1.573,0,0,0,.822.215,7.937,7.937,0,0,0,.894-2.753,5.568,5.568,0,0,0-.509-3.3,1.4,1.4,0,0,0-.42-.5A.7.7,0,0,0,187.261,241.617Z" transform="translate(-158.873 -180.169)"/><path class="e" d="M202.251,211h0a.232.232,0,0,1-.179-.286,8.349,8.349,0,0,0-.635-5.175,1.9,1.9,0,0,1-.679.527,2.6,2.6,0,0,1-1.09.188h0c-1.993,0-4.273-1.09-4.8-3.191a1.689,1.689,0,0,1,.67-1.993,1.788,1.788,0,0,1,.894-.116,6.069,6.069,0,0,1,3.307,1.5,8.438,8.438,0,0,1,1.788,2.127l.054-.152a4.684,4.684,0,0,0-.563-4.022,6.471,6.471,0,0,0-3.45-2.467.232.232,0,0,1-.152-.295.25.25,0,0,1,.3-.152,7,7,0,0,1,3.575,2.681,5.1,5.1,0,0,1,.608,4.469,3.577,3.577,0,0,1-.223.509,8.769,8.769,0,0,1,.787,5.721A.223.223,0,0,1,202.251,211Zm-6.141-9.591a1.108,1.108,0,0,0-.447.089c-.456.215-.554.894-.411,1.448.474,1.85,2.583,2.842,4.344,2.842h0a2.476,2.476,0,0,0,.894-.152,1.582,1.582,0,0,0,.644-.563,8.1,8.1,0,0,0-1.788-2.261,5.479,5.479,0,0,0-3.03-1.385Z" transform="translate(-160.089 -175.54)"/><path class="e" d="M168.216,208.029h-.054a.241.241,0,0,1-.179-.286,8.286,8.286,0,0,0-.635-5.175,1.9,1.9,0,0,1-.679.527,2.727,2.727,0,0,1-1.082.2h0c-1.984,0-4.264-1.1-4.8-3.2a1.7,1.7,0,0,1,.67-1.993,1.788,1.788,0,0,1,.894-.116,6.033,6.033,0,0,1,3.3,1.5,8.259,8.259,0,0,1,1.788,2.127c0-.054.045-.107.063-.152a4.737,4.737,0,0,0-.563-4.022,6.534,6.534,0,0,0-3.352-2.512.224.224,0,0,1-.143-.295.241.241,0,0,1,.295-.152,7,7,0,0,1,3.575,2.681,5.1,5.1,0,0,1,.608,4.469,2.771,2.771,0,0,1-.223.509,8.831,8.831,0,0,1,.8,5.721A.241.241,0,0,1,168.216,208.029Zm-6.15-9.591a1.064,1.064,0,0,0-.438.089c-.456.215-.554.894-.411,1.448.465,1.85,2.574,2.842,4.335,2.842h0a2.457,2.457,0,0,0,.894-.152,1.609,1.609,0,0,0,.635-.563,8.044,8.044,0,0,0-1.788-2.261,5.542,5.542,0,0,0-3.039-1.385Z" transform="translate(-156.471 -175.219)"/></g></g><path class="o" d="M176.86,154.11A37.353,37.353,0,0,1,174,170.556c2.887,2.681,7.58,6.024,13.828,5.935s5.211-3.289,3.575-5.47c-4.469-2.252-4.764-5.569-3.665-7.58Z" transform="translate(-140.007 -135.338)"/><path class="k" d="M188.476,164.193l-4.952-3.093c-2.279.358-3.379,3.262-.545,5.452,1.931,1.493,4.979,2.083,5.363,1.68A4.469,4.469,0,0,1,188.476,164.193Z" transform="translate(-140.78 -136.08)"/><path class="l" d="M191.507,140.362c6.364-1.332,5.3,6.57,3.647,10.672C190.98,144.939,191.507,140.362,191.507,140.362Z" transform="translate(-141.863 -133.862)"/><path class="o" d="M173.252,148.41c1.233,7.008,1.618,10.637,6.123,13.023,11.235,5.935,13.783,1.85,14.677-5.363.8-6.525-1.35-16.893-8.581-18.86a9.832,9.832,0,0,0-12.219,11.2Z" transform="translate(-139.911 -133.508)"/><path class="l" d="M174.506,153.784c6.1,1.251-.429-5.175.983-7.785s9.09-.67,6.891-4.934c5.962,1.511,11.486,2.056,12.692-1.966,1.788-5.846-3.915-6.963-7.276-5.274-2.816,1.421-2.789,1.886-7,.474s-14.668-.59-12,4.21c-4.755.2-4.755,6.257-.822,7.982S169.9,152.837,174.506,153.784Z" transform="translate(-139.064 -133.108)"/><path class="e" d="M174.162,152.183a.241.241,0,0,1-.223-.17.232.232,0,0,1,.152-.295l9.51-2.95a.241.241,0,0,1,.295.152.232.232,0,0,1-.152.295l-9.51,2.95Z" transform="translate(-139.999 -134.77)"/><path class="l" d="M169.813,139.306c-2.3-1.85-5.363-2.306-5.363-1.216s4.29.894,4.7,1.627S169.813,139.306,169.813,139.306Z" transform="translate(-138.993 -133.575)"/><path class="e" d="M191.609,158.165a56.948,56.948,0,0,0-8.259-.635c.7,1.394,2.02,2.556,5.14,2.637S191.609,158.165,191.609,158.165Z" transform="translate(-140.999 -135.701)"/><path class="o" d="M170.852,155.317a6.525,6.525,0,0,0,3.486,3.245c1.949.706,2.878-1.216,2.306-3.316-.527-1.886-2.163-4.532-4.1-4.317S169.931,153.422,170.852,155.317Z" transform="translate(-139.629 -134.999)"/><path class="l" d="M186.578,149.767c.089.6.483,1.028.894.965s.635-.6.545-1.2-.483-1.028-.894-.965S186.488,149.168,186.578,149.767Z" transform="translate(-141.34 -134.749)"/><path class="l" d="M193.827,149.607c.089.6.474,1.037.894.974s.635-.6.545-1.2-.483-1.037-.894-.974S193.729,149.008,193.827,149.607Z" transform="translate(-142.109 -134.732)"/><path class="l" d="M183.821,147.95a.393.393,0,0,1-.17-.063.357.357,0,0,1-.1-.492,3.575,3.575,0,0,1,2.833-1.636.358.358,0,0,1,0,.715h0a2.86,2.86,0,0,0-2.226,1.314A.34.34,0,0,1,183.821,147.95Z" transform="translate(-141.015 -134.451)"/><path class="l" d="M195.476,145.8a.357.357,0,0,1-.322-.1,2.8,2.8,0,0,0-2.4-.894.355.355,0,1,1-.134-.7,3.468,3.468,0,0,1,3.048,1.09.358.358,0,0,1,0,.5A.331.331,0,0,1,195.476,145.8Z" transform="translate(-141.952 -134.272)"/><path class="e" d="M194.377,153.392a1.591,1.591,0,0,1-1.171-.563,5.756,5.756,0,0,1-.983-4.165c.223-2.628,1.493-4.684,2.9-4.684a1.564,1.564,0,0,1,1.171.563,5.738,5.738,0,0,1,.983,4.156C197.058,151.327,195.789,153.392,194.377,153.392Zm.751-8.938c-1.126,0-2.244,1.949-2.431,4.255a5.363,5.363,0,0,0,.894,3.808,1.162,1.162,0,0,0,.831.411c1.126,0,2.244-1.949,2.431-4.255a5.291,5.291,0,0,0-.894-3.8,1.108,1.108,0,0,0-.831-.429Z" transform="translate(-141.934 -134.262)"/><path class="r" d="M191.76,149.78a21.246,21.246,0,0,0,3.423,4.827,3.575,3.575,0,0,1-2.833.894Z" transform="translate(-141.892 -134.878)"/><path class="n" d="M164.6,189.3l-2.342,2.44-2.387,2.521c-1.573,1.68-3.111,3.388-4.594,5.077-.733.849-1.448,1.707-2.127,2.565s-1.359,1.689-1.966,2.53-1.144,1.671-1.609,2.431a14.4,14.4,0,0,0-.956,1.85l.161-1.216c-.08-.17-.089.331,0,.894a12.585,12.585,0,0,0,.626,2.154,46.156,46.156,0,0,0,2.217,4.988c.849,1.725,1.788,3.45,2.753,5.2l2.914,5.238.054.1a3.575,3.575,0,0,1-5.318,4.523,58.344,58.344,0,0,1-4.853-4.353c-1.537-1.528-3.012-3.128-4.469-4.845a45.52,45.52,0,0,1-3.986-5.676,26.413,26.413,0,0,1-1.725-3.575,14.3,14.3,0,0,1-1.019-5.122,3.935,3.935,0,0,1,.063-.8l.089-.42a23.419,23.419,0,0,1,1.645-4.934,37.731,37.731,0,0,1,2.056-3.843,63.055,63.055,0,0,1,4.559-6.6c1.582-2.065,3.254-4,4.961-5.89.894-.939,1.716-1.877,2.619-2.78s1.788-1.788,2.789-2.681a7.07,7.07,0,0,1,9.922,10.056Z" transform="translate(-135.969 -137.796)"/><path class="o" d="M154.437,229.49l7.919.116-2.789,9.081s-7.151-.974-7.258-4.862Z" transform="translate(-137.704 -143.341)"/><path class="o" d="M168.982,235.475l-1.52,3.012a2.735,2.735,0,0,1-3.271,1.394l-3.781-1.18,2.789-9.081,4.469,2.145a2.744,2.744,0,0,1,1.314,3.709Z" transform="translate(-138.564 -143.354)"/><path class="i" d="M163.365,173.55a23.488,23.488,0,0,0-12.8,7.151A88.381,88.381,0,0,0,140,196.3c4.469,7.741,11.691,8.634,13.631,8.125,6.8-4.576,10.932-6.909,12.844-12.969S166.3,178.243,163.365,173.55Z" transform="translate(-136.397 -137.401)"/><path class="e" d="M186.735,153.392a1.609,1.609,0,0,1-1.18-.563,5.756,5.756,0,0,1-.983-4.165c.223-2.628,1.493-4.684,2.9-4.684a1.582,1.582,0,0,1,1.18.563,5.685,5.685,0,0,1,.974,4.156C189.417,151.327,188.1,153.392,186.735,153.392Zm.742-8.938c-1.126,0-2.235,1.949-2.431,4.255a5.363,5.363,0,0,0,.894,3.808,1.135,1.135,0,0,0,.831.411c1.126,0,2.235-1.949,2.431-4.255a5.363,5.363,0,0,0-.894-3.8,1.126,1.126,0,0,0-.867-.429Z" transform="translate(-141.122 -134.262)"/><path class="e" d="M192.187,149.411a.232.232,0,0,1-.215-.143.349.349,0,0,0-.215-.206,3.075,3.075,0,0,0-1.788.322.232.232,0,0,1-.313-.116.241.241,0,0,1,.116-.313,3.441,3.441,0,0,1,2.118-.331.894.894,0,0,1,.483.456.241.241,0,0,1-.125.3.206.206,0,0,1-.063.027Z" transform="translate(-141.667 -134.75)"/></g><g transform="translate(246.629 80.213)"><path class="l" d="M331.234,169.054c7-8.044,3.388-16.831-4.469-21.675s-17.036-1.3-20.558,6.909-2.27,10.342-4.469,10.789c-1,4.326,2.1,8.867,5.694,6.471C312.866,173.845,322.394,179.208,331.234,169.054Z" transform="translate(-278.643 -141.488)"/><path class="l" d="M322.713,176.182c-3.843,0-7.24-1.671-9.725-2.9l-1.108-.545.358-.751c.349.161.724.349,1.117.545,4.737,2.333,11.888,5.855,19.521-2.083,2.816-2.932,4.121-6.257,3.79-9.51-.358-3.486-2.592-6.883-6.132-9.314l.474-.688c3.745,2.574,6.1,6.185,6.489,9.922.358,3.575-1.028,7.061-4.013,10.163C329.748,174.921,326.065,176.182,322.713,176.182Z" transform="translate(-279.741 -142.1)"/><path class="l" d="M305.846,157.094c-1.511-5.291.215-16.035,13.408-16.044s18.77,9.323,13.273,17.063C316.608,161.715,305.846,157.094,305.846,157.094Z" transform="translate(-279.052 -141.05)"/><path class="l" d="M299.367,170.9c-8.214,2.163-1.1,15.857,6.972,9.609-1.788-.125-5.721-4.076-2.681-6.632C300.439,171.07,299.367,170.9,299.367,170.9Z" transform="translate(-278.025 -144.219)"/><path class="l" d="M299.243,183.161a4.9,4.9,0,0,1-2.19-.518,7.008,7.008,0,0,1-3.477-6.757,5.283,5.283,0,0,1,4.174-4.675l.206.813a4.389,4.389,0,0,0-3.575,3.951,6.123,6.123,0,0,0,3.012,5.917c1.743.894,3.763.4,5.676-1.35l.563.626A6.552,6.552,0,0,1,299.243,183.161Z" transform="translate(-277.794 -144.252)"/><path class="j" d="M306.082,174.4c-2.109-.438-5.363-5.908-4.022-7.213a3.879,3.879,0,0,0-3.575,2.8c-.545,1.689.536,4.854,4.308,5.8C304.625,176.271,306.082,174.4,306.082,174.4Z" transform="translate(-278.304 -143.825)"/><path class="s" d="M305.228,200.018c-.063,2.047-.215,4.067-.34,6.1l-.518,6.078c-.179,2.038-.429,4.067-.679,6.123-.134,1.019-.286,2.056-.474,3.128a24.846,24.846,0,0,1-.8,3.405A57.714,57.714,0,0,1,297,236.469a94.111,94.111,0,0,1-6.981,10.252,1.931,1.931,0,0,1-3.254-2.065v-.045c1.788-3.522,3.575-7.151,5.148-10.726.778-1.788,1.555-3.575,2.217-5.426a44.132,44.132,0,0,0,1.663-5.363,19.982,19.982,0,0,0,.411-2.538c.08-.894.143-1.913.2-2.9l.322-5.98.313-6.015c.134-2.011.223-4.022.393-6.024h0a3.9,3.9,0,0,1,7.785.438Z" transform="translate(-277.048 -146.88)"/><path class="s" d="M306.78,241.22s0,46.8,2.842,72.15c.295,23.794,5.729,77.567,5.729,77.567h6c1.019-26.681,8.447-51.583,3.5-75.082,11.548-46.2,6.194-74.572,6.194-74.572Z" transform="translate(-279.199 -151.685)"/><path class="s" d="M314.1,241.248s4.469,57.277,13.479,77.763c9.421,21.541,26.145,63.739,27.8,70.89l5.014-1.332s-3.316-46.318-18.627-72.5c4.737-64.553-7.2-74.841-7.2-74.841Z" transform="translate(-279.976 -151.686)"/><path class="l" d="M303.857,187.4c-5.032,4.255-6.65,11.182-6.588,15.874,3.012,4.943,12.424,6.471,12.424,6.471s1.493-9.653.778-14.2S306.762,184.945,303.857,187.4Z" transform="translate(-278.189 -145.911)"/><path class="i" d="M300.465,195.945a10.118,10.118,0,0,1,8.4-11.092c1.457-.259,2.994-.5,4.469-.688a97.288,97.288,0,0,1,13.845-.492c1.323,0,2.619.072,3.843.152a7.9,7.9,0,0,1,7.312,8.938c-2.923,19.4-4.657,33.42-2.744,41.921,0,0,6.042,8.044,8.786,26.565,2.4,16.152,1.788,43.387,4.424,58.019-9.421,6.731-39.329,6.319-43.735,2.387,1.242-29.586-4.809-68.351-.206-86.255-1.841-9.922-.84-17.5-1.877-23.517C296.058,207.243,301.242,202.944,300.465,195.945Z" transform="translate(-278.408 -145.569)"/><path class="e" d="M318.469,244.28c-5.3,0-10.216-.509-12.38-1.466q-1.341-.59-1.26-1.394a.25.25,0,0,1,.277-.232.268.268,0,0,1,.232.277c0,.384.581.724.956.894,5.211,2.3,26.591,2.038,30.024-1.788a.259.259,0,0,1,.367,0,.241.241,0,0,1,0,.358C334.621,243.208,326.138,244.28,318.469,244.28Z" transform="translate(-278.991 -151.608)"/><path class="e" d="M318.179,242.242c-5.3,0-10.216-.509-12.38-1.457-.894-.393-1.314-.894-1.26-1.4a.268.268,0,0,1,.286-.232.259.259,0,0,1,.223.286c0,.384.581.715.956.894,5.22,2.3,26.591,2.038,30.033-1.788a.253.253,0,1,1,.358.358C334.331,241.169,325.857,242.242,318.179,242.242Z" transform="translate(-278.961 -151.393)"/><path class="k" d="M324.136,305.285c.813-11.9,0-29.711-7.276-39.7C318.773,278.247,324.136,305.285,324.136,305.285Z" transform="translate(-280.269 -154.272)"/><path class="s" d="M326.061,166.38c-.617,4.469-1.019,12.63,2.27,15.481a37.058,37.058,0,0,0-16.688,14.793c-4.362-9.948,2.842-14.3,2.842-14.3,4.9-1.359,4.559-5.023,3.495-8.447Z" transform="translate(-279.566 -143.739)"/><path class="k" d="M323.682,169.82l-4.782,4.469a14.968,14.968,0,0,1,.572,2.431c1.877-.34,4.371-2.5,4.469-4.469a6.642,6.642,0,0,0-.259-2.431Z" transform="translate(-280.486 -144.104)"/><path class="s" d="M327.552,154.148c.375,7.383.688,10.511-2.574,14.614-4.907,6.176-14.015,4.827-16.581-2.342-2.306-6.462-2.53-17.457,4.29-21.032A10.188,10.188,0,0,1,327.552,154.148Z" transform="translate(-279.216 -141.384)"/><path class="l" d="M322.237,148.658c-.554,7.785,7.866,14.48,10.5,11.521S328.878,143.348,322.237,148.658Z" transform="translate(-280.837 -141.73)"/><path class="l" d="M309.13,147.588c9.51,7.231,20.6,7.2,19.9,1.922S314.77,139.561,309.13,147.588Z" transform="translate(-279.449 -141.286)"/><path class="l" d="M317.079,158.52c.072.6-.2,1.117-.59,1.153s-.778-.42-.84-1.019.2-1.108.6-1.144S317.016,157.948,317.079,158.52Z" transform="translate(-280.14 -142.797)"/><path class="l" d="M308.759,159.4c.072.6-.2,1.117-.6,1.153s-.769-.42-.831-1.019.2-1.108.59-1.144S308.7,158.8,308.759,159.4Z" transform="translate(-279.256 -142.891)"/><path class="l" d="M308.012,158.367l-1.5-.277S307.386,159.145,308.012,158.367Z" transform="translate(-279.17 -142.859)"/><path class="t" d="M311.354,159.84a15.588,15.588,0,0,1-1.734,4.013,2.681,2.681,0,0,0,2.208.206Z" transform="translate(-279.501 -143.045)"/><path class="s" d="M332.079,162.341a4.63,4.63,0,0,1-2.771,2.726c-1.636.527-2.574-1.234-2.217-3.075.313-1.663,1.537-3.942,3.227-3.656S332.74,160.715,332.079,162.341Z" transform="translate(-281.347 -142.883)"/><path class="l" d="M319.049,155.059a.4.4,0,0,1-.25-.143,2.923,2.923,0,0,0-2.306-1.189.366.366,0,0,1-.393-.322.349.349,0,0,1,.331-.375,3.575,3.575,0,0,1,2.932,1.466.34.34,0,0,1-.063.492A.358.358,0,0,1,319.049,155.059Z" transform="translate(-280.188 -142.322)"/><path class="l" d="M306.392,156.344a.394.394,0,0,1-.268,0,.366.366,0,0,1-.2-.465,3.513,3.513,0,0,1,2.431-2.109.366.366,0,0,1,.42.295.349.349,0,0,1-.277.4,2.789,2.789,0,0,0-1.913,1.689A.331.331,0,0,1,306.392,156.344Z" transform="translate(-279.106 -142.4)"/><path class="l" d="M316.342,157.5l-1.5-.286S315.707,158.265,316.342,157.5Z" transform="translate(-280.055 -142.766)"/><path class="s" d="M328.136,227.842l-5.908-3.012-1.368,7.463s4.773,1.144,8.134-.259l.527-.894C329.655,229.514,329.459,228.834,328.136,227.842Z" transform="translate(-280.694 -149.945)"/><path class="s" d="M317.113,226.841l-.143,3.28a1.877,1.877,0,0,0,1.654,1.949l1.841.223,1.368-7.464-2.976.206A1.886,1.886,0,0,0,317.113,226.841Z" transform="translate(-280.281 -149.945)"/><path class="s" d="M341.03,191.175c1.448,4.085,2.753,8.152,3.924,12.317a109.127,109.127,0,0,1,3.021,12.844,27.522,27.522,0,0,1,.34,3.683,9.323,9.323,0,0,1-1.153,4.827,8.635,8.635,0,0,1-3.772,3.432,12.514,12.514,0,0,1-4.058,1.1,24.545,24.545,0,0,1-7.151-.438,29.074,29.074,0,0,1-3.3-.8,31.018,31.018,0,0,1-3.218-1.09,1.94,1.94,0,0,1,.956-3.727h.107c.956.116,2,.241,3,.322s2.029.116,3.021.143a22.167,22.167,0,0,0,5.586-.492,6.606,6.606,0,0,0,2-.8,1.7,1.7,0,0,0,.769-.894,3.057,3.057,0,0,0,.107-1.35,21.606,21.606,0,0,0-.42-2.682c-.393-1.913-.894-3.915-1.493-5.9s-1.153-4-1.788-6c-1.26-3.987-2.565-8.044-3.861-11.986h0a3.9,3.9,0,0,1,7.383-2.521Z" transform="translate(-281.074 -146.09)"/><path class="s" d="M286.685,248.827l-6.605-.527,1.582,7.419s4.326-.688,6.972-2.932a1.609,1.609,0,0,0,.536-1.01h0a1.609,1.609,0,0,0-.08-.822A2.86,2.86,0,0,0,286.685,248.827Z" transform="translate(-276.364 -152.436)"/><path class="s" d="M276.036,251.956l1.126,3.084a1.868,1.868,0,0,0,2.27,1.171l1.788-.492-1.582-7.419-2.681,1.323A1.9,1.9,0,0,0,276.036,251.956Z" transform="translate(-275.923 -152.436)"/><path class="i" d="M337.407,184.681c4.416,1.859,6.516,4.862,10.163,13.211-.894,5.721-10.556,10.583-10.556,10.583a89.559,89.559,0,0,1-4.246-11.727C331.713,192.261,332.938,182.795,337.407,184.681Z" transform="translate(-281.92 -145.656)"/><path class="l" d="M321.605,408.709a.51.51,0,0,0-.536-.331l-5.578-.089a3.164,3.164,0,0,0-1.689.358,20.88,20.88,0,0,1-8.4,3c-1.18.179-.644,2.181,2.145,2.208,4.621.054,5.452-.295,9.394-.25,3.361,0,1.788.188,4.469.25.644,0,1.162-.4,1.082-.849Z" transform="translate(-278.99 -169.421)"/><path class="l" d="M365.214,404.974a.527.527,0,0,0-.608-.188l-5.426,1.332a3.065,3.065,0,0,0-1.528.769c-1.314,1.52-3.128,3.852-6.883,4.416-1.189.179-.653,2.181,2.136,2.208,4.621.054,5.2-1.663,9.028-2.619,3.262-.813,1.788-.259,4.353-.894.626-.143,1.028-.679.831-1.09Z" transform="translate(-283.806 -169.047)"/><path class="u" d="M314.73,194.471c2.056-.769,7.839-1.225,10.449,1.207,4.273-2.2,6.605-8.482,6.078-12.326a5.363,5.363,0,0,0-3.495-1.073S318.243,188.286,314.73,194.471Z" transform="translate(-280.043 -145.426)"/><path class="u" d="M309.95,194.721s-1.18-5.023,4.469-10.646c-.679-.438-3.048.4-3.048.4s-6.865,3.888-5.765,11.879a6.257,6.257,0,0,1,4.344-1.636Z" transform="translate(-279.062 -145.604)"/><path class="l" d="M318.835,164.854a6.149,6.149,0,0,0,.778-.894.188.188,0,0,0-.054-.277.223.223,0,0,0-.295,0,5.863,5.863,0,0,1-4.514,2.378.206.206,0,1,0,0,.4,6.257,6.257,0,0,0,4.085-1.609Z" transform="translate(-280.019 -143.447)"/></g><g transform="translate(151.344 148.133)"><path class="j" d="M224.657,399.681h-1.573l-6.793-130.794a7.437,7.437,0,0,0-7.428-7.052h-23.74a7.446,7.446,0,0,0-7.437,7.054l-6.793,130.793H169.32l6.865-130.875a9,9,0,0,1,8.938-8.536h23.713a9,9,0,0,1,8.992,8.536Z" transform="translate(-169.32 -221.628)"/><path class="v" d="M224.657,399.681h-1.573l-6.793-130.794a7.437,7.437,0,0,0-7.428-7.052h-23.74a7.446,7.446,0,0,0-7.437,7.054l-6.793,130.793H169.32l6.865-130.875a9,9,0,0,1,8.938-8.536h23.713a9,9,0,0,1,8.992,8.536Z" transform="translate(-169.32 -221.628)"/><path class="j" d="M323.61,399.681h-1.573l-6.793-130.794a7.437,7.437,0,0,0-7.428-7.052h-23.7a7.446,7.446,0,0,0-7.437,7.054l-6.793,130.793H268.3l6.811-130.875a9,9,0,0,1,9.01-8.536h23.713a9,9,0,0,1,8.992,8.536Z" transform="translate(-179.828 -221.628)"/><path class="v" d="M323.61,399.681h-1.573l-6.793-130.794a7.437,7.437,0,0,0-7.428-7.052h-23.7a7.446,7.446,0,0,0-7.437,7.054l-6.793,130.793H268.3l6.811-130.875a9,9,0,0,1,9.01-8.536h23.713a9,9,0,0,1,8.992,8.536Z" transform="translate(-179.828 -221.628)"/><rect class="j" width="138.177" height="7.598" transform="translate(2.565 33.663)"/><rect class="w" width="47.802" height="7.598" transform="translate(92.941 33.663)"/><path class="j" d="M277.85,252.65H212.824a.894.894,0,0,0-.894.894h0a.894.894,0,0,0,.894.894H277.85a.894.894,0,0,0,.894-.894h0A.894.894,0,0,0,277.85,252.65Z" transform="translate(-173.844 -220.819)"/><path class="x" d="M277.85,252.65H212.824a.894.894,0,0,0-.894.894h0a.894.894,0,0,0,.894.894H277.85a.894.894,0,0,0,.894-.894h0A.894.894,0,0,0,277.85,252.65Z" transform="translate(-173.844 -220.819)"/><path class="j" d="M259.981,250.7H207.245a2.36,2.36,0,0,1-2.154-1.725l-7.419-30.212a1.314,1.314,0,0,1,1.3-1.725h52.736a2.369,2.369,0,0,1,2.163,1.725l7.419,30.212a1.314,1.314,0,0,1-1.314,1.725Z" transform="translate(-172.323 -217.039)"/><path class="m" d="M259.981,250.7H207.245a2.36,2.36,0,0,1-2.154-1.725l-7.419-30.212a1.314,1.314,0,0,1,1.3-1.725h52.736a2.369,2.369,0,0,1,2.163,1.725l7.419,30.212a1.314,1.314,0,0,1-1.314,1.725Z" transform="translate(-172.323 -217.039)"/><path class="e" d="M248.957,242.621h-.08a.259.259,0,0,1-.161-.331,10.726,10.726,0,0,0-.125-7.723c-.072.125-.152.241-.232.357a4.1,4.1,0,0,1-2.681,1.466,4.862,4.862,0,0,1-2.637-.259,3.477,3.477,0,0,1-1.922-1.859,2.735,2.735,0,0,1,.331-2.682c1.278-1.645,3.9-1.26,5.291-.358a5.756,5.756,0,0,1,1.788,2.02,3.1,3.1,0,0,0,.063-.429,3.665,3.665,0,0,0-1.055-3.03,6.82,6.82,0,0,0-5.1-1.788,7.151,7.151,0,0,0-1.922.375.25.25,0,0,1-.322-.161.259.259,0,0,1,.152-.322,7.831,7.831,0,0,1,2.065-.4,7.312,7.312,0,0,1,5.5,1.94,4.237,4.237,0,0,1,1.2,3.441,4.821,4.821,0,0,1-.215,1.046h0a11.173,11.173,0,0,1,.322,8.491A.25.25,0,0,1,248.957,242.621ZM244.023,231a2.682,2.682,0,0,0-2.19.894,2.2,2.2,0,0,0-.259,2.154,2.976,2.976,0,0,0,1.636,1.591,4.407,4.407,0,0,0,2.369.223,3.575,3.575,0,0,0,2.369-1.278,2.493,2.493,0,0,0,.358-.644,5.783,5.783,0,0,0-1.868-2.288,4.612,4.612,0,0,0-2.413-.67Z" transform="translate(-176.843 -218.147)"/><path class="j" d="M254.452,240.56H242.77l1.225,12.639h9.233Z" transform="translate(-177.118 -219.536)"/><path class="e" d="M248.95,229.033a3.824,3.824,0,0,1-1.064-.143.25.25,0,0,1-.17-.2,3.906,3.906,0,0,1,1.341-3.432,9.439,9.439,0,0,1,4.469-1.671.259.259,0,0,1,.223.089.25.25,0,0,1,.054.223,9.554,9.554,0,0,1-2.351,4.2h0a3.852,3.852,0,0,1-2.5.93Zm-.751-.59a3.379,3.379,0,0,0,2.95-.733h0a8.448,8.448,0,0,0,2.083-3.575,8.455,8.455,0,0,0-3.844,1.493,3.433,3.433,0,0,0-1.189,2.8Z" transform="translate(-177.64 -217.734)"/><path class="e" d="M238.684,236.538a7,7,0,0,1-2.565-.626.188.188,0,0,1-.089-.125.152.152,0,0,1,.054-.143,6.1,6.1,0,0,1,2.682-1.528,2.556,2.556,0,0,1,2.261.769.188.188,0,0,1,0,.17,2.539,2.539,0,0,1-1.895,1.448h0A3.149,3.149,0,0,1,238.684,236.538ZM239.158,236.342Zm-2.681-.626a5.622,5.622,0,0,0,2.681.465,2.244,2.244,0,0,0,1.6-1.153,2.226,2.226,0,0,0-1.886-.59,5.471,5.471,0,0,0-2.36,1.278Z" transform="translate(-176.402 -218.848)"/></g><g transform="translate(71.863 205.5)"><path class="l" d="M103.581,380.742a.25.25,0,0,1-.25-.232c-2.083-21.81,1.716-80.016,6.15-94.371a.268.268,0,0,1,.322-.17.259.259,0,0,1,.17.322c-4.469,14.3-8.205,72.4-6.132,94.174a.25.25,0,0,1-.232.277Z" transform="translate(-82.772 -281.723)"/><path class="j" d="M112.228,371.38H91.67l2.681,40.1h15.2Z" transform="translate(-81.597 -290.792)"/><path class="l" d="M102.7,302.025a9.269,9.269,0,0,1,2.217,8.322,9.3,9.3,0,0,1-8.152-2.8C93.283,303.794,92.3,296.76,92.3,296.76S99.183,298.271,102.7,302.025Z" transform="translate(-81.663 -282.87)"/><path class="l" d="M116.229,323.26a12,12,0,0,1-11.119.626,12,12,0,0,1,5.685-9.582c5.667-3.441,14.838-2.878,14.838-2.878S121.9,319.819,116.229,323.26Z" transform="translate(-83.023 -284.423)"/><path class="j" d="M115.517,284.652a3.423,3.423,0,1,1-1-2.426A3.423,3.423,0,0,1,115.517,284.652Z" transform="translate(-83.401 -281.22)"/><path class="l" d="M87.685,344.961a15.2,15.2,0,0,0,13.407,4.657,15.2,15.2,0,0,0-3.575-13.693C91.8,329.739,80.4,327.21,80.4,327.21S81.964,338.776,87.685,344.961Z" transform="translate(-80.4 -286.103)"/></g></svg>