<svg xmlns="http://www.w3.org/2000/svg" width="89.594" height="90.839" viewBox="0 0 89.594 90.839"><defs><style>.a{fill:#fff;}.b{fill:#f5333f;}.c{fill:#3c293e;}</style></defs><g transform="translate(-0.022 -0.01)"><g transform="translate(0.022 0.01)"><path class="a" d="M89.321,31.783a9.217,9.217,0,0,0-4.5-5.948q-12.658-7.389-25.3-14.8-8.222-4.812-16.448-9.62A9.075,9.075,0,0,0,38.834.056a9.237,9.237,0,0,0-9.288,6.46c-.073.221-.145.441-.216.659a1.712,1.712,0,0,1-.633-.3C25.52,5.016,22.344,3.147,19.159,1.3A8.481,8.481,0,0,0,12.147.4,9.159,9.159,0,0,0,5.464,8.236,7.124,7.124,0,0,0,5.4,9.556a2.011,2.011,0,0,0,2,2.04,2.049,2.049,0,0,0,2.124-2,7.785,7.785,0,0,1,.151-1.376,5.1,5.1,0,0,1,5.917-3.939,5.772,5.772,0,0,1,1.755.748q12.905,7.553,25.816,15.1,7.943,4.641,15.878,9.288a5.5,5.5,0,0,1-.1,9.571Q40.633,49.684,22.328,60.4c-1.77,1.038-3.53,2.089-5.315,3.1a4.623,4.623,0,0,1-5.237-.254A5.108,5.108,0,0,1,9.533,58.83c-.013-3.812,0-7.636,0-11.455V40.754c0-.51.009-.514.5-.525H20.9a11.8,11.8,0,0,0,1.719-.1A12.047,12.047,0,0,0,31.41,34.4a.891.891,0,0,1,.9-.479q2.249.034,4.505,0a2.069,2.069,0,1,0-.022-4.137c-.993.027-2,.009-2.98,0a1.126,1.126,0,0,1-.675-.087c0-.644.123-1.3.1-1.962-.018-.485-.022-.967-.064-1.452-.069-.813-.132-.681.666-.69h3.113a2.067,2.067,0,0,0,1.875-2.723,2.035,2.035,0,0,0-1.968-1.4c-1.479-.015-2.96-.024-4.44,0a1.05,1.05,0,0,1-1.049-.563,11.906,11.906,0,0,0-10.346-5.756c-4.458-.054-8.885-.015-13.323-.015a2.922,2.922,0,0,0-.726.045,2.057,2.057,0,0,0-1.59,2.087c-.02,1.236,0,2.472-.009,3.708,0,.466-.015.476-.479.479H2.309a2.65,2.65,0,0,0-.851.093A2.091,2.091,0,0,0,.037,23.775,2.053,2.053,0,0,0,2,25.59c.951.029,1.9,0,2.848.009.51,0,.519,0,.519.5q.011,1.588,0,3.176c0,.506,0,.512-.512.515-.973,0-1.944-.022-2.915.018A2.017,2.017,0,0,0,.029,31.669a2.08,2.08,0,0,0,1.488,2.164,2.944,2.944,0,0,0,.851.1H5.021c.249,0,.376.076.363.338-.009.111,0,.223,0,.33q0,4.67.018,9.337v14.7a11.275,11.275,0,0,0,.138,1.911,9.176,9.176,0,0,0,13.784,6.422c3.058-1.846,6.171-3.616,9.257-5.414a2.565,2.565,0,0,1,.777-.385,10.477,10.477,0,0,0,.929,2.36,9.1,9.1,0,0,0,12.568,3.536Q46.4,65,49.934,62.925q17.425-10.185,34.85-20.364A9.652,9.652,0,0,0,89.321,31.783ZM9.539,19.588c0-.223.094-.319.318-.309H20.977A7.939,7.939,0,0,1,26.1,21.094c.091.074.243.12.205.363H10.27c-.826,0-.726.083-.726-.757C9.535,20.337,9.544,19.964,9.539,19.588Zm0,6.282c0-.2.093-.276.281-.27h18.4c.713,0,.726,0,.788.708a14.853,14.853,0,0,1,0,2.841c-.062.644-.076.644-.726.648H9.811c-.2,0-.272-.1-.272-.285q0-1.824,0-3.641Zm.352,8.059h16.1c.105,0,.211.009.481.022a8.1,8.1,0,0,1-3.839,1.978,7.6,7.6,0,0,1-1.581.151H9.851c-.214.013-.325-.06-.318-.3,0-.51.011-1.016,0-1.523C9.529,33.991,9.649,33.907,9.891,33.929Z" transform="translate(-0.022 -0.01)"/><path class="a" d="M50.345,410.115a3.713,3.713,0,0,0-2.761-3.282,5.95,5.95,0,0,0-1.762-.254h-4.57c-1.243,0-1.677.421-1.713,1.65v10.059a3.9,3.9,0,0,0,.094.918,1.171,1.171,0,0,0,.682.839,1.482,1.482,0,0,0,2.216-1.321c.013-.22,0-.441,0-.663,0-.837.011-1.677,0-2.514,0-.29.1-.378.381-.376.928.016,1.857,0,2.783.009a7.278,7.278,0,0,0,1.452-.14,3.811,3.811,0,0,0,3.176-3.213,5.549,5.549,0,0,0,.022-1.713Zm-4.427,2.7a25.367,25.367,0,0,1-3.107.076c-.252,0-.276-.156-.276-.352v-3.305c0-.218.069-.321.3-.318.993.018,2-.024,2.979.045a1.739,1.739,0,0,1,1.73,1.875A1.783,1.783,0,0,1,45.918,412.811Z" transform="translate(-32.365 -332.783)"/><path class="b" d="M229.33,417.85c-.064-.181-.151-.363-.231-.544q-2.36-5.142-4.719-10.281a3.936,3.936,0,0,0-.25-.465,1.7,1.7,0,0,0-2.92-.058,5.291,5.291,0,0,0-.4.759q-2.325,5.082-4.643,10.165a2.982,2.982,0,0,0-.227.619A1.112,1.112,0,0,0,217,419.471a1.354,1.354,0,0,0,1.485-.759c.3-.608.579-1.238.837-1.871a.593.593,0,0,1,.63-.445q2.685.024,5.367,0a.6.6,0,0,1,.646.423c.236.6.5,1.18.777,1.755a1.453,1.453,0,0,0,1.32.908C229.132,419.5,229.644,418.788,229.33,417.85Zm-8.794-3.812c.688-1.652,1.352-3.251,2.022-4.85h.147c.675,1.6,1.352,3.187,2.056,4.846Z" transform="translate(-176.722 -332.063)"/><path class="a" d="M112.236,432.1a6.987,6.987,0,0,0-.1-1.183,3.126,3.126,0,0,0-2.479-2.761,8.057,8.057,0,0,0-4.988.459,1.272,1.272,0,0,0-.385.249,1.165,1.165,0,0,0-.209,1.4.931.931,0,0,0,1.209.381c.272-.087.545-.2.81-.287a5.152,5.152,0,0,1,2.153-.241,1.207,1.207,0,0,1,1.214,1.3c.031.47.025.477-.441.5-.726.033-1.452.053-2.178.1a6.631,6.631,0,0,0-2.064.427,2.05,2.05,0,0,0-1.343,1.443,2.892,2.892,0,0,0,.514,2.557c1.076,1.4,4.195,2,5.482-.027.156.134.138.28.171.4a1.118,1.118,0,0,0,.929.837,1.294,1.294,0,0,0,1.7-1.245c.015-.152,0-.309,0-.465C112.236,434.657,112.231,433.379,112.236,432.1Zm-4.654,3.668a1.52,1.52,0,0,1-1.147-.408,1.024,1.024,0,0,1,.4-1.706,7.2,7.2,0,0,1,2.414-.212c.216,0,.22.151.225.314a1.9,1.9,0,0,1-1.891,2.013Z" transform="translate(-84.582 -350.268)"/><path class="b" d="M389.941,433.535c1.222,0,1.365-.16,1.271-1.39A4.186,4.186,0,0,0,388,428.171a5.291,5.291,0,0,0-2.488.018,4.582,4.582,0,0,0-3.519,4.556,4.39,4.39,0,0,0,2.485,4.456,6.562,6.562,0,0,0,5.759-.06,1.6,1.6,0,0,0,.53-.383,1.1,1.1,0,0,0,.122-1.347.951.951,0,0,0-1.236-.3c-.165.06-.321.143-.49.2a4.749,4.749,0,0,1-2.6.243,2.039,2.039,0,0,1-1.766-2.018Zm-2.93-3.572a1.782,1.782,0,0,1,1.815,1.735c.014.2-.009.354-.258.354h-3.746A2.027,2.027,0,0,1,387.012,429.963Z" transform="translate(-312.659 -350.342)"/><path class="a" d="M164.387,434.163c.227-.545.4-.938.563-1.341.456-1.122.908-2.247,1.363-3.367a4.6,4.6,0,0,1,.349-.71,1.5,1.5,0,0,1,1.815-.528,1.188,1.188,0,0,1,.566,1.414,4.672,4.672,0,0,1-.265.677q-2.116,4.8-4.24,9.605a6.362,6.362,0,0,1-.292.59,1.376,1.376,0,0,1-1.058.706,1.187,1.187,0,0,1-1.4-1.657,20.472,20.472,0,0,1,.88-2,.987.987,0,0,0,0-.928c-.946-2.133-1.871-4.275-2.808-6.411a2.127,2.127,0,0,1-.227-1.089,1.033,1.033,0,0,1,.381-.742,1.592,1.592,0,0,1,2.243.425,6,6,0,0,1,.319.726C163.162,431.037,163.748,432.533,164.387,434.163Z" transform="translate(-130.659 -350.392)"/><path class="b" d="M293.107,415.849V413.2c0-.544-.009-.544-.53-.581a1.815,1.815,0,0,1-.265-.013,1.072,1.072,0,0,1,.013-2.142h.265c.49-.016.49-.016.545-.51a3.526,3.526,0,0,1,2.9-3.4,7.472,7.472,0,0,1,1.9-.236,1.053,1.053,0,0,1,.895,1.65.822.822,0,0,1-.639.417c-.307.038-.617.06-.918.123a1.461,1.461,0,0,0-1.271,1.6c.011.243.087.363.349.363.352-.011.706-.011,1.058,0,.7.029,1.016.347,1.035,1.016.022.737-.265,1.073-.987,1.12-.374.024-.75.016-1.125.018-.216,0-.325.1-.325.318v5.16c0,.182,0,.354-.009.53A1.319,1.319,0,0,1,294.423,420a1.251,1.251,0,0,1-1.3-1.3c-.029-.948,0-1.9,0-2.846Z" transform="translate(-238.418 -332.571)"/><path class="b" d="M337.557,420.3v-1.654c0-.457-.015-.457-.492-.479a3.952,3.952,0,0,1-.463-.018c-.668-.067-.957-.41-.937-1.109a.95.95,0,0,1,.969-1.029c.3-.031.7.158.864-.127a2.062,2.062,0,0,0,.06-.908,3.827,3.827,0,0,1,.08-.92c.192-.71.7-1.018,1.59-.953a1.189,1.189,0,0,1,1.218,1.151c.035.363.015.75.018,1.124,0,.63,0,.632.668.633.4,0,.795-.011,1.193,0a1.089,1.089,0,0,1,.908,1.71.866.866,0,0,1-.775.423c-.508.013-1.016.009-1.523.022-.459.011-.47.018-.474.5,0,.993-.016,1.984,0,2.977.022,1.125.53,1.592,1.664,1.55.263-.009.525-.069.788-.091a.566.566,0,0,1,.677.477,1.4,1.4,0,0,1-1.173,1.9,5.334,5.334,0,0,1-2.617-.142,3,3,0,0,1-2.14-2.532A15.38,15.38,0,0,1,337.557,420.3Z" transform="translate(-274.742 -338.114)"/><path class="b" d="M445.4,429.338a3.205,3.205,0,0,1,2.518-1.252.863.863,0,0,1,1.042.844,1.872,1.872,0,0,1-.065.978,1,1,0,0,1-.8.623c-.325.056-.655.083-.982.133a1.955,1.955,0,0,0-1.851,2.1c-.009,1.169.009,2.336,0,3.5a1.424,1.424,0,0,1-2,1.468,1.076,1.076,0,0,1-.908-1.073q-.033-3.7,0-7.406a1.1,1.1,0,0,1,1.022-1.115,1.365,1.365,0,0,1,1.661.737,3.348,3.348,0,0,1,.12.445C445.224,429.465,445.309,429.4,445.4,429.338Z" transform="translate(-362.055 -350.383)"/><path class="c" d="M457.91,434.959a.232.232,0,0,1-.013.062c-.047.094-.1.245-.2.214s-.067-.182-.042-.285Z" transform="translate(-374.569 -356.004)"/><path class="b" d="M235.129,52.88a5.447,5.447,0,0,1-2.857,4.8Q219.9,64.9,207.53,72.145l-16.857,9.861a5.627,5.627,0,0,1-2.345.839,5.134,5.134,0,0,1-5.3-3.9c-.336-1.312-.318-1.345.84-2.022l26.916-15.735a9.18,9.18,0,0,0,4.485-5.961,9.6,9.6,0,0,0-4.476-10.685c-9.115-5.3-18.205-10.646-27.319-15.951a1,1,0,0,1-.581-1.149,5.218,5.218,0,0,1,5.233-4.574,5.15,5.15,0,0,1,2.43.784Q195.979,26.833,201.41,30q15.428,9.019,30.857,18.035A5.463,5.463,0,0,1,235.129,52.88Z" transform="translate(-149.656 -18.714)"/></g></g></svg>